<?xml version="1.0" standalone="no"?>
<!DOCTYPE svg PUBLIC "-//W3C//DTD SVG 1.1//EN" "http://www.w3.org/Graphics/SVG/1.1/DTD/svg11.dtd" >
<svg xmlns="http://www.w3.org/2000/svg" xmlns:xlink="http://www.w3.org/1999/xlink" version="1.1">
<metadata></metadata>
<defs>
<font id="pf_dindisplay_proregular" horiz-adv-x="3723" >
<font-face units-per-em="2048" ascent="1536" descent="-512" />
<missing-glyph horiz-adv-x="491" />
<glyph unicode="fj" horiz-adv-x="978" d="M53 858v158h125v180q0 129 75 197.5t191 68.5h152v-155h-135q-61 0 -85 -35t-24 -96v-160h506v-1122q0 -164 -75.5 -238t-221.5 -74h-100v160h80q84 0 113.5 36t29.5 140v940h-332v-858h-174v858h-125zM668 1317q0 43 29.5 72.5t72.5 29.5t72.5 -29.5t29.5 -72.5t-30 -74 t-72 -31t-72 31t-30 74z" />
<glyph unicode="ffj" horiz-adv-x="1482" d="M53 858v158h125v139q0 129 75 197.5t191 68.5h142v-155h-125q-61 0 -85 -35t-24 -96v-119h330v180q0 129 75 197.5t191 68.5h152v-155h-135q-61 0 -85 -35t-24 -96v-160h506v-1122q0 -164 -75.5 -238t-221.5 -74h-100v160h79q84 0 114 36t30 140v940h-332v-858h-174v858 h-330v-858h-174v858h-125zM1171 1317q0 43 30 72.5t73 29.5t72.5 -29.5t29.5 -72.5t-30 -74t-72 -31q-43 0 -73 31t-30 74z" />
<glyph unicode="ff" horiz-adv-x="1126" d="M53 858v158h125v143q0 129 75 197.5t191 68.5h183v-155h-166q-61 0 -85 -35t-24 -96v-123h332v184q0 129 75 197.5t191 68.5h183v-155h-166q-61 0 -85 -35t-24 -96v-164h275v-158h-275v-858h-174v858h-332v-858h-174v858h-125z" />
<glyph unicode="fi" horiz-adv-x="978" d="M53 858v158h125v180q0 129 75 197.5t191 68.5h152v-155h-135q-61 0 -85 -35t-24 -96v-160h506v-1016h-174v858h-332v-858h-174v858h-125zM668 1317q0 43 29.5 72.5t72.5 29.5t72.5 -29.5t29.5 -72.5t-30 -74t-72 -31t-72 31t-30 74z" />
<glyph unicode="fl" horiz-adv-x="1079" d="M53 858v158h125v164q0 75 20 133t52.5 94t79.5 59t97 32t108 9q147 0 321 -43v-1194q0 -75 33.5 -96t122.5 -18l4 -160q-52 -8 -103 -8q-133 0 -182 63.5t-49 196.5v1081q-73 21 -158 21q-172 0 -172 -166v-168h219v-158h-219v-858h-174v858h-125z" />
<glyph unicode="ffi" horiz-adv-x="1482" d="M53 858v158h125v139q0 129 75 197.5t191 68.5h142v-155h-125q-61 0 -85 -35t-24 -96v-119h330v180q0 129 75 197.5t191 68.5h152v-155h-135q-61 0 -85 -35t-24 -96v-160h506v-1016h-174v858h-332v-858h-174v858h-330v-858h-174v858h-125zM1171 1317q0 43 30 72.5t73 29.5 t72.5 -29.5t29.5 -72.5t-30 -74t-72 -31q-43 0 -73 31t-30 74z" />
<glyph unicode="ffl" horiz-adv-x="1581" d="M53 858v158h125v164q0 129 75 197.5t191 68.5h154v-156h-137q-61 0 -85 -35t-24 -96v-143h328v164q0 93 29 159.5t81 101.5t112 50.5t134 15.5q148 0 322 -43v-1194q0 -76 33 -96.5t122 -17.5l5 -160q-52 -8 -103 -8q-133 0 -182 63.5t-49 196.5v1081q-74 21 -158 21 q-172 0 -172 -166v-168h219v-158h-219v-858h-174v858h-328v-858h-174v858h-125z" />
<glyph unicode="ft" horiz-adv-x="1222" d="M53 858v158h125v184q0 129 75 197.5t191 68.5h142v-155h-125q-61 0 -85 -35t-24 -96v-164h338l41 235h129v-235h283v-158h-283v-496q0 -117 38.5 -160.5t117.5 -43.5q44 0 166 16l28 -149q-101 -35 -219 -35q-162 0 -233.5 74t-71.5 245v549h-334v-858h-174v858h-125z " />
<glyph unicode=" "  horiz-adv-x="491" />
<glyph unicode="&#x09;" horiz-adv-x="491" />
<glyph unicode="&#xa0;" horiz-adv-x="491" />
<glyph unicode="!" horiz-adv-x="485" d="M123 113q0 46 31.5 81t85.5 35q57 0 91 -35t34 -81q0 -53 -33.5 -88t-91.5 -35q-56 0 -86.5 34t-30.5 89zM152 1425h182l-15 -1038h-153z" />
<glyph unicode="&#x22;" horiz-adv-x="626" d="M115 1042v383h141v-383h-141zM365 1042v383h141v-383h-141z" />
<glyph unicode="#" horiz-adv-x="1077" d="M51 436v133h203l41 293h-186v131h204l62 430h141l-57 -430h231l60 430h143l-59 -430h192v-131h-211l-39 -293h193v-133h-211l-60 -436h-149l61 436h-227l-59 -436h-152l64 436h-185zM401 569h228l41 293h-230z" />
<glyph unicode="$" horiz-adv-x="1024" d="M53 166l99 133q181 -137 372 -137q135 0 205 60t70 169q0 51 -19.5 90t-41.5 61t-70.5 41t-73.5 25.5t-84 18.5l-6 1.5t-5.5 1t-6.5 1.5q-84 18 -149 44t-125 69.5t-93 113t-33 160.5q0 157 104 266t261 127v170h123l-5 -168q203 -10 357 -108l-80 -152q-162 98 -328 98 q-107 0 -181.5 -62t-74.5 -175q0 -37 12 -67t37 -52t48.5 -37t62.5 -28t62.5 -19.5t62.5 -15.5q45 -11 70.5 -18t67 -20t66 -24.5t58 -30.5t53.5 -39t42.5 -48t34.5 -60t20 -74t8 -90q0 -171 -108 -275t-290 -118h5v-199h-123v199q-227 15 -404 168z" />
<glyph unicode="%" horiz-adv-x="1638" d="M98 791v391q0 106 85 171.5t206 65.5t206 -65.5t85 -171.5v-391q0 -106 -84.5 -172t-206.5 -66q-125 0 -208 65.5t-83 172.5zM248 807q0 -33 13.5 -58t35 -38.5t45 -20t47.5 -6.5q55 0 100.5 30t45.5 93v354q0 63 -45.5 94t-100.5 31q-53 0 -97 -31t-44 -94v-354z M317 -35l871 1495h137l-872 -1495h-136zM956 229v392q0 106 85 171.5t206 65.5t206 -65.5t85 -171.5v-392q0 -106 -84.5 -171.5t-206.5 -65.5q-126 0 -208.5 65t-82.5 172zM1106 246q0 -33 13.5 -58t35 -38.5t45 -20t47.5 -6.5q55 0 100.5 30t45.5 93v354q0 63 -45.5 94 t-100.5 31q-53 0 -97 -31t-44 -94v-354z" />
<glyph unicode="&#x26;" horiz-adv-x="1701" d="M96 1018q0 124 50.5 238t140.5 201.5t224.5 139.5t291.5 52q142 0 263 -40t208.5 -111.5t149 -169t92 -214t30.5 -244.5q0 -186 -74 -350t-202 -289q160 -150 313 -211l-70 -129q-91 39 -189.5 106t-172.5 140q-90 -70 -206 -110.5t-228 -40.5q-124 0 -223.5 45 t-160.5 138t-61 222q0 257 334 445q-104 143 -104 266q0 133 78 218t213 85q129 0 215 -80t86 -197q0 -111 -66 -190.5t-199 -159.5q165 -244 342 -446q107 107 169.5 245t62.5 291q0 131 -39 246.5t-112 204.5t-187 140.5t-254 51.5q-127 0 -235.5 -39t-181 -105 t-113.5 -154t-41 -185q0 -146 86 -280l-123 -72q-107 158 -107 342zM424 395q0 -131 78 -201.5t198 -70.5q179 0 355 117q-195 209 -363 471q-126 -69 -197 -143.5t-71 -172.5zM662 1112q0 -46 21.5 -92.5t66.5 -112.5q94 51 142 100.5t48 120.5q0 59 -43 98.5t-104 39.5 q-66 0 -98.5 -47.5t-32.5 -106.5z" />
<glyph unicode="'" horiz-adv-x="526" d="M199 1042v383h141v-383h-141z" />
<glyph unicode="(" horiz-adv-x="593" d="M104 625q0 127 30 252t84 234.5t119 203.5t144 180l94 -57q-131 -171 -208.5 -385.5t-77.5 -417.5q0 -215 77.5 -429t206.5 -386l-86 -66q-168 181 -275.5 406.5t-107.5 464.5z" />
<glyph unicode=")" horiz-adv-x="593" d="M41 -180q130 171 207.5 385.5t77.5 429.5q0 203 -77 417.5t-208 385.5l92 57q168 -182 273.5 -403.5t105.5 -466.5q0 -239 -108.5 -464t-276.5 -407z" />
<glyph unicode="*" horiz-adv-x="739" d="M57 1151l39 133l228 -96l-21 246h139l-20 -246q194 81 227 96l39 -135l-233 -59l159 -185q-84 -67 -114 -88l-127 213l-129 -215q-12 10 -53 40t-62 48l160 187q-38 9 -116 30.5t-116 30.5z" />
<glyph unicode="+" horiz-adv-x="1024" d="M59 537v131h387v389h132v-389h385v-131h-385v-394h-132v394h-387z" />
<glyph unicode="," horiz-adv-x="512" d="M117 -193q50 38 77 80.5t31 100.5q-42 3 -68 37t-26 81t34 83t89 36q70 0 104.5 -49.5t34.5 -114.5q0 -109 -63 -200.5t-152 -132.5z" />
<glyph unicode="-" horiz-adv-x="802" d="M106 471v154h590v-154h-590z" />
<glyph unicode="." horiz-adv-x="448" d="M109 113q0 46 31 81t85 35q57 0 91 -35t34 -81q0 -53 -33.5 -88t-91.5 -35q-56 0 -86 33.5t-30 89.5z" />
<glyph unicode="/" horiz-adv-x="649" d="M-2 -86l514 1571h133l-514 -1571h-133z" />
<glyph unicode="0" horiz-adv-x="1024" d="M82 352v705q0 83 38 154t99.5 117t138 71.5t154.5 25.5q79 0 155.5 -25.5t138 -71.5t99 -116.5t37.5 -154.5v-705q0 -67 -24.5 -125.5t-66.5 -101t-97 -73.5t-117 -46.5t-125 -15.5q-80 0 -156.5 25t-137.5 70t-98.5 114.5t-37.5 152.5zM262 397q0 -64 23.5 -113 t61.5 -76.5t79.5 -40.5t85.5 -13t86 13t80.5 40.5t62 76.5t23.5 113v615q0 65 -23.5 114.5t-62 77t-80.5 40.5t-86 13t-85.5 -13t-79.5 -40.5t-61.5 -77t-23.5 -114.5v-615z" />
<glyph unicode="1" horiz-adv-x="1024" d="M195 1165l297 246h165v-1411h-176v1194l-192 -158z" />
<glyph unicode="2" horiz-adv-x="1024" d="M86 0v166q0 82 28 158t80.5 140t110 114.5t133.5 103.5q316 200 316 365q0 70 -41.5 119t-101 70t-128.5 21q-159 0 -288 -106l-93 133q166 141 381 141q90 0 168.5 -21t144 -63t104 -115.5t38.5 -170.5q0 -229 -373 -486q-6 -5 -20 -14q-45 -31 -71 -50.5t-70 -58 t-69 -71t-45 -77t-20 -87.5v-53h664v-158h-848z" />
<glyph unicode="3" horiz-adv-x="1024" d="M23 127l94 139q59 -52 142 -83t159 -31q132 0 210.5 65.5t78.5 179.5q0 115 -64.5 187.5t-165.5 72.5h-160v158h164q87 0 154 63.5t67 176.5q0 54 -22.5 94.5t-61 63t-83.5 33.5t-97 11q-73 0 -152 -31.5t-136 -80.5l-97 135q71 61 180 102t230 41q81 0 152 -19t133 -59 t98.5 -112.5t36.5 -169.5q0 -108 -52 -193.5t-147 -121.5q95 -38 149 -133t54 -201q0 -83 -24.5 -153t-67 -120t-100.5 -85.5t-125.5 -52.5t-141.5 -17q-121 0 -227.5 40t-177.5 101z" />
<glyph unicode="4" horiz-adv-x="1024" d="M53 217v152q136 298 469 1042h189l-459 -1034h416v422h180v-422h121v-160h-121v-217h-180v217h-615z" />
<glyph unicode="5" horiz-adv-x="1024" d="M96 133l103 141q127 -118 284 -118q35 0 75.5 10t86 33.5t75.5 72t30 115.5v182q0 98 -50 149.5t-135 51.5q-61 0 -150 -39.5t-141 -81.5l-165 66v696h778v-166h-596v-401q76 51 153.5 78.5t139.5 27.5q157 0 250.5 -99t93.5 -261v-228q0 -111 -62 -197t-161.5 -130.5 t-217.5 -44.5q-230 0 -391 143z" />
<glyph unicode="6" horiz-adv-x="1024" d="M90 358v693q0 114 59.5 200.5t156.5 130t214 43.5q226 0 387 -143l-102 -143q-128 116 -281 116q-41 0 -83 -13t-81.5 -40t-64.5 -76t-25 -112v-232q179 115 326 115q155 0 246.5 -100t91.5 -262v-168q0 -114 -59.5 -201.5t-155 -131.5t-209.5 -44q-184 0 -302 98 t-118 270zM270 397q0 -62 22 -110.5t57.5 -76t76.5 -41t84 -13.5q42 0 83.5 14t78 41.5t59.5 76t23 109.5v121q0 101 -50.5 153t-132.5 52q-125 0 -301 -117v-209z" />
<glyph unicode="7" horiz-adv-x="1024" d="M92 1036v375h840v-158l-516 -1253h-193l508 1247h-469v-211h-170z" />
<glyph unicode="8" horiz-adv-x="1024" d="M63 387q0 105 59.5 199t147.5 133q-84 31 -130 115t-46 190q0 95 36 173t95.5 126t133 74t151.5 26q79 1 153 -25t133.5 -74.5t95.5 -127t36 -174.5q0 -101 -44.5 -183.5t-125.5 -119.5q100 -40 149 -129t49 -191q0 -103 -39 -184t-103.5 -129t-142.5 -73t-163 -25 q-92 0 -171.5 24.5t-141.5 72.5t-97 125.5t-35 176.5zM252 391q0 -112 69 -173.5t191 -61.5q120 0 189 62.5t69 176.5q0 103 -75 168.5t-183 65.5t-184 -66t-76 -172zM270 1024q0 -102 72 -166.5t170 -64.5q96 0 168 66t72 167q0 107 -69.5 167t-170.5 60q-98 0 -170 -60.5 t-72 -168.5z" />
<glyph unicode="9" horiz-adv-x="1024" d="M72 889v158q0 114 60 201.5t155.5 132t208.5 44.5q111 0 205.5 -42.5t154 -128t59.5 -197.5v-695q0 -114 -60 -200t-156.5 -129t-213.5 -43q-226 0 -387 143l103 143q128 -116 278 -116q41 0 83 13t81.5 39.5t64.5 75.5t25 113v238q-188 -113 -323 -113q-158 0 -248 95.5 t-90 267.5zM250 905q0 -103 50.5 -154t133.5 -51q115 0 299 115v203q0 62 -21.5 110t-56.5 75t-75.5 40.5t-83.5 13.5t-84.5 -13.5t-79 -41t-60 -75t-22.5 -109.5v-113z" />
<glyph unicode=":" horiz-adv-x="512" d="M133 113q0 46 31.5 81t85.5 35q57 0 91 -35t34 -81q0 -53 -33.5 -88t-91.5 -35q-56 0 -86.5 34t-30.5 89zM133 733q0 46 31.5 81.5t85.5 35.5q57 0 91 -35.5t34 -81.5q0 -53 -33.5 -88t-91.5 -35q-56 0 -86.5 34t-30.5 89z" />
<glyph unicode=";" horiz-adv-x="512" d="M109 -193q50 38 77 80.5t31 100.5q-42 3 -68 37t-26 81t34 83t89 36q70 0 104.5 -49.5t34.5 -114.5q0 -109 -63 -200.5t-152 -132.5zM133 733q0 46 31.5 81.5t85.5 35.5q57 0 91 -35.5t34 -81.5q0 -53 -33.5 -88t-91.5 -35q-56 0 -86.5 34t-30.5 89z" />
<glyph unicode="&#x3c;" horiz-adv-x="1024" d="M94 543v123l834 415v-145l-668 -332l668 -330v-145z" />
<glyph unicode="=" horiz-adv-x="1024" d="M59 338v137h904v-137h-904zM59 731v137h904v-137h-904z" />
<glyph unicode="&#x3e;" horiz-adv-x="1024" d="M94 129v145l668 330l-668 332v145l834 -415v-123z" />
<glyph unicode="?" horiz-adv-x="940" d="M59 1309q165 125 385 125q164 0 278 -103t114 -256q0 -64 -29.5 -132t-71.5 -125.5t-83.5 -113t-71 -114t-29.5 -109.5v-92h-176v86q0 79 27 148.5t65 120t76 97.5t65 103t27 115q0 86 -59.5 144.5t-149.5 58.5q-76 0 -149.5 -26t-126.5 -71zM350 113q0 46 31.5 81 t85.5 35q57 0 91 -35t34 -81q0 -53 -33.5 -88t-91.5 -35q-56 0 -86.5 34t-30.5 89z" />
<glyph unicode="@" horiz-adv-x="1703" d="M94 721q0 160 65.5 302t176 242t260 158t313.5 58q169 0 309.5 -57.5t233 -156t143 -229t50.5 -278.5q0 -84 -20.5 -156t-54.5 -122t-78 -85.5t-90 -52t-91 -16.5q-169 0 -240 106q-176 -96 -291 -96t-183.5 66t-68.5 178q0 51 20 93t50.5 68.5t70 44.5t76 25.5t70.5 7.5 h225v47q0 154 -190 154q-111 0 -203 -74l-76 103q129 104 283 104q156 0 242 -73t86 -214v-307q0 -58 32 -83t93 -25q80 0 143 81.5t63 227.5q0 165 -72.5 299.5t-211.5 214.5t-320 80q-138 0 -264 -49.5t-218 -133.5t-147 -201.5t-55 -248.5q0 -178 82 -321.5t228 -224.5 t329 -81q120 0 262 56l45 -125q-149 -58 -307 -58q-219 0 -395 96.5t-275.5 268.5t-99.5 387zM674 582q0 -54 36.5 -83.5t96.5 -29.5q88 0 233 86v143h-202q-164 0 -164 -116z" />
<glyph unicode="A" horiz-adv-x="1222" d="M27 0l491 1411h191l493 -1411h-198l-111 317h-561l-109 -317h-196zM393 489h441l-113 336l-105 328h-8l-102 -328z" />
<glyph unicode="B" horiz-adv-x="1214" d="M117 0v1411h585q186 0 294 -108t108 -265q0 -202 -174 -299q97 -50 146.5 -138.5t49.5 -186.5q0 -61 -16 -120t-49.5 -112.5t-80 -94t-112.5 -64t-143 -23.5h-608zM307 170h381q123 0 187.5 63.5t64.5 180.5q0 109 -76.5 174t-179.5 65h-377v-483zM307 823h375 q100 0 168 56t68 155q0 105 -68 155t-184 50h-359v-416z" />
<glyph unicode="C" horiz-adv-x="1079" d="M111 449v516q0 138 71.5 244.5t187 161t251.5 54.5q238 0 395 -127l-94 -147q-55 45 -138 72.5t-163 27.5q-62 0 -117 -18.5t-101.5 -56t-74 -102t-27.5 -148.5v-441q0 -83 27.5 -147.5t74 -102t100.5 -56.5t113 -19q195 0 312 98l90 -145q-68 -55 -174.5 -91t-222.5 -36 q-138 0 -253 54.5t-186 161.5t-71 247z" />
<glyph unicode="D" horiz-adv-x="1239" d="M119 0v1411h530q208 0 344.5 -125.5t136.5 -335.5v-491q0 -134 -65.5 -239.5t-175 -162.5t-242.5 -57h-528zM307 168h297q62 0 118.5 17.5t106.5 53.5t79.5 100.5t29.5 149.5v429q0 86 -28.5 150t-77 100t-106 53.5t-122.5 17.5h-297v-1071z" />
<glyph unicode="E" horiz-adv-x="1140" d="M125 0v1411h942v-172h-754v-448h645v-170h-645v-451h754v-170h-942z" />
<glyph unicode="F" horiz-adv-x="1095" d="M125 0v1411h942v-172h-754v-446h645v-172h-645v-621h-188z" />
<glyph unicode="G" horiz-adv-x="1187" d="M111 449v516q0 104 43 191.5t116 146t170.5 90.5t206.5 32q238 0 395 -127l-94 -147q-55 45 -138 72.5t-163 27.5q-67 0 -127 -18.5t-110 -56t-79.5 -102t-29.5 -148.5v-441q0 -84 27.5 -148t74.5 -101.5t104.5 -56.5t123.5 -19q159 0 270 84v329h-225v170h411v-573 q-82 -94 -205 -139t-251 -45q-139 0 -256 54.5t-190.5 161.5t-73.5 247z" />
<glyph unicode="H" horiz-adv-x="1263" d="M111 0v1411h188v-610h662v610h192v-1411h-192v629h-662v-629h-188z" />
<glyph unicode="I" horiz-adv-x="516" d="M164 0v1411h188v-1411h-188z" />
<glyph unicode="J" horiz-adv-x="1067" d="M31 92l88 152q137 -84 268 -84q153 0 239.5 80.5t86.5 255.5v915h188v-956q0 -141 -66 -249t-175 -164t-242 -56q-101 0 -208 28t-179 78z" />
<glyph unicode="K" horiz-adv-x="1171" d="M117 0v1411h188v-733h14l599 733h227l-455 -557l502 -854h-221l-408 698l-258 -307v-391h-188z" />
<glyph unicode="L" horiz-adv-x="1095" d="M135 0v1411h189v-1241h753v-170h-942z" />
<glyph unicode="M" horiz-adv-x="1519" d="M119 0v1411h180l285 -575l178 -375h12l174 375l281 575h174v-1411h-189v961h-10l-129 -273l-237 -479h-142l-225 440l-154 312h-10v-961h-188z" />
<glyph unicode="N" horiz-adv-x="1320" d="M121 0v1411h178l510 -764l188 -293h15v1057h188v-1411h-182l-494 737l-200 310h-15v-1047h-188z" />
<glyph unicode="O" horiz-adv-x="1255" d="M106 461v487q0 213 145 345t376 132q228 0 375 -132.5t147 -344.5v-487q0 -214 -148 -344.5t-374 -130.5q-232 0 -376.5 129.5t-144.5 345.5zM297 483q0 -84 26.5 -147.5t73 -101t104.5 -56t126 -18.5q145 0 238 80t93 243v443q0 83 -26 146.5t-72 101.5t-105 57.5 t-128 19.5t-127.5 -19.5t-104.5 -57.5t-72 -101.5t-26 -146.5v-443z" />
<glyph unicode="P" horiz-adv-x="1134" d="M111 0v1411h585q98 0 176.5 -37.5t126 -98.5t72.5 -134.5t25 -151.5q0 -76 -28 -151t-77.5 -135.5t-127 -98t-167.5 -37.5h-397v-567h-188zM299 741h358q111 0 181.5 67t70.5 181q0 113 -71 181.5t-181 68.5h-358v-498z" />
<glyph unicode="Q" horiz-adv-x="1286" d="M117 461v487q0 213 144.5 345t375.5 132q228 0 375 -132.5t147 -344.5v-487q0 -194 -122.5 -320.5t-317.5 -148.5v-39q0 -104 41 -137q34 -27 111 -27q19 0 40 2v-149q-43 -5 -81 -5q-121 0 -191 53q-92 71 -92 206v96q-196 24 -313 149.5t-117 319.5zM307 483 q0 -84 26.5 -147.5t73 -101t104.5 -56t126 -18.5q145 0 238.5 80t93.5 243v443q0 83 -26.5 146.5t-72.5 101.5t-105 57.5t-128 19.5t-127.5 -19.5t-104.5 -57.5t-72 -101.5t-26 -146.5v-443z" />
<glyph unicode="R" horiz-adv-x="1171" d="M117 0v1411h585q82 0 150 -24.5t114 -66t77.5 -96.5t46 -114t14.5 -121q0 -121 -67.5 -230t-182.5 -157l264 -602h-209l-239 567h-365v-567h-188zM305 741h359q112 0 181.5 67t69.5 181q0 113 -70 181.5t-181 68.5h-359v-498z" />
<glyph unicode="S" horiz-adv-x="1138" d="M53 162l107 135q202 -139 415 -139q143 0 225.5 62t82.5 171q0 53 -22.5 94t-47 63.5t-81.5 44t-83 27.5t-95 20q-9 2 -13 3q-73 14 -130.5 32t-116 49t-97.5 71t-63.5 101t-24.5 136q0 180 123.5 293t332.5 113q281 0 463 -111l-88 -160q-168 99 -377 99 q-116 0 -193 -62t-77 -176q0 -31 10.5 -57.5t25.5 -45.5t42 -35.5t48 -26.5t57 -21t57 -16t57 -13q6 -1 10 -2l8 -2q53 -12 88.5 -21t83.5 -24t80 -31.5t69 -39.5t61 -52t44.5 -65t30.5 -83t10 -102q0 -187 -137 -295t-365 -108q-296 0 -520 174z" />
<glyph unicode="T" horiz-adv-x="1069" d="M33 1237v174h1003v-174h-405v-1237h-191v1237h-407z" />
<glyph unicode="U" horiz-adv-x="1249" d="M106 446v965h191v-930q0 -84 26.5 -147.5t73 -101t104.5 -56t126 -18.5q66 0 124 18.5t105 56t74.5 101t27.5 147.5v930h191v-965q0 -141 -72 -247t-189.5 -159.5t-260.5 -53.5q-144 0 -261 53.5t-188.5 159.5t-71.5 247z" />
<glyph unicode="V" horiz-adv-x="1157" d="M20 1411h207l207 -661l137 -459h13l143 483l201 637h207l-455 -1411h-205z" />
<glyph unicode="W" horiz-adv-x="1765" d="M20 1411h205l160 -649l111 -467h10l112 469l164 647h199l168 -668l108 -448h11l106 455l164 661h205l-373 -1411h-213l-166 639l-102 434h-12l-107 -442l-164 -631h-213z" />
<glyph unicode="X" horiz-adv-x="1126" d="M18 0l439 723l-410 688h219l297 -532l299 532h219l-409 -688l438 -723h-219l-328 569l-325 -569h-220z" />
<glyph unicode="Y" horiz-adv-x="1099" d="M25 1411h206l164 -336l148 -330h14l152 340l159 326h205l-428 -868v-543h-190v541z" />
<glyph unicode="Z" horiz-adv-x="1071" d="M76 0v166l696 1073h-668v172h895v-162l-704 -1079h702v-170h-921z" />
<glyph unicode="[" horiz-adv-x="534" d="M150 -215v1645h346v-115h-193v-1415h193v-115h-346z" />
<glyph unicode="\" horiz-adv-x="649" d="M-2 1485h133l514 -1571h-133z" />
<glyph unicode="]" horiz-adv-x="534" d="M55 -100h191v1415h-191v115h344v-1645h-344v115z" />
<glyph unicode="^" horiz-adv-x="1024" d="M47 672l414 751h123l415 -751h-145l-332 604l-329 -604h-146z" />
<glyph unicode="_" horiz-adv-x="1024" d="M0 -141h1024v-123h-1024v123z" />
<glyph unicode="`" horiz-adv-x="1005" d="M397 1481l166 51l148 -363l-109 -41z" />
<glyph unicode="a" horiz-adv-x="1015" d="M78 297q0 64 25.5 116.5t64.5 86t89.5 56.5t97.5 32.5t91 9.5h297v78q0 102 -57.5 146t-171.5 44q-171 0 -285 -94l-86 133q159 121 385 121q198 0 294 -87.5t96 -266.5v-672h-154l-21 94l-6 4q-112 -62 -189 -84t-147 -22q-148 0 -235.5 82t-87.5 223zM258 297 q0 -71 49 -109t129 -38q111 0 307 110v193h-268q-217 0 -217 -156z" />
<glyph unicode="b" horiz-adv-x="1026" d="M92 0v1466h176v-557q119 67 193.5 92t134.5 25q163 0 248.5 -94.5t85.5 -267.5v-312q0 -169 -94 -265.5t-248 -96.5q-143 0 -320 106l-20 -96h-156zM268 266q65 -45 155 -76.5t150 -31.5q84 0 132.5 51.5t48.5 163.5v268q0 213 -181 213q-110 0 -305 -125v-463z" />
<glyph unicode="c" horiz-adv-x="878" d="M96 350v301q0 112 56.5 199t147.5 131.5t198 44.5q229 0 342 -125l-105 -133q-60 58 -115 76t-114 18q-41 0 -80.5 -13t-75 -40t-57 -75t-21.5 -111v-230q0 -84 35 -139.5t85.5 -77.5t113.5 -22q53 0 115.5 21t105.5 63l109 -123q-125 -125 -334 -125 q-179 0 -292.5 100.5t-113.5 259.5z" />
<glyph unicode="d" horiz-adv-x="1026" d="M96 352v312q0 167 101.5 264.5t255.5 97.5q129 0 305 -57v497h174v-1466h-154l-20 106q-193 -116 -322 -116q-156 0 -248 90.5t-92 271.5zM272 362q0 -111 46.5 -157.5t134.5 -46.5q57 0 145.5 35t159.5 83v521q-176 63 -289 63h-6q-85 0 -137 -52q-54 -54 -54 -165v-281 z" />
<glyph unicode="e" horiz-adv-x="989" d="M96 360v269q0 180 114 287.5t296 107.5q184 0 296.5 -103t112.5 -278v-201h-643v-67q0 -114 72.5 -169.5t181.5 -55.5q145 0 250 100l111 -121q-136 -139 -365 -139q-87 0 -163.5 23.5t-135.5 68t-93 116.5t-34 162zM274 586h463v39q0 121 -64.5 180t-166.5 59 q-99 0 -165.5 -60t-66.5 -173v-45z" />
<glyph unicode="f" horiz-adv-x="620" d="M53 858v158h125v184q0 129 75 197.5t191 68.5h183v-155h-166q-61 0 -85 -35t-24 -96v-164h275v-158h-275v-858h-174v858h-125z" />
<glyph unicode="g" horiz-adv-x="1021" d="M88 350v314q0 169 94 265.5t246 96.5q132 0 320 -119l20 109h156v-1077q0 -85 -35.5 -154.5t-96 -114.5t-138 -69.5t-162.5 -24.5q-96 0 -193 32.5t-174 100.5l108 129q45 -43 120.5 -70.5t135.5 -27.5q110 0 184.5 58t74.5 179v119q-170 -106 -320 -106 q-152 0 -246 95.5t-94 264.5zM264 373q0 -113 47 -165q45 -50 127 -50h6q63 0 146.5 29.5t157.5 76.5v465q-75 55 -160 90t-144 35q-88 0 -134 -50t-46 -165v-266z" />
<glyph unicode="h" horiz-adv-x="1017" d="M96 0v1466h176v-565q193 125 334 125q162 0 245 -94t83 -268v-664h-176v641q0 213 -180 213q-62 0 -144.5 -30.5t-161.5 -82.5v-741h-176z" />
<glyph unicode="i" horiz-adv-x="464" d="M123 1323q0 44 32.5 76.5t75.5 32.5q44 0 77.5 -32.5t33.5 -76.5t-33.5 -77.5t-77.5 -33.5q-43 0 -75.5 33.5t-32.5 77.5zM145 0v1016h174v-1016h-174z" />
<glyph unicode="j" horiz-adv-x="497" d="M-37 -258h80q84 0 113.5 36t29.5 140v1096h174v-1120q0 -164 -75.5 -238t-221.5 -74h-100v160zM170 1323q0 43 29.5 72.5t72.5 29.5t73 -29.5t30 -72.5t-30 -73.5t-73 -30.5t-72.5 30.5t-29.5 73.5z" />
<glyph unicode="k" horiz-adv-x="985" d="M94 0v1466h174v-798h150q73 0 121 26t86 105l112 221h197l-123 -258q-31 -66 -65 -104t-91 -60q34 -11 60.5 -30t42 -36t30.5 -48.5t21 -48t18 -54.5l127 -381h-194l-107 326q-33 102 -76.5 137t-127.5 35h-181v-498h-174z" />
<glyph unicode="l" horiz-adv-x="567" d="M170 248v1218h174v-1196q0 -75 34 -96q29 -18 101 -18h21l4 -160q-52 -8 -103 -8q-133 0 -182 63.5t-49 196.5z" />
<glyph unicode="m" horiz-adv-x="1550" d="M86 0v1016h156l18 -117q101 75 170 101t133 26q185 0 258 -156q114 92 189 124t139 32q149 0 231 -83t82 -249v-694h-176v657q0 102 -39.5 149.5t-128.5 47.5q-98 0 -262 -127q6 -37 6 -68v-659h-176v664q0 99 -42 144.5t-112 45.5q-63 0 -123.5 -23.5t-146.5 -82.5v-748 h-176z" />
<glyph unicode="n" horiz-adv-x="1017" d="M90 0v1016h156l20 -113q119 74 198 98.5t146 24.5q150 0 234 -95t84 -267v-664h-176v641q0 113 -48 164q-47 49 -127 49h-6q-60 0 -142.5 -31t-162.5 -82v-741h-176z" />
<glyph unicode="o" horiz-adv-x="1034" d="M98 358v295q0 113 57.5 199t152.5 130t210 44q187 0 303.5 -100.5t116.5 -272.5v-295q0 -170 -122 -269t-300 -99q-181 0 -299.5 98t-118.5 270zM274 393q0 -125 67.5 -182t178.5 -57q44 0 85.5 13t78 40t58.5 75t22 111v230q0 63 -22 111t-58.5 75t-78 40t-85.5 13 q-45 0 -86.5 -13t-78.5 -40t-59 -75t-22 -111v-230z" />
<glyph unicode="p" horiz-adv-x="1030" d="M102 -406v1420h154l20 -107q195 117 322 117q156 0 248 -90.5t92 -271.5v-312q0 -171 -95.5 -266.5t-260.5 -95.5q-151 0 -306 63v-457h-174zM276 217q154 -63 289 -63h7q85 0 136 46q54 47 54 158v291q0 111 -46.5 158t-133.5 47q-57 0 -146.5 -35.5t-159.5 -83.5v-518z " />
<glyph unicode="q" horiz-adv-x="1017" d="M92 352v312q0 169 94 265.5t246 96.5q135 0 324 -111l20 99h152v-1422h-174v500q-185 -102 -322 -102q-152 0 -246 96.5t-94 265.5zM268 375q0 -113 48 -164q47 -49 127 -49h6q139 0 305 108v475q-80 50 -165 81.5t-140 31.5q-181 0 -181 -215v-268z" />
<glyph unicode="r" horiz-adv-x="679" d="M133 0v1016h156l18 -150h2q64 63 165 112.5t198 49.5v-186q-215 -19 -363 -115v-727h-176z" />
<glyph unicode="s" horiz-adv-x="929" d="M57 121l97 129q132 -111 329 -111q84 0 146.5 39.5t62.5 116.5q0 60 -43 91t-123 44q-178 30 -246 54q-153 55 -180 176q-6 29 -6 61q0 138 106.5 221.5t264.5 83.5q117 0 205 -24.5t168 -81.5l-88 -132q-131 82 -285 82q-89 0 -145 -41.5t-56 -105.5q0 -43 33.5 -70.5 t87 -41.5t118 -25.5t129 -29.5t118 -46.5t87 -84t33.5 -134.5q0 -139 -112.5 -221t-290.5 -82q-237 0 -410 133z" />
<glyph unicode="t" horiz-adv-x="743" d="M61 858v158h148l41 235h129v-235h283v-158h-283v-496q0 -117 38.5 -160.5t117.5 -43.5q43 0 165 16l29 -149q-101 -35 -219 -35q-162 0 -233.5 74t-71.5 245v549h-144z" />
<glyph unicode="u" horiz-adv-x="1034" d="M98 352v664h176v-645q0 -111 50 -163q48 -50 127 -50h6q61 0 142 33t163 92v733h176v-1016h-156l-20 109q-116 -71 -188 -95t-134 -24q-161 0 -251.5 95.5t-90.5 266.5z" />
<glyph unicode="v" horiz-adv-x="935" d="M20 1014h193l133 -398l121 -378h12l115 374l131 402h190l-360 -1014h-172z" />
<glyph unicode="w" horiz-adv-x="1437" d="M41 1016h182l94 -369l97 -381h8l121 371l96 281h178l107 -320l106 -332h10l88 359l99 391h174l-275 -1016h-168l-124 379l-105 317h-8l-103 -323l-120 -373h-168z" />
<glyph unicode="x" horiz-adv-x="888" d="M-2 0l344 520l-324 496h211l211 -354l215 354h209l-327 -492l342 -524h-213l-228 381l-233 -381h-207z" />
<glyph unicode="y" horiz-adv-x="958" d="M20 1016h191l123 -447l112 -405h7l143 405l154 447h188l-518 -1428h-189l150 430l-86 72z" />
<glyph unicode="z" horiz-adv-x="921" d="M84 0v139l534 719h-505v156h729v-144l-535 -714h535v-156h-758z" />
<glyph unicode="{" horiz-adv-x="534" d="M31 555v104q78 10 118.5 86t40.5 181v278q0 99 54 160t135 61h139v-110h-84q-35 0 -57 -28.5t-29.5 -66t-7.5 -83.5v-256q0 -62 -17.5 -113.5t-44 -82.5t-50 -49t-42.5 -24v-6q19 -6 42.5 -24t50 -48.5t44 -81t17.5 -110.5v-266q0 -46 7.5 -83.5t29.5 -66t57 -28.5h84 v-109h-139q-85 0 -137 54t-52 165v285q0 112 -40 182.5t-119 79.5z" />
<glyph unicode="|" horiz-adv-x="417" d="M143 -332v1798h133v-1798h-133z" />
<glyph unicode="}" horiz-adv-x="534" d="M23 -102h86q49 0 71.5 52.5t22.5 125.5v266q0 60 17 110.5t43 81t49.5 48.5t43.5 24v6q-20 6 -43.5 24t-49.5 49t-43 82.5t-17 113.5v256q0 33 -0.5 51t-5.5 46t-14 43t-28 26.5t-46 11.5h-86v102h135q95 0 144.5 -58.5t49.5 -154.5v-278q0 -106 40.5 -181.5t117.5 -85.5 v-104q-79 -9 -118.5 -79.5t-39.5 -182.5v-285q0 -98 -53.5 -158.5t-134.5 -60.5h-141v109z" />
<glyph unicode="~" horiz-adv-x="1024" d="M53 561q102 172 277 172q53 0 123.5 -31.5t138 -62.5t115.5 -31t83 26t78 85l109 -80q-59 -94 -122.5 -137t-154.5 -43q-45 0 -115 31.5t-141 63.5t-118 32q-52 0 -86.5 -24t-77.5 -81z" />
<glyph unicode="&#xa1;" horiz-adv-x="485" d="M123 903q0 53 33.5 88t91.5 35q56 0 86.5 -34t30.5 -89q0 -46 -31.5 -81.5t-85.5 -35.5q-57 0 -91 35.5t-34 81.5zM154 -410l14 1039h154l14 -1039h-182z" />
<glyph unicode="&#xa2;" horiz-adv-x="878" d="M96 350v301q0 156 102.5 257.5t254.5 115.5v207h92v-207q193 -11 295 -123l-105 -133q-85 80 -190 92v-704q46 5 96 26t86 56l109 -123q-112 -113 -291 -123v-232h-92v232q-159 14 -258 112t-99 246zM272 393q0 -105 51 -163.5t130 -71.5v698q-77 -15 -129 -73t-52 -160 v-230z" />
<glyph unicode="&#xa3;" horiz-adv-x="1024" d="M115 0v131q170 224 178 461h-178v139h141q-9 35 -33 101t-37.5 120t-13.5 105q0 95 45 178t134 135.5t204 52.5q137 0 234.5 -44.5t173.5 -149.5l-132 -105q-103 140 -274 140q-31 0 -63 -11.5t-62.5 -35t-50 -65.5t-19.5 -95q0 -67 38 -181t44 -145h326v-139h-311 q-7 -260 -125 -436h627v-156h-846z" />
<glyph unicode="&#xa4;" horiz-adv-x="1138" d="M82 274l141 138q-78 122 -78 241q0 123 78 242l-141 139q18 18 100 101l140 -140q119 78 243 78q125 0 244 -78l137 140l101 -103l-140 -137q78 -119 78 -242q0 -119 -78 -241q113 -108 140 -136l-101 -102l-137 139q-115 -80 -244 -80q-128 0 -243 80l-140 -139 q-12 13 -30.5 31.5t-40.5 40t-29 28.5zM291 653q0 -113 79 -192.5t193 -79.5q115 0 195 79.5t80 192.5q0 115 -80 195t-195 80q-114 0 -193 -80.5t-79 -194.5z" />
<glyph unicode="&#xa5;" horiz-adv-x="1024" d="M33 1411h207l270 -653h14l271 653h204l-303 -678h240v-125h-295l-29 -65v-103h324v-116h-324v-324h-190v324h-328v116h328v101l-31 67h-297v125h242z" />
<glyph unicode="&#xa6;" horiz-adv-x="417" d="M143 -332v836h133v-836h-133zM143 623v843h133v-843h-133z" />
<glyph unicode="&#xa7;" horiz-adv-x="909" d="M104 717q0 151 129 256q-67 70 -67 168q0 138 97.5 220.5t240.5 82.5q67 0 138 -17.5t120 -46.5l-68 -131q-94 58 -198 58q-68 0 -121 -37.5t-53 -102.5q0 -87 104 -147q34 -20 93.5 -50.5t93.5 -48.5t77.5 -49.5t67 -61t40.5 -74t17 -97.5q0 -145 -119 -258 q68 -76 68 -180q0 -78 -28 -140t-76.5 -100t-109 -58t-128.5 -20q-168 0 -275 78l60 127q96 -68 215 -68q77 0 131.5 40.5t54.5 113.5q0 68 -44.5 115.5t-166.5 101.5q-67 29 -113 56t-90.5 65.5t-67 90t-22.5 114.5zM252 737q0 -44 20 -76.5t56 -55t73.5 -39.5t85.5 -39.5 t80 -45.5q88 48 88 144q0 31 -16.5 61.5t-36.5 51.5t-60 46.5t-64 38t-73.5 36.5t-64.5 32q-88 -66 -88 -154z" />
<glyph unicode="&#xa8;" horiz-adv-x="1001" d="M190 1309q0 40 29.5 69t69.5 29q41 0 70.5 -29t29.5 -69q0 -41 -29.5 -71t-70.5 -30q-40 0 -69.5 30t-29.5 71zM590 1309q0 40 29.5 69t70.5 29t71 -29t30 -69q0 -41 -30 -71t-71 -30t-70.5 30t-29.5 71z" />
<glyph unicode="&#xa9;" horiz-adv-x="1644" d="M115 698q0 152 55 286t149.5 228.5t226.5 149.5t281 55q150 0 282.5 -55t227.5 -150t150 -228.5t55 -285.5q0 -151 -55 -283.5t-150 -227t-227.5 -149t-282.5 -54.5q-204 0 -367 93t-254 256t-91 365zM244 698q0 -124 44.5 -233.5t122 -187.5t185.5 -123t231 -45 q250 0 417 168.5t167 420.5q0 168 -76 304t-209.5 213t-298.5 77q-164 0 -297.5 -77t-209.5 -213t-76 -304zM483 555v268q0 143 104 231.5t249 88.5q164 0 274 -88l-66 -103q-38 32 -95 51t-113 19q-92 0 -157 -56t-65 -169v-215q0 -111 66 -168.5t154 -57.5q133 0 215 68 l63 -100q-46 -39 -120 -63.5t-156 -24.5q-147 0 -250 87.5t-103 231.5z" />
<glyph unicode="&#xaa;" horiz-adv-x="700" d="M45 764q0 55 26.5 97t68 65t84.5 34t83 11h189v37q-1 59 -40.5 82.5t-107.5 23.5q-104 0 -190 -67l-74 108q120 88 270 88q289 0 289 -239v-443h-133l-12 68q-99 -74 -219 -74q-106 0 -170 56.5t-64 152.5zM195 764q0 -37 29.5 -58.5t76.5 -21.5q82 0 195 66v100h-168 q-133 0 -133 -86z" />
<glyph unicode="&#xab;" horiz-adv-x="940" d="M90 475l260 381h160l-254 -381l254 -381h-160zM442 475l260 381h160l-252 -381l252 -381h-160z" />
<glyph unicode="&#xac;" horiz-adv-x="1024" d="M59 537v131h904l-2 -525h-132v394h-770z" />
<glyph unicode="&#xad;" horiz-adv-x="802" d="M106 471v154h590v-154h-590z" />
<glyph unicode="&#xae;" horiz-adv-x="1146" d="M143 1008q0 184 123 307t305 123q183 0 305.5 -123t122.5 -307q0 -183 -122.5 -303.5t-305.5 -120.5q-182 0 -305 121t-123 303zM225 1008q0 -149 99 -249t247 -100t247.5 100t99.5 249q0 152 -99.5 252t-247.5 100t-247 -100t-99 -252zM412 760v495h204q63 0 105.5 -39 t42.5 -102q0 -46 -26 -81.5t-70 -53.5l114 -219h-96l-104 207h-86v-207h-84zM496 1044h106q34 0 56 19t22 51q0 66 -76 66h-108v-136z" />
<glyph unicode="&#xaf;" horiz-adv-x="1005" d="M260 1229v153h549v-153h-549z" />
<glyph unicode="&#xb0;" horiz-adv-x="782" d="M115 1163q0 114 81 194.5t195 80.5t194.5 -80.5t80.5 -194.5t-80.5 -193t-194.5 -79t-195 79t-81 193zM233 1163q0 -65 46 -111t112 -46t112 46t46 111q0 66 -46 112t-112 46t-112 -46t-46 -112z" />
<glyph unicode="&#xb1;" horiz-adv-x="1024" d="M70 0v131h882v-131h-882zM70 596v131h376v356h132v-356h374v-131h-374v-356h-132v356h-376z" />
<glyph unicode="&#xb2;" horiz-adv-x="636" d="M45 745v115q0 45 15 86t33.5 68.5t57.5 62t62.5 51t73.5 50.5q1 0 22 13.5t26.5 17.5t26 17.5t28 21t24 21t24 24t17 24t13 27t3.5 26.5q0 50 -47 76.5t-109 26.5q-98 0 -186 -68l-80 102q126 99 270 99q49 0 91.5 -7.5t82 -24.5t67.5 -43t44.5 -66t16.5 -91 q0 -77 -59.5 -145t-153.5 -133q-48 -30 -69 -44t-62.5 -46.5t-60.5 -61.5t-19 -57v-15h424v-127h-576z" />
<glyph unicode="&#xb3;" horiz-adv-x="665" d="M27 823l79 109q38 -30 92 -47t99 -17q71 0 115.5 32.5t44.5 90.5t-39.5 91.5t-100.5 33.5h-108v129h110q50 0 94 33t44 92q0 50 -46.5 76.5t-107.5 26.5q-46 0 -98.5 -16.5t-91.5 -47.5l-72 104q48 41 122 65t156 24q75 0 136 -21.5t104 -75.5t43 -135q0 -60 -33 -109 t-96 -71q133 -58 133 -191q0 -126 -85 -195t-216 -69q-159 0 -278 88z" />
<glyph unicode="&#xb4;" horiz-adv-x="1005" d="M395 1169l148 363l166 -51l-205 -353z" />
<glyph unicode="&#xb5;" horiz-adv-x="1038" d="M98 -410v1426h176v-641q0 -113 49 -164t134 -49q128 0 305 125v729h174v-1016h-174v106q-74 -52 -140 -79t-100.5 -32t-81.5 -5q-103 0 -166 51v-451h-176z" />
<glyph unicode="&#xb6;" horiz-adv-x="1077" d="M98 1069q0 155 108.5 266t268.5 111h189v-752h-189q-163 0 -270 108.5t-107 266.5zM530 -133q54 6 94.5 17t68.5 24t47 34.5t29.5 40t16 49t6.5 54t1 61.5v1299h151v-1329q0 -96 -18.5 -163.5t-64 -118.5t-124 -78t-196.5 -33z" />
<glyph unicode="&#xb7;" horiz-adv-x="462" d="M102 559q0 54 38 92.5t91 38.5q54 0 91.5 -38.5t37.5 -92.5q0 -53 -37.5 -91t-91.5 -38q-53 0 -91 38t-38 91z" />
<glyph unicode="&#xb8;" horiz-adv-x="882" d="M293 -389l33 86q79 -25 153 -25q49 0 75 21t26 53q0 31 -24.5 56.5t-78.5 25.5q-14 0 -28 -2l-64 37l66 219l92 -8l-49 -154q56 -3 98 -20.5t64 -44t32 -53.5t10 -54q0 -65 -52.5 -117.5t-158.5 -52.5q-111 0 -194 33z" />
<glyph unicode="&#xb9;" horiz-adv-x="583" d="M78 1440l201 155h131v-850h-146v672l-106 -80z" />
<glyph unicode="&#xba;" horiz-adv-x="712" d="M59 813v170q0 115 86.5 187.5t212.5 72.5q130 0 213.5 -72t83.5 -188v-170q0 -116 -87 -187t-212 -71q-128 0 -212.5 70.5t-84.5 187.5zM205 834q0 -73 43 -109.5t110 -36.5q59 0 105.5 37.5t46.5 108.5v131q0 71 -46.5 109t-105.5 38t-106 -38t-47 -109v-131z" />
<glyph unicode="&#xbb;" horiz-adv-x="940" d="M92 94l252 381l-252 381h160l260 -381l-260 -381h-160zM444 94l254 381l-254 381h160l260 -381l-260 -381h-160z" />
<glyph unicode="&#xbc;" horiz-adv-x="1638" d="M150 1255l200 156h131v-850h-145v672l-107 -80zM293 -35l870 1495h137l-872 -1495h-135zM868 125v111l306 612h155l-297 -598h228v246h149v-246h78v-125h-78v-125h-149v125h-392z" />
<glyph unicode="&#xbd;" horiz-adv-x="1638" d="M125 1255l201 156h131v-850h-146v672l-106 -80zM217 -35l870 1495h138l-873 -1495h-135zM936 0v115q0 29 4.5 54.5t17 49.5t22.5 42.5t32.5 40.5t35 34.5t42.5 34t42.5 30t45.5 31.5q95 61 129 94q55 52 55 99q0 50 -47 76t-109 26q-98 0 -186 -68l-80 103q125 98 270 98 q62 0 113.5 -12t95 -38t68 -72t24.5 -109q0 -131 -213 -279q-48 -30 -69 -44t-62.5 -46.5t-60.5 -61.5t-19 -57v-14h424v-127h-575z" />
<glyph unicode="&#xbe;" horiz-adv-x="1638" d="M72 639l80 109q38 -30 91.5 -47t98.5 -17q71 0 115.5 32.5t44.5 90.5t-39.5 91.5t-100.5 33.5h-108v129h111q50 0 93.5 33t43.5 92q0 50 -46.5 76t-107.5 26q-46 0 -98.5 -16t-91.5 -47l-72 104q48 40 122.5 64t156.5 24q43 0 82.5 -7.5t76.5 -25t64 -43.5t43 -66t16 -89 q0 -60 -33 -109t-96 -71q133 -58 133 -191q0 -126 -85 -195t-216 -69q-159 0 -278 88zM379 -35l870 1495h137l-872 -1495h-135zM946 125v111l305 612h156l-297 -598h227v246h150v-246h78v-125h-78v-125h-150v125h-391z" />
<glyph unicode="&#xbf;" horiz-adv-x="940" d="M143 -59q0 64 29.5 132t71.5 125.5t83.5 113t71 114t29.5 109.5v92h176v-86q0 -79 -27 -148.5t-65 -120t-76 -97.5t-65 -103t-27 -115q0 -86 59.5 -144.5t149.5 -58.5q76 0 149.5 25.5t126.5 70.5l91 -143q-165 -125 -385 -125q-164 0 -278 103t-114 256zM387 903 q0 53 33.5 88t91.5 35q56 0 86.5 -34t30.5 -89q0 -46 -31.5 -81.5t-85.5 -35.5q-57 0 -91 35.5t-34 81.5z" />
<glyph unicode="&#xc0;" horiz-adv-x="1222" d="M27 0l491 1411h191l493 -1411h-198l-111 317h-561l-109 -317h-196zM250 1722l121 125l303 -250l-76 -86zM393 489h441l-113 336l-105 328h-8l-102 -328z" />
<glyph unicode="&#xc1;" horiz-adv-x="1222" d="M27 0l491 1411h191l493 -1411h-198l-111 317h-561l-109 -317h-196zM393 489h441l-113 336l-105 328h-8l-102 -328zM512 1597l303 250l121 -125l-348 -211z" />
<glyph unicode="&#xc2;" horiz-adv-x="1222" d="M27 0l491 1411h191l493 -1411h-198l-111 317h-561l-109 -317h-196zM260 1591l307 262h109l293 -258l-62 -79l-293 176l-295 -179zM393 489h441l-113 336l-105 328h-8l-102 -328z" />
<glyph unicode="&#xc3;" horiz-adv-x="1222" d="M27 0l491 1411h191l493 -1411h-198l-111 317h-561l-109 -317h-196zM244 1597q41 86 100 134.5t121 48.5q52 0 146.5 -48.5t127.5 -48.5q64 0 125 93l107 -60q-86 -182 -219 -182q-51 0 -143 43t-130 43q-35 0 -62.5 -18t-66.5 -64zM393 489h441l-113 336l-105 328h-8 l-102 -328z" />
<glyph unicode="&#xc4;" horiz-adv-x="1222" d="M27 0l491 1411h191l493 -1411h-198l-111 317h-561l-109 -317h-196zM315 1661q0 40 29.5 69t69.5 29q41 0 70.5 -29t29.5 -69q0 -41 -29.5 -70.5t-70.5 -29.5q-40 0 -69.5 29.5t-29.5 70.5zM393 489h441l-113 336l-105 328h-8l-102 -328zM715 1661q0 40 29.5 69t70.5 29 t70.5 -29t29.5 -69q0 -41 -29.5 -70.5t-70.5 -29.5t-70.5 29.5t-29.5 70.5z" />
<glyph unicode="&#xc5;" horiz-adv-x="1222" d="M27 0l491 1411h191l493 -1411h-198l-111 317h-561l-109 -317h-196zM393 489h441l-113 336l-105 328h-8l-102 -328zM399 1663q0 87 62.5 148t150.5 61t149.5 -60.5t61.5 -148.5t-61.5 -149.5t-149.5 -61.5t-150.5 61.5t-62.5 149.5zM498 1663q0 -47 33.5 -80t80.5 -33 t80 33t33 80q0 46 -33 78.5t-80 32.5t-80.5 -32.5t-33.5 -78.5z" />
<glyph unicode="&#xc6;" horiz-adv-x="2000" d="M4 0l909 1411h1035v-172h-754v-448h645v-170h-645v-451h754v-170h-942v418h-531l-266 -418h-205zM575 573h431v666z" />
<glyph unicode="&#xc7;" horiz-adv-x="1079" d="M111 449v516q0 138 71.5 244.5t187 161t251.5 54.5q238 0 395 -127l-94 -147q-55 45 -138 72.5t-163 27.5q-62 0 -117 -18.5t-101.5 -56t-74 -102t-27.5 -148.5v-441q0 -83 27.5 -147.5t74 -102t100.5 -56.5t113 -19q195 0 312 98l90 -145q-66 -54 -167.5 -89t-213.5 -38 l-21 -66q56 -3 98 -20.5t64 -44t32.5 -53.5t10.5 -54q0 -65 -52.5 -117.5t-158.5 -52.5q-111 0 -194 33l33 86q79 -25 153 -25q49 0 74.5 20.5t25.5 53.5q0 31 -24 56.5t-78 25.5q-15 0 -29 -2l-63 37l37 127q-187 23 -310.5 146t-123.5 313z" />
<glyph unicode="&#xc8;" horiz-adv-x="1140" d="M125 0v1411h942v-172h-754v-448h645v-170h-645v-451h754v-170h-942zM287 1722l121 125l303 -250l-76 -86z" />
<glyph unicode="&#xc9;" horiz-adv-x="1140" d="M125 0v1411h942v-172h-754v-448h645v-170h-645v-451h754v-170h-942zM471 1597l303 250l121 -125l-348 -211z" />
<glyph unicode="&#xca;" horiz-adv-x="1140" d="M125 0v1411h942v-172h-754v-448h645v-170h-645v-451h754v-170h-942zM260 1591l307 262h109l293 -258l-62 -79l-293 176l-295 -179z" />
<glyph unicode="&#xcb;" horiz-adv-x="1140" d="M125 0v1411h942v-172h-754v-448h645v-170h-645v-451h754v-170h-942zM293 1657q0 40 29 69t69 29q41 0 71 -29t30 -69q0 -41 -30 -71t-71 -30q-40 0 -69 30t-29 71zM692 1657q0 40 30 69t71 29t70.5 -29t29.5 -69q0 -41 -29.5 -71t-70.5 -30t-71 30t-30 71z" />
<glyph unicode="&#xcc;" horiz-adv-x="516" d="M-90 1722l121 125l303 -250l-76 -86zM164 0v1411h188v-1411h-188z" />
<glyph unicode="&#xcd;" horiz-adv-x="516" d="M164 0v1411h188v-1411h-188zM180 1597l303 250l121 -125l-348 -211z" />
<glyph unicode="&#xce;" horiz-adv-x="516" d="M-104 1591l307 262h108l293 -258l-61 -79l-293 176l-295 -179zM164 0v1411h188v-1411h-188z" />
<glyph unicode="&#xcf;" horiz-adv-x="516" d="M-39 1661q0 40 29 69t69 29q41 0 71 -29t30 -69q0 -41 -30 -70.5t-71 -29.5q-40 0 -69 29.5t-29 70.5zM164 0v1411h188v-1411h-188zM360 1661q0 40 30 69t71 29t70.5 -29t29.5 -69q0 -41 -29.5 -70.5t-70.5 -29.5t-71 29.5t-30 70.5z" />
<glyph unicode="&#xd0;" horiz-adv-x="1239" d="M12 657v140h107v614h530q208 0 344.5 -125.5t136.5 -335.5v-491q0 -134 -65.5 -239.5t-175 -162.5t-242.5 -57h-528v657h-107zM307 168h297q62 0 118.5 17.5t106.5 53.5t79.5 100.5t29.5 149.5v429q0 86 -28.5 150t-77 100t-106 53.5t-122.5 17.5h-297v-442h258v-140 h-258v-489z" />
<glyph unicode="&#xd1;" horiz-adv-x="1320" d="M121 0v1411h178l510 -764l188 -293h15v1057h188v-1411h-182l-494 737l-200 310h-15v-1047h-188zM291 1597q41 86 100 134.5t121 48.5q52 0 146.5 -48.5t127.5 -48.5q64 0 125 93l107 -60q-86 -182 -219 -182q-51 0 -143 43t-130 43q-35 0 -62.5 -18t-66.5 -64z" />
<glyph unicode="&#xd2;" horiz-adv-x="1255" d="M106 461v487q0 213 145 345t376 132q228 0 375 -132.5t147 -344.5v-487q0 -214 -148 -344.5t-374 -130.5q-232 0 -376.5 129.5t-144.5 345.5zM297 483q0 -84 26.5 -147.5t73 -101t104.5 -56t126 -18.5q145 0 238 80t93 243v443q0 83 -26 146.5t-72 101.5t-105 57.5 t-128 19.5t-127.5 -19.5t-104.5 -57.5t-72 -101.5t-26 -146.5v-443zM311 1722l121 125l303 -250l-76 -86z" />
<glyph unicode="&#xd3;" horiz-adv-x="1255" d="M106 461v487q0 213 145 345t376 132q228 0 375 -132.5t147 -344.5v-487q0 -214 -148 -344.5t-374 -130.5q-232 0 -376.5 129.5t-144.5 345.5zM297 483q0 -84 26.5 -147.5t73 -101t104.5 -56t126 -18.5q145 0 238 80t93 243v443q0 83 -26 146.5t-72 101.5t-105 57.5 t-128 19.5t-127.5 -19.5t-104.5 -57.5t-72 -101.5t-26 -146.5v-443zM528 1597l303 250l121 -125l-348 -211z" />
<glyph unicode="&#xd4;" horiz-adv-x="1255" d="M106 461v487q0 213 145 345t376 132q228 0 375 -132.5t147 -344.5v-487q0 -214 -148 -344.5t-374 -130.5q-232 0 -376.5 129.5t-144.5 345.5zM276 1591l308 262h108l293 -258l-61 -79l-293 176l-295 -179zM297 483q0 -84 26.5 -147.5t73 -101t104.5 -56t126 -18.5 q145 0 238 80t93 243v443q0 83 -26 146.5t-72 101.5t-105 57.5t-128 19.5t-127.5 -19.5t-104.5 -57.5t-72 -101.5t-26 -146.5v-443z" />
<glyph unicode="&#xd5;" horiz-adv-x="1255" d="M106 461v487q0 213 145 345t376 132q228 0 375 -132.5t147 -344.5v-487q0 -214 -148 -344.5t-374 -130.5q-232 0 -376.5 129.5t-144.5 345.5zM260 1597q41 86 100 134.5t121 48.5q52 0 147 -48.5t128 -48.5q64 0 125 93l106 -60q-86 -182 -219 -182q-51 0 -142.5 43 t-129.5 43q-35 0 -62.5 -18t-66.5 -64zM297 483q0 -84 26.5 -147.5t73 -101t104.5 -56t126 -18.5q145 0 238 80t93 243v443q0 83 -26 146.5t-72 101.5t-105 57.5t-128 19.5t-127.5 -19.5t-104.5 -57.5t-72 -101.5t-26 -146.5v-443z" />
<glyph unicode="&#xd6;" horiz-adv-x="1255" d="M106 461v487q0 213 145 345t376 132q228 0 375 -132.5t147 -344.5v-487q0 -214 -148 -344.5t-374 -130.5q-232 0 -376.5 129.5t-144.5 345.5zM297 483q0 -84 26.5 -147.5t73 -101t104.5 -56t126 -18.5q145 0 238 80t93 243v443q0 83 -26 146.5t-72 101.5t-105 57.5 t-128 19.5t-127.5 -19.5t-104.5 -57.5t-72 -101.5t-26 -146.5v-443zM332 1661q0 40 29 69t69 29q41 0 70.5 -29t29.5 -69q0 -41 -29.5 -70.5t-70.5 -29.5q-40 0 -69 29.5t-29 70.5zM731 1661q0 40 29.5 69t70.5 29t71 -29t30 -69q0 -41 -30 -70.5t-71 -29.5t-70.5 29.5 t-29.5 70.5z" />
<glyph unicode="&#xd7;" horiz-adv-x="1024" d="M84 895l92 92l334 -332l330 330l92 -92l-330 -332l336 -336l-92 -92l-336 336l-332 -332l-92 92l332 332z" />
<glyph unicode="&#xd8;" horiz-adv-x="1255" d="M106 47l89 127q-89 119 -89 287v487q0 213 145 345t376 132q209 0 352 -114l80 114l90 -59l-92 -133q92 -126 92 -285v-487q0 -214 -148 -344.5t-374 -130.5q-219 0 -357 110l-75 -108zM297 483q0 -77 20 -133l557 809q-89 92 -247 92q-69 0 -127.5 -19.5t-104.5 -57.5 t-72 -101.5t-26 -146.5v-443zM377 252q85 -92 250 -92q145 0 238 80t93 243v443q0 72 -22 133z" />
<glyph unicode="&#xd9;" horiz-adv-x="1249" d="M106 446v965h191v-930q0 -84 26.5 -147.5t73 -101t104.5 -56t126 -18.5q66 0 124 18.5t105 56t74.5 101t27.5 147.5v930h191v-965q0 -141 -72 -247t-189.5 -159.5t-260.5 -53.5q-144 0 -261 53.5t-188.5 159.5t-71.5 247zM315 1722l121 125l303 -250l-75 -86z" />
<glyph unicode="&#xda;" horiz-adv-x="1249" d="M106 446v965h191v-930q0 -84 26.5 -147.5t73 -101t104.5 -56t126 -18.5q66 0 124 18.5t105 56t74.5 101t27.5 147.5v930h191v-965q0 -141 -72 -247t-189.5 -159.5t-260.5 -53.5q-144 0 -261 53.5t-188.5 159.5t-71.5 247zM512 1597l303 250l121 -125l-348 -211z" />
<glyph unicode="&#xdb;" horiz-adv-x="1249" d="M106 446v965h191v-930q0 -84 26.5 -147.5t73 -101t104.5 -56t126 -18.5q66 0 124 18.5t105 56t74.5 101t27.5 147.5v930h191v-965q0 -141 -72 -247t-189.5 -159.5t-260.5 -53.5q-144 0 -261 53.5t-188.5 159.5t-71.5 247zM270 1591l308 262h108l293 -258l-61 -79 l-293 176l-295 -179z" />
<glyph unicode="&#xdc;" horiz-adv-x="1249" d="M106 446v965h191v-930q0 -84 26.5 -147.5t73 -101t104.5 -56t126 -18.5q66 0 124 18.5t105 56t74.5 101t27.5 147.5v930h191v-965q0 -141 -72 -247t-189.5 -159.5t-260.5 -53.5q-144 0 -261 53.5t-188.5 159.5t-71.5 247zM338 1661q0 40 29 69t69 29q41 0 71 -29t30 -69 q0 -41 -30 -70.5t-71 -29.5q-40 0 -69 29.5t-29 70.5zM737 1661q0 40 30 69t71 29t70.5 -29t29.5 -69q0 -41 -29.5 -70.5t-70.5 -29.5t-71 29.5t-30 70.5z" />
<glyph unicode="&#xdd;" horiz-adv-x="1099" d="M25 1411h206l164 -336l148 -330h14l152 340l159 326h205l-428 -868v-543h-190v541zM395 1597l303 250l121 -125l-348 -211z" />
<glyph unicode="&#xde;" horiz-adv-x="1134" d="M111 0v1411h188v-258h397q98 0 176.5 -37.5t126 -98.5t72.5 -134.5t25 -151.5q0 -76 -28 -151t-77.5 -135.5t-127 -98t-167.5 -37.5h-397v-309h-188zM299 483h358q111 0 181.5 67t70.5 181q0 113 -71 181.5t-181 68.5h-358v-498z" />
<glyph unicode="&#xdf;" horiz-adv-x="1028" d="M102 0v1079q0 179 111.5 282t286.5 103q82 0 149 -21.5t109.5 -56.5t71.5 -81.5t41 -93t12 -93.5q0 -71 -31 -147t-98 -119q89 -33 136.5 -122.5t47.5 -190.5v-187q0 -169 -94 -265.5t-246 -96.5q-20 0 -90 4l2 162q50 -4 65 -4q59 0 98 19t57.5 54.5t25 71t6.5 84.5v170 q0 92 -59.5 146.5t-159.5 54.5h-37v143h20q63 0 109 36.5t65 83t19 91.5q0 84 -57 146.5t-162 62.5q-114 0 -169 -64.5t-55 -156.5v-1094h-174z" />
<glyph unicode="&#xe0;" horiz-adv-x="1015" d="M78 297q0 64 25.5 116.5t64.5 86t89.5 56.5t97.5 32.5t91 9.5h297v78q0 102 -57.5 146t-171.5 44q-171 0 -285 -94l-86 133q159 121 385 121q198 0 294 -87.5t96 -266.5v-672h-154l-21 94l-6 4q-112 -62 -189 -84t-147 -22q-148 0 -235.5 82t-87.5 223zM258 297 q0 -71 49 -109t129 -38q111 0 307 110v193h-268q-217 0 -217 -156zM295 1481l166 51l147 -363l-108 -41z" />
<glyph unicode="&#xe1;" horiz-adv-x="1015" d="M78 297q0 64 25.5 116.5t64.5 86t89.5 56.5t97.5 32.5t91 9.5h297v78q0 102 -57.5 146t-171.5 44q-171 0 -285 -94l-86 133q159 121 385 121q198 0 294 -87.5t96 -266.5v-672h-154l-21 94l-6 4q-112 -62 -189 -84t-147 -22q-148 0 -235.5 82t-87.5 223zM258 297 q0 -71 49 -109t129 -38q111 0 307 110v193h-268q-217 0 -217 -156zM483 1169l148 363l166 -51l-205 -353z" />
<glyph unicode="&#xe2;" horiz-adv-x="1015" d="M78 297q0 64 25.5 116.5t64.5 86t89.5 56.5t97.5 32.5t91 9.5h297v78q0 102 -57.5 146t-171.5 44q-171 0 -285 -94l-86 133q159 121 385 121q198 0 294 -87.5t96 -266.5v-672h-154l-21 94l-6 4q-112 -62 -189 -84t-147 -22q-148 0 -235.5 82t-87.5 223zM162 1208l307 314 h109l292 -310l-82 -79l-272 217l-274 -220zM258 297q0 -71 49 -109t129 -38q111 0 307 110v193h-268q-217 0 -217 -156z" />
<glyph unicode="&#xe3;" horiz-adv-x="1015" d="M78 297q0 64 25.5 116.5t64.5 86t89.5 56.5t97.5 32.5t91 9.5h297v78q0 102 -57.5 146t-171.5 44q-171 0 -285 -94l-86 133q159 121 385 121q198 0 294 -87.5t96 -266.5v-672h-154l-21 94l-6 4q-112 -62 -189 -84t-147 -22q-148 0 -235.5 82t-87.5 223zM160 1249 q41 86 100 134.5t121 48.5q52 0 146.5 -48.5t127.5 -48.5q65 0 125 92l107 -59q-86 -182 -219 -182q-51 0 -143 43t-130 43q-35 0 -62.5 -18t-66.5 -64zM258 297q0 -71 49 -109t129 -38q111 0 307 110v193h-268q-217 0 -217 -156z" />
<glyph unicode="&#xe4;" horiz-adv-x="1015" d="M78 297q0 64 25.5 116.5t64.5 86t89.5 56.5t97.5 32.5t91 9.5h297v78q0 102 -57.5 146t-171.5 44q-171 0 -285 -94l-86 133q159 121 385 121q198 0 294 -87.5t96 -266.5v-672h-154l-21 94l-6 4q-112 -62 -189 -84t-147 -22q-148 0 -235.5 82t-87.5 223zM246 1309 q0 40 29 69t69 29q41 0 70.5 -29t29.5 -69q0 -41 -29.5 -71t-70.5 -30q-40 0 -69 30t-29 71zM258 297q0 -71 49 -109t129 -38q111 0 307 110v193h-268q-217 0 -217 -156zM645 1309q0 40 29.5 69t70.5 29t71 -29t30 -69q0 -41 -30 -71t-71 -30t-70.5 30t-29.5 71z" />
<glyph unicode="&#xe5;" horiz-adv-x="1015" d="M78 297q0 64 25.5 116.5t64.5 86t89.5 56.5t97.5 32.5t91 9.5h297v78q0 102 -57.5 146t-171.5 44q-171 0 -285 -94l-86 133q159 121 385 121q198 0 294 -87.5t96 -266.5v-672h-154l-21 94l-6 4q-112 -62 -189 -84t-147 -22q-148 0 -235.5 82t-87.5 223zM258 297 q0 -71 49 -109t129 -38q111 0 307 110v193h-268q-217 0 -217 -156zM332 1319q0 87 62.5 148t150.5 61t149.5 -60.5t61.5 -148.5t-61.5 -149.5t-149.5 -61.5t-150.5 61.5t-62.5 149.5zM430 1319q0 -47 34 -80t81 -33t79.5 33t32.5 80q0 46 -32.5 78.5t-79.5 32.5t-81 -32.5 t-34 -78.5z" />
<glyph unicode="&#xe6;" horiz-adv-x="1636" d="M80 297q0 64 25.5 116.5t65 86t89.5 56.5t97.5 32.5t91.5 9.5h296v78q-3 107 -65 148.5t-174 41.5q-161 0 -275 -94l-86 133q159 121 369 121q227 0 330 -125q117 123 311 123q184 0 297 -103t113 -278v-190h-643v-78q0 -114 72.5 -169.5t181.5 -55.5q144 0 249 100 l111 -121q-136 -139 -365 -139q-115 0 -209 39t-151 114l-72 -45q-111 -63 -187.5 -84.5t-148.5 -21.5q-148 0 -235.5 82t-87.5 223zM260 297q0 -71 49 -109t129 -38q111 0 307 110v193h-268q-217 0 -217 -156zM924 596h462v29q0 121 -64.5 180t-166.5 59q-99 0 -165 -60 t-66 -173v-35z" />
<glyph unicode="&#xe7;" horiz-adv-x="878" d="M96 350v301q0 112 56.5 199t147.5 131.5t198 44.5q229 0 342 -125l-105 -133q-60 58 -115 76t-114 18q-41 0 -80.5 -13t-75 -40t-57 -75t-21.5 -111v-230q0 -84 35 -139.5t85.5 -77.5t113.5 -22q53 0 115.5 21t105.5 63l109 -123q-121 -121 -320 -125l-22 -70 q56 -3 98 -20.5t64 -44t32 -53.5t10 -54q0 -65 -52.5 -117.5t-158.5 -52.5q-111 0 -194 33l33 86q79 -25 153 -25q49 0 75 21t26 53q0 31 -24.5 56.5t-78.5 25.5q-14 0 -28 -2l-64 37l39 133q-148 20 -238 116.5t-90 237.5z" />
<glyph unicode="&#xe8;" horiz-adv-x="989" d="M96 360v269q0 180 114 287.5t296 107.5q184 0 296.5 -103t112.5 -278v-201h-643v-67q0 -114 72.5 -169.5t181.5 -55.5q145 0 250 100l111 -121q-136 -139 -365 -139q-87 0 -163.5 23.5t-135.5 68t-93 116.5t-34 162zM274 586h463v39q0 121 -64.5 180t-166.5 59 q-99 0 -165.5 -60t-66.5 -173v-45zM289 1481l166 51l147 -363l-108 -41z" />
<glyph unicode="&#xe9;" horiz-adv-x="989" d="M96 360v269q0 180 114 287.5t296 107.5q184 0 296.5 -103t112.5 -278v-201h-643v-67q0 -114 72.5 -169.5t181.5 -55.5q145 0 250 100l111 -121q-136 -139 -365 -139q-87 0 -163.5 23.5t-135.5 68t-93 116.5t-34 162zM274 586h463v39q0 121 -64.5 180t-166.5 59 q-99 0 -165.5 -60t-66.5 -173v-45zM414 1169l147 363l166 -51l-205 -353z" />
<glyph unicode="&#xea;" horiz-adv-x="989" d="M96 360v269q0 180 114 287.5t296 107.5q184 0 296.5 -103t112.5 -278v-201h-643v-67q0 -114 72.5 -169.5t181.5 -55.5q145 0 250 100l111 -121q-136 -139 -365 -139q-87 0 -163.5 23.5t-135.5 68t-93 116.5t-34 162zM160 1208l307 314h108l293 -310l-82 -79l-272 217 l-274 -220zM274 586h463v39q0 121 -64.5 180t-166.5 59q-99 0 -165.5 -60t-66.5 -173v-45z" />
<glyph unicode="&#xeb;" horiz-adv-x="989" d="M96 360v269q0 180 114 287.5t296 107.5q184 0 296.5 -103t112.5 -278v-201h-643v-67q0 -114 72.5 -169.5t181.5 -55.5q145 0 250 100l111 -121q-136 -139 -365 -139q-87 0 -163.5 23.5t-135.5 68t-93 116.5t-34 162zM213 1309q0 40 29 69t69 29q41 0 71 -29t30 -69 q0 -41 -30 -71t-71 -30q-40 0 -69 30t-29 71zM274 586h463v39q0 121 -64.5 180t-166.5 59q-99 0 -165.5 -60t-66.5 -173v-45zM612 1309q0 40 30 69t71 29t70.5 -29t29.5 -69q0 -41 -29.5 -71t-70.5 -30t-71 30t-30 71z" />
<glyph unicode="&#xec;" horiz-adv-x="489" d="M-12 1481l166 51l147 -363l-108 -41zM158 0v1016h174v-1016h-174z" />
<glyph unicode="&#xed;" horiz-adv-x="489" d="M139 1169l148 363l166 -51l-205 -353zM158 0v1016h174v-1016h-174z" />
<glyph unicode="&#xee;" horiz-adv-x="667" d="M-20 1208l307 314h108l293 -310l-82 -79l-272 217l-275 -220zM250 0v1016h174v-1016h-174z" />
<glyph unicode="&#xef;" horiz-adv-x="559" d="M-20 1309q0 40 29 69t69 29q41 0 70.5 -29t29.5 -69q0 -41 -29.5 -71t-70.5 -30q-40 0 -69 30t-29 71zM193 0v1016h174v-1016h-174zM379 1309q0 40 29.5 69t70.5 29t71 -29t30 -69q0 -41 -30 -71t-71 -30t-70.5 30t-29.5 71z" />
<glyph unicode="&#xf0;" horiz-adv-x="1034" d="M98 358v220q0 175 117 287t301 112q71 0 138 -21t110 -61l4 2q-8 193 -51 254l-154 -109l-61 88l143 101q-75 82 -278 115l28 149q126 -11 231 -54t158 -112l174 121l62 -88l-166 -117q31 -54 48.5 -107t25 -125.5t9 -123.5t1.5 -160v-10.5v-9.5v-11v-307 q0 -182 -112 -291.5t-316 -109.5q-180 0 -296 98t-116 270zM274 393q0 -125 67.5 -182t178.5 -57q102 0 173 58.5t71 180.5v180q0 63 -21 111t-56.5 75.5t-76 40.5t-84.5 13q-110 0 -181 -64.5t-71 -189.5v-166z" />
<glyph unicode="&#xf1;" horiz-adv-x="1017" d="M90 0v1016h156l20 -113q119 74 198 98.5t146 24.5q150 0 234 -95t84 -267v-664h-176v641q0 113 -48.5 164t-132.5 49q-60 0 -142.5 -31t-162.5 -82v-741h-176zM131 1249q41 86 100 134.5t121 48.5q52 0 147 -48.5t128 -48.5q65 0 125 92l106 -59q-86 -182 -219 -182 q-51 0 -142.5 43t-129.5 43q-35 0 -62.5 -18t-66.5 -64z" />
<glyph unicode="&#xf2;" horiz-adv-x="1034" d="M98 358v295q0 113 57.5 199t152.5 130t210 44q187 0 303.5 -100.5t116.5 -272.5v-295q0 -170 -122 -269t-300 -99q-181 0 -299.5 98t-118.5 270zM274 393q0 -125 67.5 -182t178.5 -57q44 0 85.5 13t78 40t58.5 75t22 111v230q0 63 -22 111t-58.5 75t-78 40t-85.5 13 q-45 0 -86.5 -13t-78.5 -40t-59 -75t-22 -111v-230zM311 1481l166 51l148 -363l-109 -41z" />
<glyph unicode="&#xf3;" horiz-adv-x="1034" d="M98 358v295q0 113 57.5 199t152.5 130t210 44q187 0 303.5 -100.5t116.5 -272.5v-295q0 -170 -122 -269t-300 -99q-181 0 -299.5 98t-118.5 270zM274 393q0 -125 67.5 -182t178.5 -57q44 0 85.5 13t78 40t58.5 75t22 111v230q0 63 -22 111t-58.5 75t-78 40t-85.5 13 q-45 0 -86.5 -13t-78.5 -40t-59 -75t-22 -111v-230zM442 1169l148 363l166 -51l-205 -353z" />
<glyph unicode="&#xf4;" horiz-adv-x="1034" d="M98 358v295q0 113 57.5 199t152.5 130t210 44q187 0 303.5 -100.5t116.5 -272.5v-295q0 -170 -122 -269t-300 -99q-181 0 -299.5 98t-118.5 270zM168 1208l307 314h109l293 -310l-82 -79l-273 217l-274 -220zM274 393q0 -125 67.5 -182t178.5 -57q44 0 85.5 13t78 40 t58.5 75t22 111v230q0 63 -22 111t-58.5 75t-78 40t-85.5 13q-45 0 -86.5 -13t-78.5 -40t-59 -75t-22 -111v-230z" />
<glyph unicode="&#xf5;" horiz-adv-x="1034" d="M98 358v295q0 113 57.5 199t152.5 130t210 44q187 0 303.5 -100.5t116.5 -272.5v-295q0 -170 -122 -269t-300 -99q-181 0 -299.5 98t-118.5 270zM176 1249q41 86 100 134.5t121 48.5q52 0 147 -48.5t128 -48.5q65 0 125 92l106 -59q-86 -182 -219 -182q-51 0 -142.5 43 t-129.5 43q-35 0 -62.5 -18t-66.5 -64zM274 393q0 -125 67.5 -182t178.5 -57q44 0 85.5 13t78 40t58.5 75t22 111v230q0 63 -22 111t-58.5 75t-78 40t-85.5 13q-45 0 -86.5 -13t-78.5 -40t-59 -75t-22 -111v-230z" />
<glyph unicode="&#xf6;" horiz-adv-x="1034" d="M98 358v295q0 113 57.5 199t152.5 130t210 44q187 0 303.5 -100.5t116.5 -272.5v-295q0 -170 -122 -269t-300 -99q-181 0 -299.5 98t-118.5 270zM223 1309q0 40 29.5 69t69.5 29q41 0 70.5 -29t29.5 -69q0 -41 -29.5 -71t-70.5 -30q-40 0 -69.5 30t-29.5 71zM274 393 q0 -125 67.5 -182t178.5 -57q44 0 85.5 13t78 40t58.5 75t22 111v230q0 63 -22 111t-58.5 75t-78 40t-85.5 13q-45 0 -86.5 -13t-78.5 -40t-59 -75t-22 -111v-230zM623 1309q0 40 29.5 69t70.5 29t70.5 -29t29.5 -69q0 -41 -29.5 -71t-70.5 -30t-70.5 30t-29.5 71z" />
<glyph unicode="&#xf7;" horiz-adv-x="1024" d="M57 537v129h924v-129h-924zM403 238q0 47 34 80.5t83 33.5q48 0 82.5 -33.5t34.5 -80.5q0 -49 -34.5 -83t-82.5 -34q-50 0 -83.5 33.5t-33.5 83.5zM403 969q0 48 34 82t83 34q47 0 82 -34.5t35 -81.5t-35 -82t-82 -35q-49 0 -83 34.5t-34 82.5z" />
<glyph unicode="&#xf8;" horiz-adv-x="1034" d="M98 45l72 92q-72 91 -72 221v295q0 113 57.5 199t152.5 130t210 44q168 0 279 -82l63 82l78 -55l-72 -92q72 -94 72 -226v-295q0 -170 -122 -269t-300 -99q-164 0 -276 80l-66 -86zM274 393q0 -59 15 -102l399 514q-68 57 -168 57q-45 0 -86.5 -13t-78.5 -40t-59 -75 t-22 -111v-230zM346 207q58 -53 174 -53q44 0 85.5 13t78 40t58.5 75t22 111v230q0 54 -19 100z" />
<glyph unicode="&#xf9;" horiz-adv-x="1034" d="M98 352v664h176v-645q0 -112 49.5 -163.5t133.5 -49.5q61 0 142 33t163 92v733h176v-1016h-156l-20 109q-116 -71 -188 -95t-134 -24q-161 0 -251.5 95.5t-90.5 266.5zM303 1481l166 51l147 -363l-108 -41z" />
<glyph unicode="&#xfa;" horiz-adv-x="1034" d="M98 352v664h176v-645q0 -112 49.5 -163.5t133.5 -49.5q61 0 142 33t163 92v733h176v-1016h-156l-20 109q-116 -71 -188 -95t-134 -24q-161 0 -251.5 95.5t-90.5 266.5zM442 1169l148 363l166 -51l-205 -353z" />
<glyph unicode="&#xfb;" horiz-adv-x="1034" d="M98 352v664h176v-645q0 -112 49.5 -163.5t133.5 -49.5q61 0 142 33t163 92v733h176v-1016h-156l-20 109q-116 -71 -188 -95t-134 -24q-161 0 -251.5 95.5t-90.5 266.5zM164 1208l307 314h109l292 -310l-81 -79l-273 217l-274 -220z" />
<glyph unicode="&#xfc;" horiz-adv-x="1034" d="M98 352v664h176v-645q0 -112 49.5 -163.5t133.5 -49.5q61 0 142 33t163 92v733h176v-1016h-156l-20 109q-116 -71 -188 -95t-134 -24q-161 0 -251.5 95.5t-90.5 266.5zM213 1309q0 40 29 69t69 29q41 0 71 -29t30 -69q0 -41 -30 -71t-71 -30q-40 0 -69 30t-29 71z M612 1309q0 40 30 69t71 29t70.5 -29t29.5 -69q0 -41 -29.5 -71t-70.5 -30t-71 30t-30 71z" />
<glyph unicode="&#xfd;" horiz-adv-x="958" d="M20 1016h191l123 -447l112 -405h7l143 405l154 447h188l-518 -1428h-189l150 430l-86 72zM383 1169l147 363l166 -51l-204 -353z" />
<glyph unicode="&#xfe;" horiz-adv-x="1015" d="M96 -406v1817h174v-504q183 117 322 117q156 0 248 -90.5t92 -271.5v-312q0 -170 -96 -266t-261 -96q-150 0 -305 63v-457h-174zM270 217q154 -63 289 -63q90 -2 143.5 45.5t53.5 158.5v291q0 111 -46.5 158t-134.5 47q-57 0 -146 -35.5t-159 -83.5v-518z" />
<glyph unicode="&#xff;" horiz-adv-x="958" d="M20 1016h191l123 -447l112 -405h7l143 405l154 447h188l-518 -1428h-189l150 430l-86 72zM180 1309q0 40 29.5 69t69.5 29q41 0 70.5 -29t29.5 -69q0 -41 -29.5 -71t-70.5 -30q-40 0 -69.5 30t-29.5 71zM580 1309q0 40 29.5 69t70.5 29t70.5 -29t29.5 -69 q0 -41 -29.5 -71t-70.5 -30t-70.5 30t-29.5 71z" />
<glyph unicode="&#x100;" horiz-adv-x="1222" d="M27 0l491 1411h191l493 -1411h-198l-111 317h-561l-109 -317h-196zM336 1597v154h549v-154h-549zM393 489h441l-113 336l-105 328h-8l-102 -328z" />
<glyph unicode="&#x101;" horiz-adv-x="1015" d="M78 297q0 64 25.5 116.5t64.5 86t89.5 56.5t97.5 32.5t91 9.5h297v78q0 102 -57.5 146t-171.5 44q-171 0 -285 -94l-86 133q159 121 385 121q198 0 294 -87.5t96 -266.5v-672h-154l-21 94l-6 4q-112 -62 -189 -84t-147 -22q-148 0 -235.5 82t-87.5 223zM258 297 q0 -71 49 -109t129 -38q111 0 307 110v193h-268q-217 0 -217 -156zM260 1229v153h549v-153h-549z" />
<glyph unicode="&#x102;" horiz-adv-x="1222" d="M27 0l491 1411h191l493 -1411h-198l-111 317h-561l-109 -317h-196zM319 1761h150q3 -47 43.5 -88t101.5 -41q68 0 108 41t40 88h145q-3 -35 -12.5 -68.5t-31 -70t-52.5 -63.5t-82 -44.5t-115 -17.5t-116 17.5t-84 45t-54 63t-31 70t-10 68.5zM393 489h441l-113 336 l-105 328h-8l-102 -328z" />
<glyph unicode="&#x103;" horiz-adv-x="1015" d="M78 297q0 64 25.5 116.5t64.5 86t89.5 56.5t97.5 32.5t91 9.5h297v78q0 102 -57.5 146t-171.5 44q-171 0 -285 -94l-86 133q159 121 385 121q198 0 294 -87.5t96 -266.5v-672h-154l-21 94l-6 4q-112 -62 -189 -84t-147 -22q-148 0 -235.5 82t-87.5 223zM258 297 q0 -71 49 -109t129 -38q111 0 307 110v193h-268q-217 0 -217 -156zM264 1427h150q3 -47 43.5 -88t101.5 -41q68 0 108 41t40 88h145q-3 -35 -12.5 -68.5t-31 -70t-52.5 -63.5t-82 -44.5t-115 -17.5t-116 17.5t-84 45t-54 63t-31 70t-10 68.5z" />
<glyph unicode="&#x104;" horiz-adv-x="1222" d="M27 0l491 1411h191l493 -1411h-76q-65 -91 -65 -158q0 -43 26 -66.5t72 -23.5q36 0 115 37l43 -106q-95 -52 -191 -52q-86 0 -142 53t-56 128q0 83 76 188l-111 317h-561l-109 -317h-196zM393 489h441l-113 336l-105 328h-8l-102 -328z" />
<glyph unicode="&#x105;" horiz-adv-x="1015" d="M78 297q0 64 25.5 116.5t64.5 86t89.5 56.5t97.5 32.5t91 9.5h297v78q0 102 -57.5 146t-171.5 44q-171 0 -285 -94l-86 133q159 121 385 121q198 0 294 -87.5t96 -266.5v-672h-31q-66 -92 -66 -158q0 -42 26.5 -66t72.5 -24q35 0 114 37l43 -106q-95 -52 -190 -52 q-86 0 -142.5 53t-56.5 128q0 83 76 188l-21 94l-6 4q-112 -62 -189 -84t-147 -22q-148 0 -235.5 82t-87.5 223zM258 297q0 -71 49 -109t129 -38q111 0 307 110v193h-268q-217 0 -217 -156z" />
<glyph unicode="&#x106;" horiz-adv-x="1079" d="M111 449v516q0 138 71.5 244.5t187 161t251.5 54.5q238 0 395 -127l-94 -147q-55 45 -138 72.5t-163 27.5q-62 0 -117 -18.5t-101.5 -56t-74 -102t-27.5 -148.5v-441q0 -83 27.5 -147.5t74 -102t100.5 -56.5t113 -19q195 0 312 98l90 -145q-68 -55 -174.5 -91t-222.5 -36 q-138 0 -253 54.5t-186 161.5t-71 247zM471 1597l303 250l121 -125l-348 -211z" />
<glyph unicode="&#x107;" horiz-adv-x="878" d="M96 350v301q0 112 56.5 199t147.5 131.5t198 44.5q229 0 342 -125l-105 -133q-60 58 -115 76t-114 18q-41 0 -80.5 -13t-75 -40t-57 -75t-21.5 -111v-230q0 -84 35 -139.5t85.5 -77.5t113.5 -22q53 0 115.5 21t105.5 63l109 -123q-125 -125 -334 -125 q-179 0 -292.5 100.5t-113.5 259.5zM395 1169l148 363l166 -51l-205 -353z" />
<glyph unicode="&#x108;" horiz-adv-x="1079" d="M111 449v516q0 138 71.5 244.5t187 161t251.5 54.5q238 0 395 -127l-94 -147q-55 45 -138 72.5t-163 27.5q-62 0 -117 -18.5t-101.5 -56t-74 -102t-27.5 -148.5v-441q0 -83 27.5 -147.5t74 -102t100.5 -56.5t113 -19q195 0 312 98l90 -145q-68 -55 -174.5 -91t-222.5 -36 q-138 0 -253 54.5t-186 161.5t-71 247zM260 1591l307 262h109l293 -258l-62 -79l-293 176l-295 -179z" />
<glyph unicode="&#x109;" horiz-adv-x="878" d="M96 350v301q0 112 56.5 199t147.5 131.5t198 44.5q229 0 342 -125l-105 -133q-60 58 -115 76t-114 18q-41 0 -80.5 -13t-75 -40t-57 -75t-21.5 -111v-230q0 -84 35 -139.5t85.5 -77.5t113.5 -22q53 0 115.5 21t105.5 63l109 -123q-125 -125 -334 -125 q-179 0 -292.5 100.5t-113.5 259.5zM145 1208l308 314h108l293 -310l-82 -79l-272 217l-275 -220z" />
<glyph unicode="&#x10a;" horiz-adv-x="1079" d="M111 449v516q0 138 71.5 244.5t187 161t251.5 54.5q238 0 395 -127l-94 -147q-55 45 -138 72.5t-163 27.5q-62 0 -117 -18.5t-101.5 -56t-74 -102t-27.5 -148.5v-441q0 -83 27.5 -147.5t74 -102t100.5 -56.5t113 -19q195 0 312 98l90 -145q-68 -55 -174.5 -91t-222.5 -36 q-138 0 -253 54.5t-186 161.5t-71 247zM492 1667q0 42 28.5 74.5t77.5 32.5q52 0 83.5 -32.5t31.5 -74.5q0 -48 -31 -80.5t-84 -32.5q-51 0 -78.5 31t-27.5 82z" />
<glyph unicode="&#x10b;" horiz-adv-x="878" d="M96 350v301q0 112 56.5 199t147.5 131.5t198 44.5q229 0 342 -125l-105 -133q-60 58 -115 76t-114 18q-41 0 -80.5 -13t-75 -40t-57 -75t-21.5 -111v-230q0 -84 35 -139.5t85.5 -77.5t113.5 -22q53 0 115.5 21t105.5 63l109 -123q-125 -125 -334 -125 q-179 0 -292.5 100.5t-113.5 259.5zM383 1319q0 42 28.5 74t77.5 32q52 0 83.5 -32.5t31.5 -73.5q0 -48 -31 -80.5t-84 -32.5q-51 0 -78.5 31t-27.5 82z" />
<glyph unicode="&#x10c;" horiz-adv-x="1079" d="M111 449v516q0 138 71.5 244.5t187 161t251.5 54.5q238 0 395 -127l-94 -147q-55 45 -138 72.5t-163 27.5q-62 0 -117 -18.5t-101.5 -56t-74 -102t-27.5 -148.5v-441q0 -83 27.5 -147.5t74 -102t100.5 -56.5t113 -19q195 0 312 98l90 -145q-68 -55 -174.5 -91t-222.5 -36 q-138 0 -253 54.5t-186 161.5t-71 247zM242 1784l59 78l295 -179l293 177l61 -80l-293 -260h-108z" />
<glyph unicode="&#x10d;" horiz-adv-x="878" d="M96 350v301q0 112 56.5 199t147.5 131.5t198 44.5q229 0 342 -125l-105 -133q-60 58 -115 76t-114 18q-41 0 -80.5 -13t-75 -40t-57 -75t-21.5 -111v-230q0 -84 35 -139.5t85.5 -77.5t113.5 -22q53 0 115.5 21t105.5 63l109 -123q-125 -125 -334 -125 q-179 0 -292.5 100.5t-113.5 259.5zM131 1446l80 78l274 -219l273 217l82 -80l-293 -309h-109z" />
<glyph unicode="&#x10e;" horiz-adv-x="1239" d="M119 0v1411h530q208 0 344.5 -125.5t136.5 -335.5v-491q0 -134 -65.5 -239.5t-175 -162.5t-242.5 -57h-528zM209 1784l59 78l295 -179l293 177l62 -80l-293 -260h-109zM307 168h297q62 0 118.5 17.5t106.5 53.5t79.5 100.5t29.5 149.5v429q0 86 -28.5 150t-77 100 t-106 53.5t-122.5 17.5h-297v-1071z" />
<glyph unicode="&#x10f;" horiz-adv-x="1259" d="M96 352v312q0 167 101.5 264.5t255.5 97.5q129 0 305 -57v497h174v-1466h-154l-20 106q-193 -116 -322 -116q-156 0 -248 90.5t-92 271.5zM272 362q0 -111 46.5 -157.5t134.5 -46.5q57 0 145.5 35t159.5 83v521q-176 63 -289 63q-88 2 -142.5 -51.5t-54.5 -165.5v-281z M1012 1110q37 28 54.5 45t32 46.5t17.5 68.5q-42 3 -68 37.5t-26 81.5t34 82.5t89 35.5q70 0 104.5 -49.5t34.5 -114.5q0 -107 -60.5 -189t-150.5 -124z" />
<glyph unicode="&#x110;" horiz-adv-x="1239" d="M12 657v140h107v614h530q208 0 344.5 -125.5t136.5 -335.5v-491q0 -134 -65.5 -239.5t-175 -162.5t-242.5 -57h-528v657h-107zM307 168h297q62 0 118.5 17.5t106.5 53.5t79.5 100.5t29.5 149.5v429q0 86 -28.5 150t-77 100t-106 53.5t-122.5 17.5h-297v-442h258v-140 h-258v-489z" />
<glyph unicode="&#x111;" horiz-adv-x="1026" d="M96 352v312q0 167 101.5 264.5t255.5 97.5q129 0 305 -57v202h-332v140h332v155h174v-155h92v-140h-92v-1171h-154l-20 106q-193 -116 -322 -116q-156 0 -248 90.5t-92 271.5zM272 362q0 -111 46.5 -157.5t134.5 -46.5q57 0 145.5 35t159.5 83v521q-176 63 -289 63 q-88 2 -142.5 -51.5t-54.5 -165.5v-281z" />
<glyph unicode="&#x112;" horiz-adv-x="1140" d="M125 0v1411h942v-172h-754v-448h645v-170h-645v-451h754v-170h-942zM338 1597v154h549v-154h-549z" />
<glyph unicode="&#x113;" horiz-adv-x="989" d="M96 360v269q0 180 114 287.5t296 107.5q184 0 296.5 -103t112.5 -278v-201h-643v-67q0 -114 72.5 -169.5t181.5 -55.5q145 0 250 100l111 -121q-136 -139 -365 -139q-87 0 -163.5 23.5t-135.5 68t-93 116.5t-34 162zM244 1229v153h549v-153h-549zM274 586h463v39 q0 121 -64.5 180t-166.5 59q-99 0 -165.5 -60t-66.5 -173v-45z" />
<glyph unicode="&#x114;" horiz-adv-x="1140" d="M125 0v1411h942v-172h-754v-448h645v-170h-645v-451h754v-170h-942zM319 1761h150q3 -47 43.5 -88t101.5 -41q68 0 108 41t40 88h145q-3 -35 -12.5 -68.5t-31 -70t-52.5 -63.5t-82 -44.5t-115 -17.5t-116 17.5t-84 45t-54 63t-31 70t-10 68.5z" />
<glyph unicode="&#x115;" horiz-adv-x="989" d="M96 360v269q0 180 114 287.5t296 107.5q184 0 296.5 -103t112.5 -278v-201h-643v-67q0 -114 72.5 -169.5t181.5 -55.5q145 0 250 100l111 -121q-136 -139 -365 -139q-87 0 -163.5 23.5t-135.5 68t-93 116.5t-34 162zM219 1427h150q3 -47 43.5 -88t101.5 -41q68 0 108 41 t40 88h145q-3 -35 -12.5 -68.5t-31 -70t-52.5 -63.5t-82 -44.5t-115 -17.5t-116 17.5t-84 45t-54 63t-31 70t-10 68.5zM274 586h463v39q0 121 -64.5 180t-166.5 59q-99 0 -165.5 -60t-66.5 -173v-45z" />
<glyph unicode="&#x116;" horiz-adv-x="1140" d="M125 0v1411h942v-172h-754v-448h645v-170h-645v-451h754v-170h-942zM494 1667q0 42 28.5 74.5t77.5 32.5q52 0 83.5 -32.5t31.5 -74.5q0 -48 -31 -80.5t-84 -32.5q-51 0 -78.5 31t-27.5 82z" />
<glyph unicode="&#x117;" horiz-adv-x="989" d="M96 360v269q0 180 114 287.5t296 107.5q184 0 296.5 -103t112.5 -278v-201h-643v-67q0 -114 72.5 -169.5t181.5 -55.5q145 0 250 100l111 -121q-136 -139 -365 -139q-87 0 -163.5 23.5t-135.5 68t-93 116.5t-34 162zM274 586h463v39q0 121 -64.5 180t-166.5 59 q-99 0 -165.5 -60t-66.5 -173v-45zM397 1319q0 42 29 74t78 32q52 0 83 -32t31 -74q0 -48 -30.5 -80.5t-83.5 -32.5q-51 0 -79 31t-28 82z" />
<glyph unicode="&#x118;" horiz-adv-x="1140" d="M125 0v1411h942v-172h-754v-448h645v-170h-645v-451h754v-170q-66 -92 -66 -158q0 -42 26.5 -66t72.5 -24q35 0 114 37l43 -106q-95 -52 -190 -52q-86 0 -142.5 53t-56.5 128q0 83 74 188h-817z" />
<glyph unicode="&#x119;" horiz-adv-x="989" d="M96 360v269q0 180 114 287.5t296 107.5q184 0 296.5 -103t112.5 -278v-201h-643v-67q0 -114 72.5 -169.5t181.5 -55.5q145 0 250 100l111 -121q-28 -28 -58 -49q-63 -92 -63 -156q0 -43 26 -66.5t72 -23.5q36 0 115 37l43 -107q-93 -51 -191 -51q-86 0 -142 53t-56 128 q0 51 26 110q-63 -14 -137 -14q-87 0 -163.5 23.5t-135.5 68t-93 116.5t-34 162zM274 586h463v39q0 121 -64.5 180t-166.5 59q-99 0 -165.5 -60t-66.5 -173v-45z" />
<glyph unicode="&#x11a;" horiz-adv-x="1140" d="M125 0v1411h942v-172h-754v-448h645v-170h-645v-451h754v-170h-942zM250 1784l59 78l295 -179l293 177l61 -80l-292 -260h-109z" />
<glyph unicode="&#x11b;" horiz-adv-x="989" d="M96 360v269q0 180 114 287.5t296 107.5q184 0 296.5 -103t112.5 -278v-201h-643v-67q0 -114 72.5 -169.5t181.5 -55.5q145 0 250 100l111 -121q-136 -139 -365 -139q-87 0 -163.5 23.5t-135.5 68t-93 116.5t-34 162zM154 1446l79 78l275 -219l272 217l82 -80l-293 -309 h-108zM274 586h463v39q0 121 -64.5 180t-166.5 59q-99 0 -165.5 -60t-66.5 -173v-45z" />
<glyph unicode="&#x11c;" horiz-adv-x="1187" d="M111 449v516q0 104 43 191.5t116 146t170.5 90.5t206.5 32q238 0 395 -127l-94 -147q-55 45 -138 72.5t-163 27.5q-67 0 -127 -18.5t-110 -56t-79.5 -102t-29.5 -148.5v-441q0 -84 27.5 -148t74.5 -101.5t104.5 -56.5t123.5 -19q159 0 270 84v329h-225v170h411v-573 q-82 -94 -205 -139t-251 -45q-139 0 -256 54.5t-190.5 161.5t-73.5 247zM260 1591l307 262h109l293 -258l-62 -79l-293 176l-295 -179z" />
<glyph unicode="&#x11d;" horiz-adv-x="1021" d="M88 350v314q0 169 94 265.5t246 96.5q132 0 320 -119l20 109h156v-1077q0 -85 -35.5 -154.5t-96 -114.5t-138 -69.5t-162.5 -24.5q-96 0 -193 32.5t-174 100.5l108 129q45 -43 120.5 -70.5t135.5 -27.5q110 0 184.5 58t74.5 179v119q-170 -106 -320 -106 q-152 0 -246 95.5t-94 264.5zM162 1208l307 314h109l292 -310l-82 -79l-272 217l-274 -220zM264 373q0 -113 47 -165t133 -50q63 0 146.5 29.5t157.5 76.5v465q-75 55 -160 90t-144 35q-88 0 -134 -50t-46 -165v-266z" />
<glyph unicode="&#x11e;" horiz-adv-x="1187" d="M111 449v516q0 104 43 191.5t116 146t170.5 90.5t206.5 32q238 0 395 -127l-94 -147q-55 45 -138 72.5t-163 27.5q-67 0 -127 -18.5t-110 -56t-79.5 -102t-29.5 -148.5v-441q0 -84 27.5 -148t74.5 -101.5t104.5 -56.5t123.5 -19q159 0 270 84v329h-225v170h411v-573 q-82 -94 -205 -139t-251 -45q-139 0 -256 54.5t-190.5 161.5t-73.5 247zM319 1761h150q3 -47 43.5 -88t101.5 -41q68 0 108 41t40 88h145q-3 -35 -12.5 -68.5t-31 -70t-52.5 -63.5t-82 -44.5t-115 -17.5t-116 17.5t-84 45t-54 63t-31 70t-10 68.5z" />
<glyph unicode="&#x11f;" horiz-adv-x="1021" d="M88 350v314q0 169 94 265.5t246 96.5q132 0 320 -119l20 109h156v-1077q0 -85 -35.5 -154.5t-96 -114.5t-138 -69.5t-162.5 -24.5q-96 0 -193 32.5t-174 100.5l108 129q45 -43 120.5 -70.5t135.5 -27.5q110 0 184.5 58t74.5 179v119q-170 -106 -320 -106 q-152 0 -246 95.5t-94 264.5zM260 1427h150q3 -47 43.5 -88t101.5 -41q68 0 107.5 41t39.5 88h146q-3 -35 -12.5 -68.5t-31 -70t-52.5 -63.5t-82 -44.5t-115 -17.5t-116 17.5t-84 45t-54 63t-31 70t-10 68.5zM264 373q0 -113 47 -165t133 -50q63 0 146.5 29.5t157.5 76.5 v465q-75 55 -160 90t-144 35q-88 0 -134 -50t-46 -165v-266z" />
<glyph unicode="&#x120;" horiz-adv-x="1187" d="M111 449v516q0 104 43 191.5t116 146t170.5 90.5t206.5 32q238 0 395 -127l-94 -147q-55 45 -138 72.5t-163 27.5q-67 0 -127 -18.5t-110 -56t-79.5 -102t-29.5 -148.5v-441q0 -84 27.5 -148t74.5 -101.5t104.5 -56.5t123.5 -19q159 0 270 84v329h-225v170h411v-573 q-82 -94 -205 -139t-251 -45q-139 0 -256 54.5t-190.5 161.5t-73.5 247zM510 1667q0 42 28.5 74.5t77.5 32.5q52 0 83.5 -32.5t31.5 -74.5q0 -48 -31 -80.5t-84 -32.5q-51 0 -78.5 31t-27.5 82z" />
<glyph unicode="&#x121;" horiz-adv-x="1021" d="M88 350v314q0 169 94 265.5t246 96.5q132 0 320 -119l20 109h156v-1077q0 -85 -35.5 -154.5t-96 -114.5t-138 -69.5t-162.5 -24.5q-96 0 -193 32.5t-174 100.5l108 129q45 -43 120.5 -70.5t135.5 -27.5q110 0 184.5 58t74.5 179v119q-170 -106 -320 -106 q-152 0 -246 95.5t-94 264.5zM264 373q0 -113 47 -165t133 -50q63 0 146.5 29.5t157.5 76.5v465q-75 55 -160 90t-144 35q-88 0 -134 -50t-46 -165v-266zM418 1319q0 42 28.5 74t77.5 32q52 0 83.5 -32.5t31.5 -73.5q0 -48 -31 -80.5t-84 -32.5q-51 0 -78.5 31t-27.5 82z " />
<glyph unicode="&#x122;" horiz-adv-x="1187" d="M111 449v516q0 104 43 191.5t116 146t170.5 90.5t206.5 32q238 0 395 -127l-94 -147q-55 45 -138 72.5t-163 27.5q-67 0 -127 -18.5t-110 -56t-79.5 -102t-29.5 -148.5v-441q0 -84 27.5 -148t74.5 -101.5t104.5 -56.5t123.5 -19q159 0 270 84v329h-225v170h411v-573 q-82 -94 -205 -139t-251 -45q-139 0 -256 54.5t-190.5 161.5t-73.5 247zM477 -492q37 29 54.5 45.5t32.5 46t18 68.5q-42 3 -68.5 37.5t-26.5 81.5t34 83t89 36q70 0 105 -50t35 -114q0 -107 -60.5 -189t-150.5 -124z" />
<glyph unicode="&#x123;" horiz-adv-x="1021" d="M88 350v314q0 169 94 265.5t246 96.5q132 0 320 -119l20 109h156v-1077q0 -85 -35.5 -154.5t-96 -114.5t-138 -69.5t-162.5 -24.5q-96 0 -193 32.5t-174 100.5l108 129q45 -43 120.5 -70.5t135.5 -27.5q110 0 184.5 58t74.5 179v119q-170 -106 -320 -106 q-152 0 -246 95.5t-94 264.5zM264 373q0 -113 47 -165t133 -50q63 0 146.5 29.5t157.5 76.5v465q-75 55 -160 90t-144 35q-88 0 -134 -50t-46 -165v-266zM420 1272q0 107 60.5 189t150.5 124l61 -80q-37 -29 -54 -45t-32 -45.5t-18 -68.5q42 -3 68 -37.5t26 -81.5t-34 -83 t-89 -36q-70 0 -104.5 49.5t-34.5 114.5z" />
<glyph unicode="&#x124;" horiz-adv-x="1263" d="M111 0v1411h188v-610h662v610h192v-1411h-192v629h-662v-629h-188zM262 1591l307 262h109l293 -258l-62 -79l-293 176l-294 -179z" />
<glyph unicode="&#x125;" horiz-adv-x="1017" d="M-168 1591l307 262h109l293 -258l-62 -79l-293 176l-295 -179zM96 0v1466h176v-565q193 125 334 125q162 0 245 -94t83 -268v-664h-176v641q0 213 -180 213q-62 0 -144.5 -30.5t-161.5 -82.5v-741h-176z" />
<glyph unicode="&#x126;" horiz-adv-x="1263" d="M29 1092v139h82v180h188v-180h662v180h192v-180h88v-139h-88v-1092h-192v629h-662v-629h-188v1092h-82zM299 801h662v291h-662v-291z" />
<glyph unicode="&#x127;" horiz-adv-x="1017" d="M0 1174v137h96v155h176v-155h449v-137h-449v-273q193 125 334 125q162 0 245 -94t83 -268v-664h-176v641q0 213 -180 213q-62 0 -144.5 -30.5t-161.5 -82.5v-741h-176v1174h-96z" />
<glyph unicode="&#x128;" horiz-adv-x="516" d="M-100 1597q41 86 100 134.5t121 48.5q52 0 146.5 -48.5t127.5 -48.5q64 0 125 93l107 -60q-86 -182 -219 -182q-51 0 -143 43t-130 43q-35 0 -62.5 -18t-66.5 -64zM164 0v1411h188v-1411h-188z" />
<glyph unicode="&#x129;" horiz-adv-x="686" d="M-20 1249q41 86 100 134.5t121 48.5q52 0 146.5 -48.5t127.5 -48.5q65 0 125 92l107 -59q-86 -182 -220 -182q-51 0 -142.5 43t-129.5 43q-35 0 -62.5 -18t-66.5 -64zM260 0v1016h174v-1016h-174z" />
<glyph unicode="&#x12a;" horiz-adv-x="516" d="M-14 1597v154h549v-154h-549zM164 0v1411h188v-1411h-188z" />
<glyph unicode="&#x12b;" horiz-adv-x="528" d="M-10 1229v153h549v-153h-549zM174 0v1016h174v-1016h-174z" />
<glyph unicode="&#x12c;" horiz-adv-x="555" d="M-6 1759h149q3 -46 44 -87.5t102 -41.5q68 0 107.5 41t39.5 88h146q-3 -35 -12.5 -68.5t-31 -70t-52.5 -63.5t-82 -44.5t-115 -17.5t-116 17.5t-84 45t-54 63t-31 70t-10 68.5zM197 0v1411h188v-1411h-188z" />
<glyph unicode="&#x12d;" horiz-adv-x="567" d="M-10 1440h149q3 -46 44 -87.5t102 -41.5q68 0 107.5 41t39.5 88h146q-3 -35 -12.5 -68.5t-31 -70t-52.5 -63.5t-82 -44.5t-115 -17.5t-116 17.5t-84 45t-54 63t-31 70t-10 68.5zM195 0v1016h174v-1016h-174z" />
<glyph unicode="&#x12e;" horiz-adv-x="516" d="M123 -188q0 83 74 188h-33v1411h188v-1411h-30q-66 -92 -66 -158q0 -43 26 -66.5t72 -23.5q36 0 115 37l43 -106q-95 -52 -190 -52q-86 0 -142.5 53t-56.5 128z" />
<glyph unicode="&#x12f;" horiz-adv-x="464" d="M96 -186q0 84 74 186h-25v1016h174v-1016h-26q-64 -91 -64 -156q0 -42 26.5 -66t72.5 -24q35 0 114 37l43 -106q-95 -52 -190 -52q-86 0 -142.5 53t-56.5 128zM123 1323q0 44 32.5 76.5t75.5 32.5q44 0 77.5 -32.5t33.5 -76.5t-33.5 -77.5t-77.5 -33.5q-43 0 -75.5 33.5 t-32.5 77.5z" />
<glyph unicode="&#x130;" horiz-adv-x="516" d="M154 1667q0 42 28.5 74.5t77.5 32.5q52 0 83.5 -32.5t31.5 -74.5q0 -48 -31 -80.5t-84 -32.5q-51 0 -78.5 31t-27.5 82zM164 0v1411h188v-1411h-188z" />
<glyph unicode="&#x131;" horiz-adv-x="489" d="M158 0v1016h174v-1016h-174z" />
<glyph unicode="&#x132;" horiz-adv-x="1480" d="M166 0v1411h188v-1411h-188zM459 92l88 152q137 -84 268 -84q153 0 239.5 80.5t86.5 255.5v915h188v-956q0 -141 -66 -249t-175 -164t-242 -56q-101 0 -208 28t-179 78z" />
<glyph unicode="&#x133;" horiz-adv-x="835" d="M123 1323q0 44 32.5 76.5t75.5 32.5q44 0 77.5 -32.5t33.5 -76.5t-33.5 -77.5t-77.5 -33.5q-43 0 -75.5 33.5t-32.5 77.5zM145 0v1016h174v-1016h-174zM301 -258h80q84 0 113.5 36t29.5 140v1096h174v-1120q0 -164 -75.5 -238t-221.5 -74h-100v160zM508 1323 q0 43 29.5 72.5t72.5 29.5t73 -29.5t30 -72.5t-30 -73.5t-73 -30.5t-72.5 30.5t-29.5 73.5z" />
<glyph unicode="&#x134;" horiz-adv-x="1067" d="M31 94l88 152q137 -84 268 -84q153 0 239.5 80.5t86.5 255.5v915h188v-956q0 -141 -66 -249t-175 -164t-242 -56q-101 0 -208 28t-179 78zM457 1595l307 263h108l293 -259l-61 -79l-293 176l-295 -178z" />
<glyph unicode="&#x135;" horiz-adv-x="688" d="M-10 1208l307 314h109l292 -310l-82 -79l-272 217l-274 -220zM31 -260h80q84 0 113.5 36t29.5 140v1098h174v-1123q0 -164 -75.5 -237.5t-221.5 -73.5h-100v160z" />
<glyph unicode="&#x136;" horiz-adv-x="1171" d="M117 0v1411h188v-733h14l599 733h227l-455 -557l502 -854h-221l-408 698l-258 -307v-391h-188zM473 -451q37 29 54.5 45.5t32.5 46t18 68.5q-42 3 -68.5 37.5t-26.5 81.5t34 83t89 36q70 0 104.5 -49.5t34.5 -114.5q0 -108 -60 -190t-150 -123z" />
<glyph unicode="&#x137;" horiz-adv-x="983" d="M129 0v1466h174v-798h150q73 0 120.5 26t85.5 105l113 221h197l-123 -258q-31 -66 -65 -104t-91 -60q34 -11 60.5 -30t42 -36t30.5 -48.5t21 -48t18 -54.5l127 -381h-194l-107 326q-33 102 -77 137t-128 35h-180v-498h-174zM379 -492q37 28 54.5 45t32 46.5t17.5 68.5 q-42 3 -68 37.5t-26 81.5t34 83t89 36q70 0 104.5 -49.5t34.5 -114.5q0 -107 -60.5 -189t-150.5 -124z" />
<glyph unicode="&#x138;" horiz-adv-x="970" d="M102 0v1016h174v-432h173q28 0 46.5 2t42.5 9.5t41 22t34.5 41t29.5 64.5l98 293h181l-101 -295q-27 -82 -61.5 -129.5t-87.5 -61.5q64 -16 96.5 -63t62.5 -137l109 -330h-184l-88 281q-29 91 -74 120t-123 29h-195v-430h-174z" />
<glyph unicode="&#x139;" horiz-adv-x="1095" d="M135 0v1411h189v-1241h753v-170h-942zM164 1597l303 250l121 -125l-348 -211z" />
<glyph unicode="&#x13a;" horiz-adv-x="567" d="M170 248v1218h174v-1196q0 -75 33.5 -96t122.5 -18l4 -160q-52 -8 -103 -8q-133 0 -182 63.5t-49 196.5zM184 1618l303 250l121 -125l-348 -211z" />
<glyph unicode="&#x13b;" horiz-adv-x="1095" d="M135 0v1411h189v-1241h753v-170h-942zM457 -492q37 28 54.5 45t32 46.5t17.5 68.5q-42 3 -68 37.5t-26 81.5t34 83t89 36q70 0 104.5 -49.5t34.5 -114.5q0 -107 -60.5 -189t-150.5 -124z" />
<glyph unicode="&#x13c;" horiz-adv-x="567" d="M170 248v1218h174v-1196q0 -75 33.5 -96t122.5 -18l4 -160q-52 -8 -103 -8q-133 0 -182 63.5t-49 196.5zM172 -492q37 28 54.5 45t32 46.5t17.5 68.5q-42 3 -68 37.5t-26 81.5t34 83t89 36q70 0 104.5 -49.5t34.5 -114.5q0 -107 -60.5 -189t-150.5 -124z" />
<glyph unicode="&#x13d;" horiz-adv-x="1095" d="M135 0v1411h189v-1241h753v-170h-942zM602 1030q37 29 54.5 45.5t32.5 46t18 68.5q-42 3 -68.5 37.5t-26.5 81.5t34 82.5t89 35.5q70 0 104.5 -49t34.5 -114q0 -108 -60 -190.5t-150 -123.5z" />
<glyph unicode="&#x13e;" horiz-adv-x="722" d="M170 248v1218h174v-1196q0 -75 33.5 -96t122.5 -18l4 -160q-52 -8 -103 -8q-133 0 -182 63.5t-49 196.5zM444 1073q37 29 54.5 45.5t32.5 46t18 68.5q-42 3 -68 37.5t-26 81.5t34 82.5t89 35.5q70 0 104.5 -49t34.5 -114q0 -108 -60.5 -190.5t-150.5 -123.5z" />
<glyph unicode="&#x13f;" horiz-adv-x="1095" d="M135 0v1411h189v-1241h753v-170h-942zM594 733q0 42 28.5 74.5t77.5 32.5q52 0 83.5 -32.5t31.5 -74.5q0 -48 -30.5 -80t-84.5 -32q-51 0 -78.5 30.5t-27.5 81.5z" />
<glyph unicode="&#x140;" horiz-adv-x="667" d="M170 248v1218h174v-1196q0 -75 33.5 -96t122.5 -18l4 -160q-52 -8 -103 -8q-133 0 -182 63.5t-49 196.5zM440 788q0 42 29 74.5t78 32.5q52 0 83.5 -32.5t31.5 -74.5q0 -48 -30.5 -80t-84.5 -32q-51 0 -79 30.5t-28 81.5z" />
<glyph unicode="&#x141;" horiz-adv-x="1095" d="M-16 518l151 88v805h189v-696l335 196l68 -118l-403 -236v-387h753v-170h-942v449l-84 -50z" />
<glyph unicode="&#x142;" horiz-adv-x="628" d="M-10 621l211 120v725h174v-624l196 112l68 -118l-264 -152v-414q0 -76 33 -96.5t122 -17.5l5 -160q-52 -8 -103 -8q-133 0 -182 63.5t-49 196.5v336l-144 -82z" />
<glyph unicode="&#x143;" horiz-adv-x="1320" d="M121 0v1411h178l510 -764l188 -293h15v1057h188v-1411h-182l-494 737l-200 310h-15v-1047h-188zM573 1597l304 250l120 -125l-348 -211z" />
<glyph unicode="&#x144;" horiz-adv-x="1017" d="M90 0v1016h156l20 -113q119 74 198 98.5t146 24.5q150 0 234 -95t84 -267v-664h-176v641q0 113 -48.5 164t-132.5 49q-60 0 -142.5 -31t-162.5 -82v-741h-176zM395 1169l148 363l166 -51l-205 -353z" />
<glyph unicode="&#x145;" horiz-adv-x="1320" d="M121 0v1411h178l510 -764l188 -293h15v1057h188v-1411h-182l-494 737l-200 310h-15v-1047h-188zM539 -451q37 28 54.5 45t32 46.5t17.5 68.5q-42 3 -68 37.5t-26 81.5t34 83t89 36q70 0 104.5 -49.5t34.5 -114.5q0 -107 -60.5 -189t-150.5 -124z" />
<glyph unicode="&#x146;" horiz-adv-x="1017" d="M90 0v1016h156l20 -113q119 74 198 98.5t146 24.5q150 0 234 -95t84 -267v-664h-176v641q0 113 -48.5 164t-132.5 49q-60 0 -142.5 -31t-162.5 -82v-741h-176zM367 -492q37 28 54.5 45t32 46.5t17.5 68.5q-42 3 -68 37.5t-26 81.5t34 83t89 36q70 0 104.5 -49.5 t34.5 -114.5q0 -107 -60.5 -189t-150.5 -124z" />
<glyph unicode="&#x147;" horiz-adv-x="1320" d="M121 0v1411h178l510 -764l188 -293h15v1057h188v-1411h-182l-494 737l-200 310h-15v-1047h-188zM299 1784l59 78l295 -179l293 177l62 -80l-293 -260h-109z" />
<glyph unicode="&#x148;" horiz-adv-x="1017" d="M90 0v1016h156l20 -113q119 74 198 98.5t146 24.5q150 0 234 -95t84 -267v-664h-176v641q0 113 -48.5 164t-132.5 49q-60 0 -142.5 -31t-162.5 -82v-741h-176zM117 1446l80 78l274 -219l272 217l82 -80l-293 -309h-108z" />
<glyph unicode="&#x149;" horiz-adv-x="1214" d="M0 997q37 28 54.5 45t32 46.5t17.5 68.5q-42 3 -68 37.5t-26 81.5t34 83t89 36q70 0 104.5 -49.5t34.5 -114.5q0 -107 -60.5 -189t-150.5 -124zM287 0v1016h155l21 -113q119 74 198 98.5t146 24.5q150 0 233.5 -94.5t83.5 -267.5v-664h-176v641q0 113 -48.5 164 t-131.5 49q-60 0 -142.5 -31t-162.5 -82v-741h-176z" />
<glyph unicode="&#x14a;" horiz-adv-x="1320" d="M121 0v1411h178l510 -764l188 -293h15v1057h188v-1538q0 -110 -57.5 -163.5t-151.5 -53.5q-90 0 -180 43l45 123q79 -17 90 -17q42 0 60 23t18 76v90l-500 743l-200 310h-15v-1047h-188z" />
<glyph unicode="&#x14b;" horiz-adv-x="1017" d="M90 0v1016h156l20 -113q119 74 198 98.5t146 24.5q150 0 234 -95t84 -267v-791q0 -110 -57.5 -163.5t-151.5 -53.5q-90 0 -180 43l45 123q79 -17 90 -17q42 0 60 23t18 76v737q0 213 -181 213q-60 0 -142.5 -31t-162.5 -82v-741h-176z" />
<glyph unicode="&#x14c;" horiz-adv-x="1255" d="M106 461v487q0 213 145 345t376 132q228 0 375 -132.5t147 -344.5v-487q0 -214 -148 -344.5t-374 -130.5q-232 0 -376.5 129.5t-144.5 345.5zM297 483q0 -84 26.5 -147.5t73 -101t104.5 -56t126 -18.5q145 0 238 80t93 243v443q0 83 -26 146.5t-72 101.5t-105 57.5 t-128 19.5t-127.5 -19.5t-104.5 -57.5t-72 -101.5t-26 -146.5v-443zM346 1597v154h549v-154h-549z" />
<glyph unicode="&#x14d;" horiz-adv-x="1034" d="M98 358v295q0 113 57.5 199t152.5 130t210 44q187 0 303.5 -100.5t116.5 -272.5v-295q0 -170 -122 -269t-300 -99q-181 0 -299.5 98t-118.5 270zM240 1229v153h548v-153h-548zM274 393q0 -125 67.5 -182t178.5 -57q44 0 85.5 13t78 40t58.5 75t22 111v230q0 63 -22 111 t-58.5 75t-78 40t-85.5 13q-45 0 -86.5 -13t-78.5 -40t-59 -75t-22 -111v-230z" />
<glyph unicode="&#x14e;" horiz-adv-x="1255" d="M106 461v487q0 213 145 345t376 132q228 0 375 -132.5t147 -344.5v-487q0 -214 -148 -344.5t-374 -130.5q-232 0 -376.5 129.5t-144.5 345.5zM297 483q0 -84 26.5 -147.5t73 -101t104.5 -56t126 -18.5q145 0 238 80t93 243v443q0 83 -26 146.5t-72 101.5t-105 57.5 t-128 19.5t-127.5 -19.5t-104.5 -57.5t-72 -101.5t-26 -146.5v-443zM340 1761h149q3 -46 44 -87.5t102 -41.5q68 0 107.5 41t39.5 88h146q-3 -35 -12.5 -68.5t-31 -70t-52.5 -63.5t-82 -44.5t-115 -17.5t-116 17.5t-84 45t-54 63t-31 70t-10 68.5z" />
<glyph unicode="&#x14f;" horiz-adv-x="1034" d="M98 358v295q0 113 57.5 199t152.5 130t210 44q187 0 303.5 -100.5t116.5 -272.5v-295q0 -170 -122 -269t-300 -99q-181 0 -299.5 98t-118.5 270zM227 1427h150q3 -47 43.5 -88t101.5 -41q68 0 108 41t40 88h145q-3 -35 -12.5 -68.5t-31 -70t-52.5 -63.5t-82 -44.5 t-115 -17.5t-116 17.5t-84 45t-54 63t-31 70t-10 68.5zM274 393q0 -125 67.5 -182t178.5 -57q44 0 85.5 13t78 40t58.5 75t22 111v230q0 63 -22 111t-58.5 75t-78 40t-85.5 13q-45 0 -86.5 -13t-78.5 -40t-59 -75t-22 -111v-230z" />
<glyph unicode="&#x150;" horiz-adv-x="1255" d="M106 461v487q0 213 145 345t376 132q228 0 375 -132.5t147 -344.5v-487q0 -214 -148 -344.5t-374 -130.5q-232 0 -376.5 129.5t-144.5 345.5zM297 483q0 -84 26.5 -147.5t73 -101t104.5 -56t126 -18.5q145 0 238 80t93 243v443q0 83 -26 146.5t-72 101.5t-105 57.5 t-128 19.5t-127.5 -19.5t-104.5 -57.5t-72 -101.5t-26 -146.5v-443zM358 1597l304 250l120 -125l-348 -211zM672 1597l303 250l121 -125l-348 -211z" />
<glyph unicode="&#x151;" horiz-adv-x="1034" d="M98 358v295q0 113 57.5 199t152.5 130t210 44q187 0 303.5 -100.5t116.5 -272.5v-295q0 -170 -122 -269t-300 -99q-181 0 -299.5 98t-118.5 270zM274 393q0 -125 67.5 -182t178.5 -57q44 0 85.5 13t78 40t58.5 75t22 111v230q0 63 -22 111t-58.5 75t-78 40t-85.5 13 q-45 0 -86.5 -13t-78.5 -40t-59 -75t-22 -111v-230zM313 1169l148 363l166 -51l-205 -353zM580 1169l147 363l166 -51l-205 -353z" />
<glyph unicode="&#x152;" horiz-adv-x="1802" d="M106 461v487q0 213 145 345t376 132q90 0 159 -14h943v-172h-754v-448h645v-170h-645v-451h754v-170h-943q-71 -14 -159 -14q-232 0 -376.5 129.5t-144.5 345.5zM297 483q0 -84 26.5 -147.5t73 -101t104.5 -56t126 -18.5q94 0 159 24v1043q-65 24 -159 24 q-69 0 -127.5 -19.5t-104.5 -57.5t-72 -101.5t-26 -146.5v-443z" />
<glyph unicode="&#x153;" horiz-adv-x="1656" d="M98 358v295q0 113 57.5 199t152.5 130t210 44q222 0 336 -133q115 131 320 131q184 0 296.5 -103t112.5 -278v-201h-643v-67q0 -114 72.5 -169.5t181.5 -55.5q145 0 250 100l110 -121q-136 -139 -364 -139q-105 0 -194 33t-146 98q-58 -64 -145.5 -97.5t-188.5 -33.5 q-181 0 -299.5 98t-118.5 270zM274 393q0 -125 67.5 -182t178.5 -57q42 0 82.5 12.5t76.5 37.5t59.5 70.5t25.5 104.5v250q-3 118 -76 175.5t-168 57.5q-45 0 -86.5 -13t-78.5 -40t-59 -75t-22 -111v-230zM942 586h463v39q0 121 -64.5 180t-166.5 59q-99 0 -165.5 -60 t-66.5 -173v-45z" />
<glyph unicode="&#x154;" horiz-adv-x="1171" d="M117 0v1411h585q82 0 150 -24.5t114 -66t77.5 -96.5t46 -114t14.5 -121q0 -121 -67.5 -230t-182.5 -157l264 -602h-209l-239 567h-365v-567h-188zM305 741h359q112 0 181.5 67t69.5 181q0 113 -70 181.5t-181 68.5h-359v-498zM471 1597l303 250l121 -125l-348 -211z" />
<glyph unicode="&#x155;" horiz-adv-x="679" d="M133 0v1016h156l18 -150h2q64 63 165 112.5t198 49.5v-186q-215 -19 -363 -115v-727h-176zM248 1169l147 363l166 -51l-205 -353z" />
<glyph unicode="&#x156;" horiz-adv-x="1171" d="M117 0v1411h585q82 0 150 -24.5t114 -66t77.5 -96.5t46 -114t14.5 -121q0 -121 -67.5 -230t-182.5 -157l264 -602h-209l-239 567h-365v-567h-188zM305 741h359q112 0 181.5 67t69.5 181q0 113 -70 181.5t-181 68.5h-359v-498zM434 -451q37 29 54.5 45.5t32.5 46t18 68.5 q-42 3 -68.5 37.5t-26.5 81.5t34 83t89 36q70 0 105 -50t35 -114q0 -107 -60.5 -189t-150.5 -124z" />
<glyph unicode="&#x157;" horiz-adv-x="679" d="M74 -492q37 28 54.5 45t32 46.5t17.5 68.5q-42 3 -68 37.5t-26 81.5t34 83t89 36q70 0 104.5 -49.5t34.5 -114.5q0 -107 -60.5 -189t-150.5 -124zM133 0v1016h156l18 -150h2q64 63 165 112.5t198 49.5v-186q-215 -19 -363 -115v-727h-176z" />
<glyph unicode="&#x158;" horiz-adv-x="1171" d="M117 0v1411h585q82 0 150 -24.5t114 -66t77.5 -96.5t46 -114t14.5 -121q0 -121 -67.5 -230t-182.5 -157l264 -602h-209l-239 567h-365v-567h-188zM186 1784l60 78l295 -179l293 177l61 -80l-293 -260h-108zM305 741h359q112 0 181.5 67t69.5 181q0 113 -70 181.5 t-181 68.5h-359v-498z" />
<glyph unicode="&#x159;" horiz-adv-x="679" d="M-12 1446l80 78l274 -219l272 217l82 -80l-293 -309h-108zM133 0v1016h156l18 -150h2q64 63 165 112.5t198 49.5v-186q-215 -19 -363 -115v-727h-176z" />
<glyph unicode="&#x15a;" horiz-adv-x="1138" d="M53 162l107 135q202 -139 415 -139q143 0 225.5 62t82.5 171q0 53 -22.5 94t-47 63.5t-81.5 44t-83 27.5t-95 20q-9 2 -13 3q-73 14 -130.5 32t-116 49t-97.5 71t-63.5 101t-24.5 136q0 180 123.5 293t332.5 113q281 0 463 -111l-88 -160q-168 99 -377 99 q-116 0 -193 -62t-77 -176q0 -31 10.5 -57.5t25.5 -45.5t42 -35.5t48 -26.5t57 -21t57 -16t57 -13q6 -1 10 -2l8 -2q53 -12 88.5 -21t83.5 -24t80 -31.5t69 -39.5t61 -52t44.5 -65t30.5 -83t10 -102q0 -187 -137 -295t-365 -108q-296 0 -520 174zM451 1597l303 250l120 -125 l-348 -211z" />
<glyph unicode="&#x15b;" horiz-adv-x="929" d="M57 121l97 129q132 -111 329 -111q84 0 146.5 39.5t62.5 116.5q0 60 -43 91t-123 44q-178 30 -246 54q-153 55 -180 176q-6 29 -6 61q0 138 106.5 221.5t264.5 83.5q117 0 205 -24.5t168 -81.5l-88 -132q-131 82 -285 82q-89 0 -145 -41.5t-56 -105.5q0 -43 33.5 -70.5 t87 -41.5t118 -25.5t129 -29.5t118 -46.5t87 -84t33.5 -134.5q0 -139 -112.5 -221t-290.5 -82q-237 0 -410 133zM395 1169l148 363l166 -51l-205 -353z" />
<glyph unicode="&#x15c;" horiz-adv-x="1138" d="M53 162l107 135q202 -139 415 -139q143 0 225.5 62t82.5 171q0 53 -22.5 94t-47 63.5t-81.5 44t-83 27.5t-95 20q-9 2 -13 3q-73 14 -130.5 32t-116 49t-97.5 71t-63.5 101t-24.5 136q0 180 123.5 293t332.5 113q281 0 463 -111l-88 -160q-168 99 -377 99 q-116 0 -193 -62t-77 -176q0 -31 10.5 -57.5t25.5 -45.5t42 -35.5t48 -26.5t57 -21t57 -16t57 -13q6 -1 10 -2l8 -2q53 -12 88.5 -21t83.5 -24t80 -31.5t69 -39.5t61 -52t44.5 -65t30.5 -83t10 -102q0 -187 -137 -295t-365 -108q-296 0 -520 174zM217 1591l307 262h109 l293 -258l-62 -79l-293 176l-295 -179z" />
<glyph unicode="&#x15d;" horiz-adv-x="929" d="M57 121l97 129q132 -111 329 -111q84 0 146.5 39.5t62.5 116.5q0 60 -43 91t-123 44q-178 30 -246 54q-153 55 -180 176q-6 29 -6 61q0 138 106.5 221.5t264.5 83.5q117 0 205 -24.5t168 -81.5l-88 -132q-131 82 -285 82q-89 0 -145 -41.5t-56 -105.5q0 -43 33.5 -70.5 t87 -41.5t118 -25.5t129 -29.5t118 -46.5t87 -84t33.5 -134.5q0 -139 -112.5 -221t-290.5 -82q-237 0 -410 133zM121 1208l307 314h109l292 -310l-81 -79l-273 217l-274 -220z" />
<glyph unicode="&#x15e;" horiz-adv-x="1138" d="M53 162l107 135q202 -139 415 -139q143 0 225.5 62t82.5 171q0 53 -22.5 94t-47 63.5t-81.5 44t-83 27.5t-95 20q-9 2 -13 3q-73 14 -130.5 32t-116 49t-97.5 71t-63.5 101t-24.5 136q0 180 123.5 293t332.5 113q281 0 463 -111l-88 -160q-168 99 -377 99 q-116 0 -193 -62t-77 -176q0 -31 10.5 -57.5t25.5 -45.5t42 -35.5t48 -26.5t57 -21t57 -16t57 -13q6 -1 10 -2l8 -2q53 -12 88.5 -21t83.5 -24t80 -31.5t69 -39.5t61 -52t44.5 -65t30.5 -83t10 -102q0 -182 -129.5 -289.5t-347.5 -113.5l-20 -68q56 -3 98 -20.5t64 -44 t32 -53.5t10 -54q0 -65 -52.5 -117.5t-158.5 -52.5q-111 0 -194 33l33 86q79 -25 153 -25q49 0 75 21t26 53q0 31 -24.5 56.5t-78.5 25.5q-15 0 -29 -2l-63 37l37 127q-253 15 -453 172z" />
<glyph unicode="&#x15f;" horiz-adv-x="929" d="M57 121l97 129q132 -111 329 -111q84 0 146.5 39.5t62.5 116.5q0 60 -43 91t-123 44q-178 30 -246 54q-153 55 -180 176q-6 29 -6 61q0 138 106.5 221.5t264.5 83.5q117 0 205 -24.5t168 -81.5l-88 -132q-131 82 -285 82q-89 0 -145 -41.5t-56 -105.5q0 -43 33.5 -70.5 t87 -41.5t118 -25.5t129 -29.5t118 -46.5t87 -84t33.5 -134.5q0 -132 -103 -212.5t-269 -88.5l-21 -70q56 -3 98 -20.5t64 -44t32.5 -53.5t10.5 -54q0 -65 -52.5 -117.5t-158.5 -52.5q-112 0 -195 33l33 86q79 -25 154 -25q49 0 74.5 20.5t25.5 53.5q0 31 -24 56.5t-78 25.5 q-15 0 -29 -2l-63 37l37 127q-199 13 -349 131z" />
<glyph unicode="&#x160;" horiz-adv-x="1138" d="M53 162l107 135q202 -139 415 -139q143 0 225.5 62t82.5 171q0 53 -22.5 94t-47 63.5t-81.5 44t-83 27.5t-95 20q-9 2 -13 3q-73 14 -130.5 32t-116 49t-97.5 71t-63.5 101t-24.5 136q0 180 123.5 293t332.5 113q281 0 463 -111l-88 -160q-168 99 -377 99 q-116 0 -193 -62t-77 -176q0 -31 10.5 -57.5t25.5 -45.5t42 -35.5t48 -26.5t57 -21t57 -16t57 -13q6 -1 10 -2l8 -2q53 -12 88.5 -21t83.5 -24t80 -31.5t69 -39.5t61 -52t44.5 -65t30.5 -83t10 -102q0 -187 -137 -295t-365 -108q-296 0 -520 174zM231 1784l60 78l295 -179 l293 177l61 -80l-293 -260h-108z" />
<glyph unicode="&#x161;" horiz-adv-x="929" d="M57 121l97 129q132 -111 329 -111q84 0 146.5 39.5t62.5 116.5q0 60 -43 91t-123 44q-178 30 -246 54q-153 55 -180 176q-6 29 -6 61q0 138 106.5 221.5t264.5 83.5q117 0 205 -24.5t168 -81.5l-88 -132q-131 82 -285 82q-89 0 -145 -41.5t-56 -105.5q0 -43 33.5 -70.5 t87 -41.5t118 -25.5t129 -29.5t118 -46.5t87 -84t33.5 -134.5q0 -139 -112.5 -221t-290.5 -82q-237 0 -410 133zM127 1446l80 78l274 -219l273 217l82 -80l-293 -309h-109z" />
<glyph unicode="&#x162;" horiz-adv-x="1069" d="M33 1237v174h1003v-174h-405v-1237h-49l-25 -80q56 -3 98 -20.5t64 -44t32.5 -53.5t10.5 -54q0 -65 -52.5 -117.5t-158.5 -52.5q-112 0 -195 33l33 86q79 -25 154 -25q49 0 74.5 20.5t25.5 53.5q0 31 -24 56.5t-78 25.5q-15 0 -29 -2l-63 37l40 137h-49v1237h-407z" />
<glyph unicode="&#x163;" horiz-adv-x="743" d="M61 858v158h148l41 235h129v-235h283v-158h-283v-496q0 -117 38.5 -160.5t117.5 -43.5q43 0 165 16l29 -149q-101 -35 -219 -35q-55 0 -94 8l-25 -78q56 -3 98 -20.5t64 -44t32.5 -53.5t10.5 -54q0 -65 -52.5 -117.5t-158.5 -52.5q-112 0 -195 33l33 86q79 -25 154 -25 q49 0 74.5 20.5t25.5 53.5q0 31 -24 56.5t-78 25.5q-15 0 -29 -2l-63 37l47 160q-65 34 -95 103t-30 183v549h-144z" />
<glyph unicode="&#x164;" horiz-adv-x="1069" d="M33 1237v174h1003v-174h-405v-1237h-191v1237h-407zM188 1784l60 78l295 -179l293 177l61 -80l-293 -260h-108z" />
<glyph unicode="&#x165;" horiz-adv-x="753" d="M61 858v158h148l41 235h129v-235h283v-158h-283v-496q0 -117 38.5 -160.5t117.5 -43.5q43 0 165 16l29 -149q-101 -35 -219 -35q-162 0 -233.5 74t-71.5 245v549h-144zM489 1186q37 29 54.5 45.5t32.5 46t18 68.5q-42 3 -68 37t-26 81t34 83t89 36q70 0 104.5 -49.5 t34.5 -114.5q0 -107 -60.5 -189t-150.5 -124z" />
<glyph unicode="&#x166;" horiz-adv-x="1069" d="M33 1237v174h1003v-174h-405v-412h299v-143h-299v-682h-191v682h-305v143h305v412h-407z" />
<glyph unicode="&#x167;" horiz-adv-x="743" d="M61 500v137h144v221h-144v158h148l41 235h129v-235h283v-158h-283v-221h283v-137h-283v-138q0 -117 38.5 -160.5t117.5 -43.5q43 0 165 16l29 -149q-101 -35 -219 -35q-162 0 -233.5 74t-71.5 245v191h-144z" />
<glyph unicode="&#x168;" horiz-adv-x="1249" d="M106 446v965h191v-930q0 -84 26.5 -147.5t73 -101t104.5 -56t126 -18.5q66 0 124 18.5t105 56t74.5 101t27.5 147.5v930h191v-965q0 -141 -72 -247t-189.5 -159.5t-260.5 -53.5q-144 0 -261 53.5t-188.5 159.5t-71.5 247zM262 1597q41 86 100 134.5t121 48.5 q52 0 147 -48.5t128 -48.5q64 0 125 93l106 -60q-86 -182 -219 -182q-51 0 -142.5 43t-129.5 43q-35 0 -62.5 -18t-66.5 -64z" />
<glyph unicode="&#x169;" horiz-adv-x="1034" d="M98 352v664h176v-645q0 -112 49.5 -163.5t133.5 -49.5q61 0 142 33t163 92v733h176v-1016h-156l-20 109q-116 -71 -188 -95t-134 -24q-161 0 -251.5 95.5t-90.5 266.5zM150 1249q41 86 100 134.5t121 48.5q52 0 146.5 -48.5t127.5 -48.5q65 0 125 92l107 -59 q-86 -182 -220 -182q-51 0 -142.5 43t-129.5 43q-35 0 -62.5 -18t-66.5 -64z" />
<glyph unicode="&#x16a;" horiz-adv-x="1249" d="M106 446v965h191v-930q0 -84 26.5 -147.5t73 -101t104.5 -56t126 -18.5q66 0 124 18.5t105 56t74.5 101t27.5 147.5v930h191v-965q0 -141 -72 -247t-189.5 -159.5t-260.5 -53.5q-144 0 -261 53.5t-188.5 159.5t-71.5 247zM348 1597v154h549v-154h-549z" />
<glyph unicode="&#x16b;" horiz-adv-x="1034" d="M98 352v664h176v-645q0 -112 49.5 -163.5t133.5 -49.5q61 0 142 33t163 92v733h176v-1016h-156l-20 109q-116 -71 -188 -95t-134 -24q-161 0 -251.5 95.5t-90.5 266.5zM248 1229v153h549v-153h-549z" />
<glyph unicode="&#x16c;" horiz-adv-x="1249" d="M106 446v965h191v-930q0 -84 26.5 -147.5t73 -101t104.5 -56t126 -18.5q66 0 124 18.5t105 56t74.5 101t27.5 147.5v930h191v-965q0 -141 -72 -247t-189.5 -159.5t-260.5 -53.5q-144 0 -261 53.5t-188.5 159.5t-71.5 247zM338 1735h149q3 -46 44 -87.5t102 -41.5 q68 0 107.5 41t39.5 88h146q-3 -35 -12.5 -68.5t-31 -70.5t-52.5 -64t-82 -44.5t-115 -17.5q-79 0 -139 26t-92 67.5t-47.5 84.5t-16.5 87z" />
<glyph unicode="&#x16d;" horiz-adv-x="1034" d="M98 352v664h176v-645q0 -112 49.5 -163.5t133.5 -49.5q61 0 142 33t163 92v733h176v-1016h-156l-20 109q-116 -71 -188 -95t-134 -24q-161 0 -251.5 95.5t-90.5 266.5zM233 1427h150q3 -47 43.5 -88t101.5 -41q68 0 108 41t40 88h145q-3 -35 -12.5 -68.5t-31 -70 t-52.5 -63.5t-82 -44.5t-115 -17.5t-116 17.5t-84 45t-54 63t-31 70t-10 68.5z" />
<glyph unicode="&#x16e;" horiz-adv-x="1249" d="M106 446v965h191v-930q0 -84 26.5 -147.5t73 -101t104.5 -56t126 -18.5q66 0 124 18.5t105 56t74.5 101t27.5 147.5v930h191v-965q0 -141 -72 -247t-189.5 -159.5t-260.5 -53.5q-144 0 -261 53.5t-188.5 159.5t-71.5 247zM428 1651q0 87 62.5 148t150.5 61t149.5 -60.5 t61.5 -148.5t-61.5 -149.5t-149.5 -61.5t-150.5 61.5t-62.5 149.5zM526 1651q0 -47 34 -80t81 -33t80 33t33 80q0 46 -33 78t-80 32t-81 -32t-34 -78z" />
<glyph unicode="&#x16f;" horiz-adv-x="1034" d="M98 352v664h176v-645q0 -112 49.5 -163.5t133.5 -49.5q61 0 142 33t163 92v733h176v-1016h-156l-20 109q-116 -71 -188 -95t-134 -24q-161 0 -251.5 95.5t-90.5 266.5zM309 1319q0 87 62.5 148t150.5 61t149.5 -60.5t61.5 -148.5t-61.5 -149.5t-149.5 -61.5t-150.5 61.5 t-62.5 149.5zM408 1319q0 -47 33.5 -80t80.5 -33t80 33t33 80q0 46 -33 78.5t-80 32.5t-80.5 -32.5t-33.5 -78.5z" />
<glyph unicode="&#x170;" horiz-adv-x="1249" d="M106 446v965h191v-930q0 -84 26.5 -147.5t73 -101t104.5 -56t126 -18.5q66 0 124 18.5t105 56t74.5 101t27.5 147.5v930h191v-965q0 -141 -72 -247t-189.5 -159.5t-260.5 -53.5q-144 0 -261 53.5t-188.5 159.5t-71.5 247zM383 1597l303 250l121 -125l-348 -211zM696 1597 l303 250l121 -125l-348 -211z" />
<glyph unicode="&#x171;" horiz-adv-x="1034" d="M98 352v664h176v-645q0 -112 49.5 -163.5t133.5 -49.5q61 0 142 33t163 92v733h176v-1016h-156l-20 109q-116 -71 -188 -95t-134 -24q-161 0 -251.5 95.5t-90.5 266.5zM319 1169l148 363l166 -51l-205 -353zM586 1169l147 363l166 -51l-205 -353z" />
<glyph unicode="&#x172;" horiz-adv-x="1249" d="M106 446v965h191v-930q0 -84 26.5 -147.5t73 -101t104.5 -56t126 -18.5q66 0 124 18.5t105 56t74.5 101t27.5 147.5v930h191v-965q0 -97 -35.5 -179.5t-97.5 -139.5t-144 -92.5t-176 -44.5q-55 -78 -55 -144q0 -43 26 -66.5t72 -23.5q36 0 115 37l43 -106 q-95 -52 -190 -52q-86 0 -142.5 53t-56.5 128q0 78 63 172q-202 16 -333.5 138t-131.5 320z" />
<glyph unicode="&#x173;" horiz-adv-x="1034" d="M98 352v664h176v-645q0 -112 49.5 -163.5t133.5 -49.5q61 0 142 33t163 92v733h176v-1016h-37q-61 -87 -61 -154q0 -43 26 -66.5t72 -23.5q36 0 115 37l43 -106q-95 -52 -191 -52q-86 0 -142 53t-56 128q0 84 73 188l-18 105q-116 -71 -188 -95t-134 -24 q-161 0 -251.5 95.5t-90.5 266.5z" />
<glyph unicode="&#x174;" horiz-adv-x="1765" d="M20 1411h205l160 -649l111 -467h10l112 469l164 647h199l168 -668l108 -448h11l106 455l164 661h205l-373 -1411h-213l-166 639l-102 434h-12l-107 -442l-164 -631h-213zM528 1591l308 262h108l293 -258l-61 -79l-293 176l-295 -179z" />
<glyph unicode="&#x175;" horiz-adv-x="1437" d="M41 1016h182l94 -369l97 -381h8l121 371l96 281h178l107 -320l106 -332h10l88 359l99 391h174l-275 -1016h-168l-124 379l-105 317h-8l-103 -323l-120 -373h-168zM367 1208l307 314h108l293 -310l-82 -79l-272 217l-275 -220z" />
<glyph unicode="&#x176;" horiz-adv-x="1099" d="M25 1411h206l164 -336l148 -330h14l152 340l159 326h205l-428 -868v-543h-190v541zM195 1591l307 262h108l293 -258l-61 -79l-293 176l-295 -179z" />
<glyph unicode="&#x177;" horiz-adv-x="958" d="M20 1016h191l123 -447l112 -405h7l143 405l154 447h188l-518 -1428h-189l150 430l-86 72zM111 1208l307 314h108l293 -310l-82 -79l-272 217l-275 -220z" />
<glyph unicode="&#x178;" horiz-adv-x="1099" d="M25 1411h206l164 -336l148 -330h14l152 340l159 326h205l-428 -868v-543h-190v541zM250 1661q0 40 29 69t69 29q41 0 71 -29t30 -69q0 -41 -30 -70.5t-71 -29.5q-40 0 -69 29.5t-29 70.5zM649 1661q0 40 30 69t71 29t70.5 -29t29.5 -69q0 -41 -29.5 -70.5t-70.5 -29.5 t-71 29.5t-30 70.5z" />
<glyph unicode="&#x179;" horiz-adv-x="1071" d="M76 0v166l696 1073h-668v172h895v-162l-704 -1079h702v-170h-921zM412 1597l303 250l121 -125l-349 -211z" />
<glyph unicode="&#x17a;" horiz-adv-x="921" d="M84 0v139l534 719h-505v156h729v-144l-535 -714h535v-156h-758zM395 1169l148 363l166 -51l-205 -353z" />
<glyph unicode="&#x17b;" horiz-adv-x="1071" d="M76 0v166l696 1073h-668v172h895v-162l-704 -1079h702v-170h-921zM455 1667q0 42 28.5 74.5t77.5 32.5q52 0 83.5 -32.5t31.5 -74.5q0 -48 -31 -80.5t-84 -32.5q-51 0 -78.5 31t-27.5 82z" />
<glyph unicode="&#x17c;" horiz-adv-x="921" d="M84 0v139l534 719h-505v156h729v-144l-535 -714h535v-156h-758zM385 1319q0 42 29 74t78 32q52 0 83 -32t31 -74q0 -48 -30.5 -80.5t-83.5 -32.5q-51 0 -79 31t-28 82z" />
<glyph unicode="&#x17d;" horiz-adv-x="1071" d="M76 0v166l696 1073h-668v172h895v-162l-704 -1079h702v-170h-921zM182 1784l60 78l295 -179l292 177l62 -80l-293 -260h-109z" />
<glyph unicode="&#x17e;" horiz-adv-x="921" d="M84 0v139l534 719h-505v156h729v-144l-535 -714h535v-156h-758zM119 1446l80 78l274 -219l272 217l82 -80l-292 -309h-109z" />
<glyph unicode="&#x192;" horiz-adv-x="1024" d="M-2 -145l51 137q71 -27 123 -27q81 0 123 73t63 212l68 469h-178l-2 141h200l23 150q9 62 24 116.5t45 113t70 100t103 68t141 26.5q90 0 164 -29l-39 -154q-59 21 -133 21q-160 0 -195 -252l-22 -160h217l2 -141h-240l-65 -467q-28 -211 -108.5 -323.5t-239.5 -112.5 q-98 0 -195 39z" />
<glyph unicode="&#x1a0;" horiz-adv-x="1255" d="M106 461v487q0 213 145 345t376 132q179 0 317 -88q82 2 112.5 45t30.5 160v43h158v-67q0 -249 -172 -308q76 -120 76 -262v-487q0 -214 -148 -344.5t-374 -130.5q-232 0 -376.5 129.5t-144.5 345.5zM297 483q0 -84 26.5 -147.5t73 -101t104.5 -56t126 -18.5 q145 0 238 80t93 243v443q0 83 -26 146.5t-72 101.5t-105 57.5t-128 19.5t-127.5 -19.5t-104.5 -57.5t-72 -101.5t-26 -146.5v-443z" />
<glyph unicode="&#x1a1;" horiz-adv-x="1120" d="M98 358v295q0 113 57.5 199t152.5 130t210 44q178 0 293 -92q74 5 102.5 49t28.5 156v43h158v-68q0 -256 -191 -313q29 -69 29 -148v-295q0 -170 -122 -269t-300 -99q-181 0 -299.5 98t-118.5 270zM274 393q0 -125 67.5 -182t178.5 -57q44 0 85.5 13t78 40t58.5 75 t22 111v230q0 63 -22 111t-58.5 75t-78 40t-85.5 13q-45 0 -86.5 -13t-78.5 -40t-59 -75t-22 -111v-230z" />
<glyph unicode="&#x1af;" horiz-adv-x="1366" d="M106 446v965h191v-930q0 -84 26.5 -147.5t73 -101t104.5 -56t126 -18.5q66 0 124 18.5t105 56t74.5 101t27.5 147.5v930h191v-72q60 9 84 54.5t24 148.5v43h158v-67q0 -152 -64.5 -233t-201.5 -93v-746q0 -141 -72 -247t-189.5 -159.5t-260.5 -53.5q-144 0 -261 53.5 t-188.5 159.5t-71.5 247z" />
<glyph unicode="&#x1b0;" horiz-adv-x="1183" d="M98 352v664h176v-645q0 -112 49.5 -163.5t133.5 -49.5q61 0 142 33t163 92v733h176v-78q55 10 76.5 55.5t21.5 145.5v43h158v-68q0 -149 -62.5 -230t-193.5 -96v-788h-156l-20 109q-116 -71 -188 -95t-134 -24q-161 0 -251.5 95.5t-90.5 266.5z" />
<glyph unicode="&#x1fc;" horiz-adv-x="2000" d="M4 0l909 1411h1035v-172h-754v-448h645v-170h-645v-451h754v-170h-942v418h-531l-266 -418h-205zM575 573h431v666zM1251 1597l303 250l121 -125l-348 -211z" />
<glyph unicode="&#x1fd;" horiz-adv-x="1636" d="M80 297q0 64 25.5 116.5t65 86t89.5 56.5t97.5 32.5t91.5 9.5h296v78q-3 107 -65 148.5t-174 41.5q-161 0 -275 -94l-86 133q159 121 369 121q227 0 330 -125q117 123 311 123q184 0 297 -103t113 -278v-190h-643v-78q0 -114 72.5 -169.5t181.5 -55.5q144 0 249 100 l111 -121q-136 -139 -365 -139q-115 0 -209 39t-151 114l-72 -45q-111 -63 -187.5 -84.5t-148.5 -21.5q-148 0 -235.5 82t-87.5 223zM260 297q0 -71 49 -109t129 -38q111 0 307 110v193h-268q-217 0 -217 -156zM805 1169l147 363l166 -51l-205 -353zM924 596h462v29 q0 121 -64.5 180t-166.5 59q-99 0 -165 -60t-66 -173v-35z" />
<glyph unicode="&#x1fe;" horiz-adv-x="1255" d="M106 47l89 127q-89 119 -89 287v487q0 213 145 345t376 132q209 0 352 -114l80 114l90 -59l-92 -133q92 -126 92 -285v-487q0 -214 -148 -344.5t-374 -130.5q-219 0 -357 110l-75 -108zM297 483q0 -77 20 -133l557 809q-89 92 -247 92q-69 0 -127.5 -19.5t-104.5 -57.5 t-72 -101.5t-26 -146.5v-443zM377 252q85 -92 250 -92q145 0 238 80t93 243v443q0 72 -22 133zM512 1597l303 250l121 -125l-348 -211z" />
<glyph unicode="&#x1ff;" horiz-adv-x="1034" d="M98 45l72 92q-72 91 -72 221v295q0 113 57.5 199t152.5 130t210 44q168 0 279 -82l63 82l78 -55l-72 -92q72 -94 72 -226v-295q0 -170 -122 -269t-300 -99q-164 0 -276 80l-66 -86zM274 393q0 -59 15 -102l399 514q-68 57 -168 57q-45 0 -86.5 -13t-78.5 -40t-59 -75 t-22 -111v-230zM346 207q58 -53 174 -53q44 0 85.5 13t78 40t58.5 75t22 111v230q0 54 -19 100zM442 1169l148 363l166 -51l-205 -353z" />
<glyph unicode="&#x218;" horiz-adv-x="1138" d="M53 162l107 135q202 -139 415 -139q143 0 225.5 62t82.5 171q0 53 -22.5 94t-47 63.5t-81.5 44t-83 27.5t-95 20q-9 2 -13 3q-73 14 -130.5 32t-116 49t-97.5 71t-63.5 101t-24.5 136q0 180 123.5 293t332.5 113q281 0 463 -111l-88 -160q-168 99 -377 99 q-116 0 -193 -62t-77 -176q0 -31 10.5 -57.5t25.5 -45.5t42 -35.5t48 -26.5t57 -21t57 -16t57 -13q6 -1 10 -2l8 -2q53 -12 88.5 -21t83.5 -24t80 -31.5t69 -39.5t61 -52t44.5 -65t30.5 -83t10 -102q0 -187 -137 -295t-365 -108q-296 0 -520 174zM432 -492q37 29 54.5 45.5 t32.5 46t18 68.5q-42 3 -68.5 37.5t-26.5 81.5t34 83t89 36q70 0 105 -50t35 -114q0 -107 -60.5 -189t-150.5 -124z" />
<glyph unicode="&#x219;" horiz-adv-x="929" d="M57 121l97 129q132 -111 329 -111q84 0 146.5 39.5t62.5 116.5q0 60 -43 91t-123 44q-178 30 -246 54q-153 55 -180 176q-6 29 -6 61q0 138 106.5 221.5t264.5 83.5q117 0 205 -24.5t168 -81.5l-88 -132q-131 82 -285 82q-89 0 -145 -41.5t-56 -105.5q0 -43 33.5 -70.5 t87 -41.5t118 -25.5t129 -29.5t118 -46.5t87 -84t33.5 -134.5q0 -139 -112.5 -221t-290.5 -82q-237 0 -410 133zM334 -492q37 28 54.5 45t32 46.5t17.5 68.5q-42 3 -68 37.5t-26 81.5t34 83t89 36q70 0 104.5 -49.5t34.5 -114.5q0 -107 -60.5 -189t-150.5 -124z" />
<glyph unicode="&#x21a;" horiz-adv-x="1069" d="M33 1237v174h1003v-174h-405v-1237h-191v1237h-407zM399 -492q37 29 54.5 45.5t32.5 46t18 68.5q-42 3 -68 37.5t-26 81.5t34 83t88 36q70 0 105 -50t35 -114q0 -107 -60.5 -189t-150.5 -124z" />
<glyph unicode="&#x21b;" horiz-adv-x="743" d="M61 858v158h148l41 235h129v-235h283v-158h-283v-496q0 -117 38.5 -160.5t117.5 -43.5q43 0 165 16l29 -149q-101 -35 -219 -35q-162 0 -233.5 74t-71.5 245v549h-144zM215 -492q37 28 54.5 45t32 46.5t17.5 68.5q-42 3 -68 37.5t-26 81.5t34 83t89 36q70 0 104.5 -49.5 t34.5 -114.5q0 -107 -60.5 -189t-150.5 -124z" />
<glyph unicode="&#x259;" horiz-adv-x="989" d="M88 373v200h643v68q0 116 -63 170.5t-170 54.5q-63 0 -134 -23t-128 -77l-105 121q84 78 173 108.5t198 30.5q180 0 292.5 -96t112.5 -275v-268q0 -180 -113.5 -287.5t-295.5 -107.5q-184 0 -297 103t-113 278zM266 391q0 -121 64.5 -180t167.5 -59q99 0 165 60t66 173 v45h-463v-39z" />
<glyph unicode="&#x2b9;" horiz-adv-x="552" d="M96 864l203 557l197 -49l-283 -545z" />
<glyph unicode="&#x2c6;" horiz-adv-x="1005" d="M162 1208l307 314h109l292 -310l-82 -79l-272 217l-274 -220z" />
<glyph unicode="&#x2c7;" horiz-adv-x="1005" d="M162 1446l80 78l274 -219l272 217l82 -80l-292 -309h-109z" />
<glyph unicode="&#x2d8;" horiz-adv-x="1046" d="M260 1427h150q3 -47 43.5 -88t101.5 -41q68 0 107.5 41t39.5 88h146q-3 -35 -12.5 -68.5t-31 -70t-52.5 -63.5t-82 -44.5t-115 -17.5t-116 17.5t-84 45t-54 63t-31 70t-10 68.5z" />
<glyph unicode="&#x2d9;" horiz-adv-x="1005" d="M397 1319q0 42 29 74t78 32q52 0 83 -32t31 -74q0 -48 -30.5 -80.5t-83.5 -32.5q-51 0 -79 31t-28 82z" />
<glyph unicode="&#x2da;" horiz-adv-x="1005" d="M311 1319q0 87 62.5 148t150.5 61t149.5 -60.5t61.5 -148.5t-61.5 -149.5t-149.5 -61.5t-150.5 61.5t-62.5 149.5zM410 1319q0 -47 33.5 -80t80.5 -33t80 33t33 80q0 46 -33 78.5t-80 32.5t-80.5 -32.5t-33.5 -78.5z" />
<glyph unicode="&#x2db;" horiz-adv-x="575" d="M121 -188q0 83 78 192h118l2 -4q-65 -91 -65 -158q0 -43 26 -66.5t72 -23.5q36 0 115 37l43 -106q-95 -52 -191 -52q-86 0 -142 53t-56 128z" />
<glyph unicode="&#x2dc;" horiz-adv-x="1005" d="M137 1249q41 86 100 134.5t121 48.5q52 0 147 -48.5t128 -48.5q65 0 125 92l106 -59q-86 -182 -219 -182q-51 0 -142.5 43t-129.5 43q-35 0 -62.5 -18t-66.5 -64z" />
<glyph unicode="&#x2dd;" horiz-adv-x="1153" d="M313 1169l148 363l166 -51l-205 -353zM580 1169l147 363l166 -51l-205 -353z" />
<glyph unicode="&#x384;" horiz-adv-x="1005" d="M395 1169l148 363l166 -51l-205 -353z" />
<glyph unicode="&#x385;" horiz-adv-x="1001" d="M182 1309q0 40 29.5 69t69.5 29q41 0 70.5 -29t29.5 -69q0 -41 -29.5 -71t-70.5 -30q-40 0 -69.5 30t-29.5 71zM367 1169l147 363l166 -51l-205 -353zM635 1309q0 40 29.5 69t70.5 29t71 -29t30 -69q0 -41 -30 -71t-71 -30t-70.5 30t-29.5 71z" />
<glyph unicode="&#x386;" horiz-adv-x="1222" d="M-51 1108l147 362l166 -51l-205 -352zM27 0l491 1411h191l493 -1411h-198l-111 317h-561l-109 -317h-196zM393 489h441l-113 336l-105 328h-8l-102 -328z" />
<glyph unicode="&#x387;" horiz-adv-x="512" d="M133 733q0 46 31.5 81.5t85.5 35.5q57 0 91 -35.5t34 -81.5q0 -53 -33.5 -88t-91.5 -35q-56 0 -86.5 34t-30.5 89z" />
<glyph unicode="&#x388;" horiz-adv-x="1140" d="M-266 1108l147 362l166 -51l-205 -352zM125 0v1411h942v-172h-754v-448h645v-170h-645v-451h754v-170h-942z" />
<glyph unicode="&#x389;" horiz-adv-x="1263" d="M-289 1108l148 362l166 -51l-205 -352zM111 0v1411h188v-610h662v610h192v-1411h-192v629h-662v-629h-188z" />
<glyph unicode="&#x38a;" horiz-adv-x="516" d="M-233 1108l147 362l166 -51l-205 -352zM164 0v1411h188v-1411h-188z" />
<glyph unicode="&#x38c;" horiz-adv-x="1255" d="M-215 1108l147 362l166 -51l-204 -352zM106 461v487q0 213 145 345t376 132q228 0 375 -132.5t147 -344.5v-487q0 -214 -148 -344.5t-374 -130.5q-232 0 -376.5 129.5t-144.5 345.5zM297 483q0 -84 26.5 -147.5t73 -101t104.5 -56t126 -18.5q145 0 238 80t93 243v443 q0 83 -26 146.5t-72 101.5t-105 57.5t-128 19.5t-127.5 -19.5t-104.5 -57.5t-72 -101.5t-26 -146.5v-443z" />
<glyph unicode="&#x38e;" horiz-adv-x="1099" d="M-319 1108l147 362l166 -51l-205 -352zM25 1411h206l164 -336l148 -330h14l152 340l159 326h205l-428 -868v-543h-190v541z" />
<glyph unicode="&#x38f;" horiz-adv-x="1271" d="M-201 1108l148 362l166 -51l-205 -352zM88 0v168h186q-159 126 -159 332v458q0 139 70.5 246.5t188.5 164t263 56.5q144 0 262 -57t188 -164.5t70 -245.5v-458q0 -207 -158 -332h189v-168h-447v207q97 29 161.5 107.5t64.5 203.5v410q0 82 -26.5 145.5t-73 101.5 t-104.5 57t-126 19q-145 0 -238.5 -81t-93.5 -242v-410q0 -126 64.5 -204t162.5 -107v-207h-444z" />
<glyph unicode="&#x390;" horiz-adv-x="489" d="M-49 1309q0 40 29 69t69 29q41 0 71 -29t30 -69q0 -41 -30 -71t-71 -30q-40 0 -69 30t-29 71zM135 1169l148 363l166 -51l-205 -353zM158 0v1016h174v-1016h-174zM403 1309q0 40 30 69t71 29t70.5 -29t29.5 -69q0 -41 -29.5 -71t-70.5 -30t-71 30t-30 71z" />
<glyph unicode="&#x391;" horiz-adv-x="1222" d="M27 0l491 1411h191l493 -1411h-198l-111 317h-561l-109 -317h-196zM393 489h441l-113 336l-105 328h-8l-102 -328z" />
<glyph unicode="&#x392;" horiz-adv-x="1214" d="M117 0v1411h585q186 0 294 -108t108 -265q0 -202 -174 -299q97 -50 146.5 -138.5t49.5 -186.5q0 -61 -16 -120t-49.5 -112.5t-80 -94t-112.5 -64t-143 -23.5h-608zM307 170h381q123 0 187.5 63.5t64.5 180.5q0 109 -76.5 174t-179.5 65h-377v-483zM307 823h375 q100 0 168 56t68 155q0 105 -68 155t-184 50h-359v-416z" />
<glyph unicode="&#x393;" horiz-adv-x="1050" d="M125 0v1411h942v-172h-754v-1239h-188z" />
<glyph unicode="&#x395;" horiz-adv-x="1140" d="M125 0v1411h942v-172h-754v-448h645v-170h-645v-451h754v-170h-942z" />
<glyph unicode="&#x396;" horiz-adv-x="1071" d="M76 0v166l696 1073h-668v172h895v-162l-704 -1079h702v-170h-921z" />
<glyph unicode="&#x397;" horiz-adv-x="1263" d="M111 0v1411h188v-610h662v610h192v-1411h-192v629h-662v-629h-188z" />
<glyph unicode="&#x398;" horiz-adv-x="1249" d="M106 461v487q0 213 145 345t376 132q228 0 375 -132.5t147 -344.5v-487q0 -214 -148 -344.5t-374 -130.5q-232 0 -376.5 129.5t-144.5 345.5zM297 483q0 -84 26.5 -147.5t73 -101t104.5 -56t126 -18.5q145 0 238 80t93 243v443q0 83 -26 146.5t-72 101.5t-105 57.5 t-128 19.5t-127.5 -19.5t-104.5 -57.5t-72 -101.5t-26 -146.5v-443zM383 621v182h494v-182h-494z" />
<glyph unicode="&#x399;" horiz-adv-x="516" d="M164 0v1411h188v-1411h-188z" />
<glyph unicode="&#x39a;" horiz-adv-x="1171" d="M117 0v1411h188v-733h14l599 733h227l-455 -557l502 -854h-221l-408 698l-258 -307v-391h-188z" />
<glyph unicode="&#x39b;" horiz-adv-x="1222" d="M27 0l491 1411h191l493 -1411h-198l-220 643l-163 502h-17l-160 -494l-221 -651h-196z" />
<glyph unicode="&#x39c;" horiz-adv-x="1519" d="M119 0v1411h180l285 -575l178 -375h12l174 375l281 575h174v-1411h-189v961h-10l-129 -273l-237 -479h-142l-225 440l-154 312h-10v-961h-188z" />
<glyph unicode="&#x39d;" horiz-adv-x="1320" d="M121 0v1411h178l510 -764l188 -293h15v1057h188v-1411h-182l-494 737l-200 310h-15v-1047h-188z" />
<glyph unicode="&#x39e;" horiz-adv-x="1107" d="M88 0v170h369v457h-258v172h258v438h-369v174h924v-174h-381v-438h270v-172h-270v-457h381v-170h-924z" />
<glyph unicode="&#x39f;" horiz-adv-x="1255" d="M106 461v487q0 213 145 345t376 132q228 0 375 -132.5t147 -344.5v-487q0 -214 -148 -344.5t-374 -130.5q-232 0 -376.5 129.5t-144.5 345.5zM297 483q0 -84 26.5 -147.5t73 -101t104.5 -56t126 -18.5q145 0 238 80t93 243v443q0 83 -26 146.5t-72 101.5t-105 57.5 t-128 19.5t-127.5 -19.5t-104.5 -57.5t-72 -101.5t-26 -146.5v-443z" />
<glyph unicode="&#x3a0;" horiz-adv-x="1263" d="M111 0v1411h1042v-1411h-192v1239h-662v-1239h-188z" />
<glyph unicode="&#x3a1;" horiz-adv-x="1134" d="M111 0v1411h585q98 0 176.5 -37.5t126 -98.5t72.5 -134.5t25 -151.5q0 -76 -28 -151t-77.5 -135.5t-127 -98t-167.5 -37.5h-397v-567h-188zM299 741h358q111 0 181.5 67t70.5 181q0 113 -71 181.5t-181 68.5h-358v-498z" />
<glyph unicode="&#x3a3;" horiz-adv-x="1030" d="M63 0v164l340 569l-340 520v158h885v-174h-657l332 -504l-344 -565h688v-168h-904z" />
<glyph unicode="&#x3a4;" horiz-adv-x="1069" d="M33 1237v174h1003v-174h-405v-1237h-191v1237h-407z" />
<glyph unicode="&#x3a5;" horiz-adv-x="1099" d="M25 1411h206l164 -336l148 -330h14l152 340l159 326h205l-428 -868v-543h-190v541z" />
<glyph unicode="&#x3a6;" horiz-adv-x="1581" d="M125 643v199q0 139 68 254.5t199.5 188.5t303.5 79v61h191v-61q129 -4 238 -47t181 -114t112 -164.5t40 -196.5v-193q0 -223 -152 -374t-419 -160v-115h-191v115q-267 9 -419 157t-152 371zM315 653q0 -164 106 -261.5t275 -102.5v901q-171 -5 -276 -105t-105 -262v-170z M887 289q169 5 275 102.5t106 261.5v170q0 162 -105 262t-276 105v-901z" />
<glyph unicode="&#x3a7;" horiz-adv-x="1126" d="M18 0l439 723l-410 688h219l297 -532l299 532h219l-409 -688l438 -723h-219l-328 569l-325 -569h-220z" />
<glyph unicode="&#x3a8;" horiz-adv-x="1525" d="M117 764v647h184v-629q0 -64 23.5 -119.5t62 -93.5t87.5 -66t98.5 -42.5t97.5 -16.5v975h190v-975q45 2 94 15t99 40.5t89.5 64.5t64 92t24.5 118v637h184v-653q0 -136 -81 -246t-206 -170.5t-268 -69.5v-272h-190v274q-107 2 -207 39.5t-176.5 100.5t-123 154.5 t-46.5 195.5z" />
<glyph unicode="&#x3a9;" horiz-adv-x="1271" d="M88 0v168h186q-159 126 -159 332v458q0 139 70.5 246.5t188.5 164t263 56.5q144 0 262 -57t188 -164.5t70 -245.5v-458q0 -207 -158 -332h189v-168h-447v207q97 29 161.5 107.5t64.5 203.5v410q0 82 -26.5 145.5t-73 101.5t-104.5 57t-126 19q-145 0 -238.5 -81 t-93.5 -242v-410q0 -126 64.5 -204t162.5 -107v-207h-444z" />
<glyph unicode="&#x3aa;" horiz-adv-x="516" d="M-45 1647q0 40 29 69t69 29q41 0 71 -29t30 -69q0 -41 -30 -71t-71 -30q-40 0 -69 30t-29 71zM164 0v1411h188v-1411h-188zM354 1647q0 40 30 69t71 29t70.5 -29t29.5 -69q0 -41 -29.5 -71t-70.5 -30t-71 30t-30 71z" />
<glyph unicode="&#x3ab;" horiz-adv-x="1099" d="M25 1411h206l164 -336l148 -330h14l152 340l159 326h205l-428 -868v-543h-190v541zM254 1651q0 40 29 69t69 29q41 0 71 -29t30 -69q0 -41 -30 -71t-71 -30q-40 0 -69 30t-29 71zM653 1651q0 40 30 69t71 29t70.5 -29t29.5 -69q0 -41 -29.5 -71t-70.5 -30t-71 30t-30 71z " />
<glyph unicode="&#x3ac;" horiz-adv-x="1026" d="M92 352v312q0 169 94 265.5t246 96.5q135 0 324 -111l20 99h152v-1014h-154l-20 92q-185 -102 -322 -102q-152 0 -246 96.5t-94 265.5zM268 375q0 -113 48.5 -164t132.5 -49q139 0 305 108v475q-80 50 -165 81.5t-140 31.5q-181 0 -181 -215v-268zM432 1169l148 363 l165 -51l-204 -353z" />
<glyph unicode="&#x3ad;" horiz-adv-x="868" d="M100 295q0 35 12.5 77.5t50 90t93.5 69.5q-141 52 -141 199q0 120 100.5 207.5t271.5 87.5q216 0 349 -125l-105 -121q-94 82 -237 82q-89 0 -148 -36t-59 -101q0 -60 44 -92.5t126 -32.5h166v-145h-181q-81 0 -126.5 -42.5t-45.5 -115.5q0 -62 59.5 -103.5t172.5 -41.5 q155 0 243 88l107 -121q-143 -127 -358 -127q-186 0 -290 82.5t-104 220.5zM377 1169l147 363l166 -51l-205 -353z" />
<glyph unicode="&#x3ae;" horiz-adv-x="1017" d="M90 0v1016h156l20 -113q119 74 198 98.5t146 24.5q150 0 234 -95t84 -267v-664h-176v641q0 113 -48.5 164t-132.5 49q-60 0 -142.5 -31t-162.5 -82v-741h-176zM395 1169l148 363l166 -51l-205 -353z" />
<glyph unicode="&#x3af;" horiz-adv-x="489" d="M158 0v1016h174v-1016h-174zM186 1169l148 363l166 -51l-205 -353z" />
<glyph unicode="&#x3b0;" horiz-adv-x="1028" d="M92 350v666h176v-623q0 -124 68 -181.5t178 -57.5q44 0 85 13t77 40t58 75t22 111v623h176v-666q0 -113 -63 -197t-157 -123.5t-202 -39.5q-79 0 -153 23.5t-133.5 67.5t-95.5 114t-36 155zM186 1309q0 40 29.5 69t69.5 29q41 0 70.5 -29t29.5 -69q0 -41 -29.5 -71 t-70.5 -30q-40 0 -69.5 30t-29.5 71zM371 1169l147 363l166 -51l-205 -353zM639 1309q0 40 29.5 69t70.5 29t71 -29t30 -69q0 -41 -30 -71t-71 -30t-70.5 30t-29.5 71z" />
<glyph unicode="&#x3b1;" horiz-adv-x="1026" d="M92 352v312q0 169 94 265.5t246 96.5q135 0 324 -111l20 99h152v-1014h-154l-20 92q-185 -102 -322 -102q-152 0 -246 96.5t-94 265.5zM268 375q0 -113 48.5 -164t132.5 -49q139 0 305 108v475q-80 50 -165 81.5t-140 31.5q-181 0 -181 -215v-268z" />
<glyph unicode="&#x3b2;" horiz-adv-x="1028" d="M102 0v1079q0 179 111.5 282t286.5 103q82 0 149 -21.5t109.5 -56.5t71.5 -81.5t41 -93t12 -93.5q0 -71 -31 -147t-98 -119q89 -33 136.5 -122.5t47.5 -190.5v-187q0 -169 -94 -265.5t-246 -96.5q-146 0 -322 104l-20 -94h-154zM276 260q200 -102 299 -102q59 0 98 18 t57.5 52t25 69.5t6.5 83.5v170q0 92 -59.5 146.5t-159.5 54.5h-131v143h114q63 0 109 36.5t65 83t19 91.5q0 84 -57 146.5t-162 62.5q-114 0 -169 -64.5t-55 -156.5v-834z" />
<glyph unicode="&#x3b3;" horiz-adv-x="925" d="M18 1006q59 18 103 18q72 0 110.5 -29.5t63.5 -113.5l178 -574h8l254 707h183l-359 -951v-473h-174v461l-240 717q-13 37 -21.5 56t-22 28t-24 10.5t-36.5 1.5h-8z" />
<glyph unicode="&#x3b4;" horiz-adv-x="1030" d="M98 356v265q0 113 60 205.5t155 134.5q-139 77 -139 204q0 136 97 214.5t255 78.5q211 0 348 -86l-81 -137q-121 72 -250 72q-193 0 -193 -129q0 -96 289 -185q138 -42 218.5 -139t80.5 -233v-263q0 -85 -36.5 -156.5t-96.5 -116.5t-135 -70t-154 -25q-177 0 -297.5 98 t-120.5 268zM274 389q0 -63 22 -112t59 -76.5t78.5 -41.5t86.5 -14q44 0 85.5 14t78 41.5t58.5 76.5t22 112v170q0 138 -67.5 205t-225.5 102q-91 -39 -144 -107.5t-53 -189.5v-180z" />
<glyph unicode="&#x3b5;" horiz-adv-x="868" d="M100 295q0 35 12.5 77.5t50 90t93.5 69.5q-141 52 -141 199q0 120 100.5 207.5t271.5 87.5q216 0 349 -125l-105 -121q-94 82 -237 82q-89 0 -148 -36t-59 -101q0 -60 44 -92.5t126 -32.5h166v-145h-181q-81 0 -126.5 -42.5t-45.5 -115.5q0 -62 59.5 -103.5t172.5 -41.5 q155 0 243 88l107 -121q-143 -127 -358 -127q-186 0 -290 82.5t-104 220.5z" />
<glyph unicode="&#x3b6;" horiz-adv-x="823" d="M76 401q-15 197 137.5 433t445.5 448h-548v152h776v-146q-190 -136 -334.5 -284t-227.5 -298.5t-75 -271.5q17 -282 463 -282h69l62 -125q-81 -114 -148 -389l-157 36q15 73 44 169t56 155q-68 2 -129 11t-124 27t-114.5 49t-94 73.5t-69 104.5t-32.5 138z" />
<glyph unicode="&#x3b7;" horiz-adv-x="1017" d="M90 0v1016h156l20 -113q119 74 198 98.5t146 24.5q150 0 234 -95t84 -267v-664h-176v641q0 113 -48.5 164t-132.5 49q-60 0 -142.5 -31t-162.5 -82v-741h-176z" />
<glyph unicode="&#x3b8;" horiz-adv-x="1021" d="M92 350v742q0 112 60.5 196.5t154.5 126t205 41.5q115 0 209.5 -41.5t152.5 -125.5t58 -197v-742q0 -113 -63 -197t-157 -123.5t-202 -39.5q-79 0 -153 23.5t-133.5 67.5t-95.5 114t-36 155zM268 393q0 -63 22 -111t59 -75t78.5 -40t86.5 -13q44 0 85 13t77 40t58 75 t22 111v289h-488v-289zM268 829h488v224q0 63 -22 111t-58 75t-77 40t-85 13q-45 0 -86.5 -13t-78.5 -40t-59 -75t-22 -111v-224z" />
<glyph unicode="&#x3b9;" horiz-adv-x="489" d="M158 0v1016h174v-1016h-174z" />
<glyph unicode="&#x3ba;" horiz-adv-x="991" d="M102 0v1016h174v-432h173q28 0 46.5 2t42.5 9.5t41 22t34.5 41t29.5 64.5l98 293h181l-101 -295q-27 -82 -61.5 -129.5t-87.5 -61.5q64 -16 96.5 -63t62.5 -137l109 -330h-184l-88 281q-29 91 -74 120t-123 29h-195v-430h-174z" />
<glyph unicode="&#x3bb;" horiz-adv-x="1044" d="M102 0v614q0 167 102.5 265t256.5 98q129 0 305 -57v135q0 101 -51.5 171t-165.5 70q-134 0 -279 -88l-75 142q108 59 188 86.5t186 27.5q373 0 373 -415v-1049h-176v748q-176 63 -289 63q-88 2 -142 -51.5t-54 -165.5v-594h-179z" />
<glyph unicode="&#x3bd;" horiz-adv-x="935" d="M20 1014h193l133 -398l121 -378h12l115 374l131 402h190l-360 -1014h-172z" />
<glyph unicode="&#x3be;" horiz-adv-x="878" d="M90 424q0 45 11 95t35 107t72 105.5t114 73.5q-55 18 -96 54t-61.5 79.5t-29.5 83t-8 76.5q3 157 121.5 254.5t296.5 97.5q218 0 348 -80l-76 -141q-116 67 -278 67q-96 0 -163 -51t-77 -135q-14 -114 65.5 -175t200.5 -61h209v-141h-252q-114 0 -188 -91.5t-74 -207.5 q0 -58 17.5 -104t44.5 -76t70 -52t83 -33.5t96 -18t96 -8t95 -1.5h53l64 -125q-44 -60 -84 -166.5t-64 -211.5l-162 34q42 198 107 314q-88 0 -168.5 12.5t-158 44.5t-134 80.5t-91 125.5t-34.5 175z" />
<glyph unicode="&#x3bf;" horiz-adv-x="1034" d="M98 358v295q0 113 57.5 199t152.5 130t210 44q187 0 303.5 -100.5t116.5 -272.5v-295q0 -170 -122 -269t-300 -99q-181 0 -299.5 98t-118.5 270zM274 393q0 -125 67.5 -182t178.5 -57q44 0 85.5 13t78 40t58.5 75t22 111v230q0 63 -22 111t-58.5 75t-78 40t-85.5 13 q-45 0 -86.5 -13t-78.5 -40t-59 -75t-22 -111v-230z" />
<glyph unicode="&#x3c0;" horiz-adv-x="1030" d="M100 0v1014h836v-1014h-176v858h-486v-858h-174z" />
<glyph unicode="&#x3c1;" horiz-adv-x="1015" d="M92 -410v1072q0 84 36.5 154.5t96 115.5t133.5 69.5t152 24.5q77 0 151.5 -24.5t134.5 -69.5t97 -115.5t37 -154.5v-310q0 -169 -94 -265.5t-248 -96.5q-180 0 -320 65v-465h-176zM266 623l2 -398q133 -69 305 -69q83 -2 132 52t49 167v248q0 63 -22 111t-58 75t-77.5 40 t-86.5 13t-86.5 -13t-77.5 -40t-58 -75t-22 -111z" />
<glyph unicode="&#x3c2;" horiz-adv-x="929" d="M57 121l97 129q132 -111 329 -111q84 0 146.5 39.5t62.5 116.5q0 60 -43 91t-123 44q-178 30 -246 54q-153 55 -180 176q-6 29 -6 61q0 138 106.5 221.5t264.5 83.5q117 0 205 -24.5t168 -81.5l-88 -132q-131 82 -285 82q-89 0 -145 -41.5t-56 -105.5q0 -43 33.5 -70.5 t87 -41.5t118 -25.5t129 -29.5t118 -46.5t87 -84t33.5 -134.5q0 -139 -112.5 -221t-290.5 -82q-237 0 -410 133z" />
<glyph unicode="&#x3c3;" horiz-adv-x="1056" d="M90 350v303q0 111 63.5 196t157.5 126t199 41h512v-158h-195q47 -36 75 -90t28 -115v-303q0 -113 -63 -197t-156.5 -123.5t-200.5 -39.5q-108 0 -201.5 39.5t-156 123.5t-62.5 197zM266 393q0 -63 22 -111t59 -75t78.5 -40t86.5 -13t86.5 13t77.5 40t58 75t22 111v221 q0 62 -22 110t-58 75.5t-77.5 41t-86.5 13.5t-86.5 -13.5t-78.5 -41t-59 -75.5t-22 -110v-221z" />
<glyph unicode="&#x3c4;" horiz-adv-x="786" d="M35 858v158h672v-158h-301v-496q0 -117 38.5 -160.5t116.5 -43.5q44 0 166 16l29 -149q-101 -35 -219 -35q-162 0 -234 74t-72 245l-2 549h-194z" />
<glyph unicode="&#x3c5;" horiz-adv-x="1028" d="M92 350v666h176v-623q0 -124 68 -181.5t178 -57.5q44 0 85 13t77 40t58 75t22 111v623h176v-666q0 -113 -63 -197t-157 -123.5t-202 -39.5q-79 0 -153 23.5t-133.5 67.5t-95.5 114t-36 155z" />
<glyph unicode="&#x3c6;" horiz-adv-x="1300" d="M96 369v288q0 134 88 231.5t211 121.5l35 -160q-66 -21 -112 -80.5t-46 -151.5v-208q0 -118 77.5 -187t209.5 -71v784q176 90 305 90q154 0 249.5 -96.5t96.5 -265.5l2 -295q1 -87 -42.5 -161t-113.5 -121t-153.5 -73t-167.5 -26h-2l2 -398h-176v398q-189 2 -326 110 t-137 271zM735 154q138 0 219.5 60.5t81.5 195.5v231q0 213 -180 213q-30 0 -121 -31v-669z" />
<glyph unicode="&#x3c7;" horiz-adv-x="888" d="M-2 0l344 520l-324 496h211l211 -354l215 354h209l-327 -492l342 -524h-213l-228 381l-233 -381h-207z" />
<glyph unicode="&#x3c8;" horiz-adv-x="1300" d="M100 367v647h174v-596q0 -120 78 -192.5t211 -73.5v862h174v-860q134 0 211.5 70t77.5 194v596h174v-635q0 -120 -64.5 -210t-168.5 -134.5t-230 -44.5v-400h-174v400q-124 0 -229.5 46.5t-169.5 134t-64 196.5z" />
<glyph unicode="&#x3c9;" horiz-adv-x="1564" d="M94 358v295q0 147 93 244.5t231 122.5l28 -160q-78 -15 -128 -76.5t-50 -169.5v-213q0 -124 61 -185.5t154 -61.5q92 0 152 61t61 186l2 351h172v-351q0 -111 56 -179t159 -68q92 0 152.5 61.5t60.5 185.5v213q0 104 -47.5 166t-122.5 78l29 160q134 -26 225 -123 t91 -242v-295q0 -170 -113 -269t-277 -99q-96 0 -176 42.5t-125 121.5q-107 -164 -301 -164q-163 0 -275 99t-112 269z" />
<glyph unicode="&#x3ca;" horiz-adv-x="489" d="M-37 1309q0 40 29 69t69 29q41 0 71 -29t30 -69q0 -41 -30 -71t-71 -30q-40 0 -69 30t-29 71zM158 0v1016h174v-1016h-174zM362 1309q0 40 30 69t71 29t70.5 -29t29.5 -69q0 -41 -29.5 -71t-70.5 -30t-71 30t-30 71z" />
<glyph unicode="&#x3cb;" horiz-adv-x="1028" d="M92 350v666h176v-623q0 -124 68 -181.5t178 -57.5q44 0 85 13t77 40t58 75t22 111v623h176v-666q0 -113 -63 -197t-157 -123.5t-202 -39.5q-79 0 -153 23.5t-133.5 67.5t-95.5 114t-36 155zM209 1309q0 40 29 69t69 29q41 0 71 -29t30 -69q0 -41 -30 -71t-71 -30 q-40 0 -69 30t-29 71zM608 1309q0 40 30 69t71 29t70.5 -29t29.5 -69q0 -41 -29.5 -71t-70.5 -30t-71 30t-30 71z" />
<glyph unicode="&#x3cc;" horiz-adv-x="1034" d="M98 358v295q0 113 57.5 199t152.5 130t210 44q187 0 303.5 -100.5t116.5 -272.5v-295q0 -170 -122 -269t-300 -99q-181 0 -299.5 98t-118.5 270zM274 393q0 -125 67.5 -182t178.5 -57q44 0 85.5 13t78 40t58.5 75t22 111v230q0 63 -22 111t-58.5 75t-78 40t-85.5 13 q-45 0 -86.5 -13t-78.5 -40t-59 -75t-22 -111v-230zM440 1169l148 363l166 -51l-205 -353z" />
<glyph unicode="&#x3cd;" horiz-adv-x="1028" d="M92 350v666h176v-623q0 -124 68 -181.5t178 -57.5q44 0 85 13t77 40t58 75t22 111v623h176v-666q0 -113 -63 -197t-157 -123.5t-202 -39.5q-79 0 -153 23.5t-133.5 67.5t-95.5 114t-36 155zM436 1169l148 363l166 -51l-205 -353z" />
<glyph unicode="&#x3ce;" horiz-adv-x="1564" d="M94 358v295q0 147 93 244.5t231 122.5l28 -160q-78 -15 -128 -76.5t-50 -169.5v-213q0 -124 61 -185.5t154 -61.5q92 0 152 61t61 186l2 351h172v-351q0 -111 56 -179t159 -68q92 0 152.5 61.5t60.5 185.5v213q0 104 -47.5 166t-122.5 78l29 160q134 -26 225 -123 t91 -242v-295q0 -170 -113 -269t-277 -99q-96 0 -176 42.5t-125 121.5q-107 -164 -301 -164q-163 0 -275 99t-112 269zM688 1169l148 363l165 -51l-204 -353z" />
<glyph unicode="&#x401;" horiz-adv-x="1140" d="M125 0v1411h942v-172h-754v-448h645v-170h-645v-451h754v-170h-942zM307 1661q0 40 29.5 69t69.5 29q41 0 70.5 -29t29.5 -69q0 -41 -29.5 -70.5t-70.5 -29.5q-40 0 -69.5 29.5t-29.5 70.5zM707 1661q0 40 29.5 69t70.5 29t70.5 -29t29.5 -69q0 -41 -29.5 -70.5 t-70.5 -29.5t-70.5 29.5t-29.5 70.5z" />
<glyph unicode="&#x402;" horiz-adv-x="1462" d="M20 1237v174h1088v-174h-530v-365q87 55 185.5 86t186.5 31q428 0 428 -452v-234q0 -115 -24.5 -198t-82.5 -147.5t-161.5 -97t-253.5 -32.5v170q181 0 256.5 73.5t75.5 254.5v188q0 162 -70.5 229.5t-206.5 67.5q-83 0 -172 -37t-161 -88v-686h-191v1237h-367z" />
<glyph unicode="&#x403;" horiz-adv-x="1050" d="M125 0v1411h942v-172h-754v-1239h-188zM438 1597l303 250l121 -125l-348 -211z" />
<glyph unicode="&#x404;" horiz-adv-x="1077" d="M111 449v516q0 138 71.5 244.5t187 161t251.5 54.5q238 0 395 -127l-94 -147q-55 45 -138 72.5t-163 27.5q-62 0 -117 -18.5t-101.5 -56t-74 -102t-27.5 -148.5v-119h496v-168h-496v-154q0 -83 27.5 -147.5t74 -102t100.5 -56.5t113 -19q195 0 312 98l90 -145 q-68 -55 -174.5 -91t-222.5 -36q-225 0 -367.5 125t-142.5 338z" />
<glyph unicode="&#x405;" horiz-adv-x="1138" d="M53 162l107 135q202 -139 415 -139q143 0 225.5 62t82.5 171q0 53 -22.5 94t-47 63.5t-81.5 44t-83 27.5t-95 20q-9 2 -13 3q-73 14 -130.5 32t-116 49t-97.5 71t-63.5 101t-24.5 136q0 180 123.5 293t332.5 113q281 0 463 -111l-88 -160q-168 99 -377 99 q-116 0 -193 -62t-77 -176q0 -31 10.5 -57.5t25.5 -45.5t42 -35.5t48 -26.5t57 -21t57 -16t57 -13q6 -1 10 -2l8 -2q53 -12 88.5 -21t83.5 -24t80 -31.5t69 -39.5t61 -52t44.5 -65t30.5 -83t10 -102q0 -187 -137 -295t-365 -108q-296 0 -520 174z" />
<glyph unicode="&#x406;" horiz-adv-x="516" d="M164 0v1411h188v-1411h-188z" />
<glyph unicode="&#x407;" horiz-adv-x="516" d="M-39 1675q0 40 29 69.5t69 29.5q41 0 71 -29.5t30 -69.5q0 -41 -30 -70.5t-71 -29.5q-40 0 -69 29.5t-29 70.5zM164 0v1411h188v-1411h-188zM360 1675q0 40 30 69.5t71 29.5t70.5 -29.5t29.5 -69.5q0 -41 -29.5 -70.5t-70.5 -29.5t-71 29.5t-30 70.5z" />
<glyph unicode="&#x408;" horiz-adv-x="1067" d="M31 92l88 152q137 -84 268 -84q153 0 239.5 80.5t86.5 255.5v915h188v-956q0 -141 -66 -249t-175 -164t-242 -56q-101 0 -208 28t-179 78z" />
<glyph unicode="&#x409;" horiz-adv-x="1873" d="M23 104q108 55 166.5 129t88 210t29.5 362v606h735v-582h388q120 0 214.5 -61.5t142.5 -154.5t48 -195q0 -78 -25 -150.5t-72 -133.5t-125.5 -97.5t-176.5 -36.5h-586v1239h-361v-446q0 -196 -24.5 -339t-75.5 -240.5t-119.5 -158.5t-167.5 -102zM1042 172h355 q111 0 181.5 67t70.5 179t-72.5 174.5t-185.5 62.5h-349v-483z" />
<glyph unicode="&#x40a;" horiz-adv-x="1892" d="M111 0v1411h188v-590h549v590h188v-588h391q120 0 215 -60t143 -151.5t48 -193.5q0 -78 -25 -150.5t-72 -133.5t-125.5 -97.5t-176.5 -36.5h-586v649h-549v-649h-188zM1036 172h359q111 0 181.5 67t70.5 179q0 111 -72 171t-186 60h-353v-477z" />
<glyph unicode="&#x40b;" horiz-adv-x="1462" d="M20 1237v174h1088v-174h-530v-358q76 47 175 78.5t185 31.5q101 0 177.5 -23t126 -63.5t80.5 -102.5t43.5 -132.5t12.5 -159.5v-508h-190v485q0 172 -60.5 249t-203.5 77q-84 0 -180.5 -37.5t-165.5 -87.5v-686h-191v1237h-367z" />
<glyph unicode="&#x40c;" horiz-adv-x="1171" d="M117 0v1411h188v-608h219q40 0 72 7t69.5 27t68.5 63.5t52 109.5l129 401h181l-127 -412q-69 -219 -201 -266q83 -26 133 -96t84 -182l135 -455h-196l-123 422q-20 68 -49 113t-66 67t-72 30.5t-79 8.5h-230v-641h-188zM434 1597l303 250l121 -125l-348 -211z" />
<glyph unicode="&#x40e;" horiz-adv-x="1060" d="M18 1411h197l320 -874h10l321 874h189l-420 -1100q-46 -128 -97 -201.5t-104 -100.5t-123 -27h-155v178h118q48 0 82.5 20.5t61.5 77.5l16 45zM258 1708h150q3 -47 43.5 -88t101.5 -41q68 0 107.5 41t39.5 88h146q-3 -35 -12.5 -68.5t-31 -70t-52.5 -63.5t-82 -44.5 t-115 -17.5t-116 17.5t-84 45t-54 63t-31 70t-10 68.5z" />
<glyph unicode="&#x40f;" horiz-adv-x="1263" d="M111 0v1411h188v-1241h662v1241h192v-1411h-420v-342h-198v342h-424z" />
<glyph unicode="&#x410;" horiz-adv-x="1222" d="M27 0l491 1411h191l493 -1411h-198l-111 317h-561l-109 -317h-196zM393 489h441l-113 336l-105 328h-8l-102 -328z" />
<glyph unicode="&#x411;" horiz-adv-x="1153" d="M111 0v1411h843v-174h-655v-408h391q96 0 175 -35.5t128.5 -94.5t76 -131.5t26.5 -149.5q0 -78 -25 -150.5t-72.5 -133.5t-126 -97.5t-176.5 -36.5h-585zM299 172h358q111 0 181.5 67t70.5 179t-72.5 174.5t-185.5 62.5h-352v-483z" />
<glyph unicode="&#x412;" horiz-adv-x="1214" d="M117 0v1411h585q186 0 294 -108t108 -265q0 -202 -174 -299q97 -50 146.5 -138.5t49.5 -186.5q0 -61 -16 -120t-49.5 -112.5t-80 -94t-112.5 -64t-143 -23.5h-608zM307 170h381q123 0 187.5 63.5t64.5 180.5q0 109 -76.5 174t-179.5 65h-377v-483zM307 823h375 q100 0 168 56t68 155q0 105 -68 155t-184 50h-359v-416z" />
<glyph unicode="&#x413;" horiz-adv-x="1050" d="M125 0v1411h942v-172h-754v-1239h-188z" />
<glyph unicode="&#x414;" horiz-adv-x="1415" d="M20 176h105q97 71 142 218.5t57 455.5l22 561h891l2 -1239h115v-477h-185v305h-964v-305h-185v481zM360 170h684v1069h-526l-20 -405q-15 -303 -40 -439t-98 -225z" />
<glyph unicode="&#x415;" horiz-adv-x="1140" d="M125 0v1411h942v-172h-754v-448h645v-170h-645v-451h754v-170h-942z" />
<glyph unicode="&#x416;" horiz-adv-x="1810" d="M51 0l137 451q33 113 85 184.5t135 97.5q-68 23 -120 90.5t-81 169.5l-131 418h186l127 -401q21 -66 52.5 -110t70 -63.5t71 -26.5t72.5 -7h156v608h188v-608h156q40 0 72.5 7t71 26.5t70 63.5t52.5 110l127 401h187l-131 -418q-29 -102 -81 -169.5t-120 -90.5 q83 -26 134.5 -97.5t84.5 -184.5l137 -451h-200l-123 422q-20 68 -48.5 113t-64.5 67.5t-71.5 30.5t-80.5 8h-172v-641h-188v641h-172q-45 0 -80 -8t-71 -30.5t-64.5 -67.5t-48.5 -113l-123 -422h-201z" />
<glyph unicode="&#x417;" horiz-adv-x="1040" d="M16 127l99 139q57 -45 158.5 -79.5t177.5 -34.5q164 0 242.5 70t78.5 198q0 115 -68 176t-192 61h-160v158h148q61 0 118 25t98.5 82t41.5 133q0 100 -76 151t-199 51q-76 0 -168 -31.5t-147 -78.5l-98 139q88 66 189 101.5t241 35.5q89 0 165 -20t138.5 -61t98.5 -112.5 t36 -166.5q0 -107 -52.5 -193t-148.5 -122q108 -35 162.5 -126t54.5 -200t-38 -193.5t-107 -137t-160 -79t-200 -26.5q-123 0 -243.5 41t-189.5 100z" />
<glyph unicode="&#x418;" horiz-adv-x="1320" d="M121 0v1411h188v-1079h15l180 282l514 797h182v-1411h-188v1094h-15l-204 -328l-494 -766h-178z" />
<glyph unicode="&#x419;" horiz-adv-x="1320" d="M121 0v1411h188v-1079h15l180 282l514 797h182v-1411h-188v1094h-15l-204 -328l-494 -766h-178zM346 1737h150q3 -47 43.5 -88t101.5 -41q68 0 107.5 41t39.5 88h146q-3 -35 -12.5 -68.5t-31 -70t-52.5 -63.5t-82 -44.5t-115 -17.5t-116 17.5t-84 45t-54 63t-31 70 t-10 68.5z" />
<glyph unicode="&#x41a;" horiz-adv-x="1171" d="M117 0v1411h188v-608h219q40 0 72 7t69.5 27t68.5 63.5t52 109.5l129 401h181l-127 -412q-69 -219 -201 -266q83 -26 133 -96t84 -182l135 -455h-196l-123 422q-20 68 -49 113t-66 67t-72 30.5t-79 8.5h-230v-641h-188z" />
<glyph unicode="&#x41b;" horiz-adv-x="1273" d="M-4 115q77 39 127 86t88 125t55 194.5t17 284.5v606h868v-1411h-193v1239h-487v-446q0 -196 -25 -339.5t-77.5 -240.5t-122 -157.5t-168.5 -102.5z" />
<glyph unicode="&#x41c;" horiz-adv-x="1519" d="M119 0v1411h180l285 -575l178 -375h12l174 375l281 575h174v-1411h-189v961h-10l-129 -273l-237 -479h-142l-225 440l-154 312h-10v-961h-188z" />
<glyph unicode="&#x41d;" horiz-adv-x="1263" d="M111 0v1411h188v-610h662v610h192v-1411h-192v629h-662v-629h-188z" />
<glyph unicode="&#x41e;" horiz-adv-x="1255" d="M106 461v487q0 213 145 345t376 132q228 0 375 -132.5t147 -344.5v-487q0 -214 -148 -344.5t-374 -130.5q-232 0 -376.5 129.5t-144.5 345.5zM297 483q0 -84 26.5 -147.5t73 -101t104.5 -56t126 -18.5q145 0 238 80t93 243v443q0 83 -26 146.5t-72 101.5t-105 57.5 t-128 19.5t-127.5 -19.5t-104.5 -57.5t-72 -101.5t-26 -146.5v-443z" />
<glyph unicode="&#x41f;" horiz-adv-x="1263" d="M111 0v1411h1042v-1411h-192v1239h-662v-1239h-188z" />
<glyph unicode="&#x420;" horiz-adv-x="1134" d="M111 0v1411h585q98 0 176.5 -37.5t126 -98.5t72.5 -134.5t25 -151.5q0 -76 -28 -151t-77.5 -135.5t-127 -98t-167.5 -37.5h-397v-567h-188zM299 741h358q111 0 181.5 67t70.5 181q0 113 -71 181.5t-181 68.5h-358v-498z" />
<glyph unicode="&#x421;" horiz-adv-x="1079" d="M111 449v516q0 138 71.5 244.5t187 161t251.5 54.5q238 0 395 -127l-94 -147q-55 45 -138 72.5t-163 27.5q-62 0 -117 -18.5t-101.5 -56t-74 -102t-27.5 -148.5v-441q0 -83 27.5 -147.5t74 -102t100.5 -56.5t113 -19q195 0 312 98l90 -145q-68 -55 -174.5 -91t-222.5 -36 q-138 0 -253 54.5t-186 161.5t-71 247z" />
<glyph unicode="&#x422;" horiz-adv-x="1069" d="M33 1237v174h1003v-174h-405v-1237h-191v1237h-407z" />
<glyph unicode="&#x423;" horiz-adv-x="1060" d="M18 1411h197l320 -874h10l321 874h189l-420 -1100q-46 -128 -97 -201.5t-104 -100.5t-123 -27h-155v178h118q48 0 82.5 20.5t61.5 77.5l16 45z" />
<glyph unicode="&#x424;" horiz-adv-x="1581" d="M125 643v199q0 139 68 254.5t199.5 188.5t303.5 79v61h191v-61q129 -4 238 -47t181 -114t112 -164.5t40 -196.5v-193q0 -223 -152 -374t-419 -160v-115h-191v115q-267 9 -419 157t-152 371zM315 653q0 -164 106 -261.5t275 -102.5v901q-171 -5 -276 -105t-105 -262v-170z M887 289q169 5 275 102.5t106 261.5v170q0 162 -105 262t-276 105v-901z" />
<glyph unicode="&#x425;" horiz-adv-x="1126" d="M18 0l439 723l-410 688h219l297 -532l299 532h219l-409 -688l438 -723h-219l-328 569l-325 -569h-220z" />
<glyph unicode="&#x426;" horiz-adv-x="1302" d="M111 0v1411h188v-1241h662v1241h192v-1237l117 -2v-477h-187v305h-972z" />
<glyph unicode="&#x427;" horiz-adv-x="1206" d="M59 997v416h191v-393q0 -173 65 -249.5t220 -76.5q87 0 190 36t168 83v600h190v-1411h-190v619q-73 -45 -177 -75t-192 -30q-129 0 -220.5 34.5t-144.5 100t-76.5 150.5t-23.5 196z" />
<glyph unicode="&#x428;" horiz-adv-x="1781" d="M113 0v1411h188v-1241h496v1241h184v-1241h500v1241h188v-1411h-1556z" />
<glyph unicode="&#x429;" horiz-adv-x="1814" d="M113 0v1411h188v-1241h496v1241h184v-1241h496v1241h192v-1237l117 -2v-477h-187v305h-1486z" />
<glyph unicode="&#x42a;" horiz-adv-x="1527" d="M12 1237v174h637v-582h391q120 0 215 -61.5t143 -154.5t48 -195q0 -78 -25 -150.5t-72 -133.5t-125.5 -97.5t-176.5 -36.5h-586v1237h-449zM649 172h359q111 0 181.5 67t70.5 179t-73 174.5t-186 62.5h-352v-483z" />
<glyph unicode="&#x42b;" horiz-adv-x="1581" d="M123 0v1411h188v-582h391q120 0 215 -61.5t143 -154.5t48 -195q0 -78 -25 -150.5t-72 -133.5t-125.5 -97.5t-176.5 -36.5h-586zM311 172h359q111 0 181.5 67t70.5 179t-72.5 174.5t-185.5 62.5h-353v-483zM1270 0v1411h188v-1411h-188z" />
<glyph unicode="&#x42c;" horiz-adv-x="1163" d="M123 0v1411h188v-582h391q120 0 215 -61.5t143 -154.5t48 -195q0 -78 -25 -150.5t-72 -133.5t-125.5 -97.5t-176.5 -36.5h-586zM311 172h359q111 0 181.5 67t70.5 179t-72.5 174.5t-185.5 62.5h-353v-483z" />
<glyph unicode="&#x42d;" horiz-adv-x="1073" d="M51 113l90 145q117 -98 312 -98q66 0 121.5 18.5t99.5 56.5t69 102t25 148v160h-535v168h535v113q0 325 -307 325q-79 0 -157 -27t-134 -73l-94 147q157 127 393 127q231 0 360 -114.5t129 -345.5v-516q0 -140 -70.5 -247t-185.5 -161.5t-253 -54.5q-117 0 -223.5 36 t-174.5 91z" />
<glyph unicode="&#x42e;" horiz-adv-x="1583" d="M125 0v1411h188v-610h197v147q0 218 126 347.5t353 129.5q223 0 352 -130.5t129 -346.5v-487q0 -218 -130 -346.5t-351 -128.5q-228 0 -353.5 127t-125.5 348v168h-197v-629h-188zM700 483q0 -323 289 -323q291 0 291 323v443q0 166 -76 245.5t-215 79.5 q-289 0 -289 -325v-443z" />
<glyph unicode="&#x42f;" horiz-adv-x="1220" d="M88 0l115 408q30 100 61.5 152.5t93.5 82.5q-118 36 -175.5 125.5t-57.5 220.5q0 181 108.5 301.5t296.5 120.5h582v-1411h-188v608h-281q-188 -8 -252 -221l-110 -387h-193zM305 989q0 -116 71 -169.5t195 -53.5h353v473h-357q-126 0 -194 -65t-68 -185z" />
<glyph unicode="&#x430;" horiz-adv-x="1015" d="M78 297q0 64 25.5 116.5t64.5 86t89.5 56.5t97.5 32.5t91 9.5h297v78q0 102 -57.5 146t-171.5 44q-171 0 -285 -94l-86 133q159 121 385 121q198 0 294 -87.5t96 -266.5v-672h-154l-21 94l-6 4q-112 -62 -189 -84t-147 -22q-148 0 -235.5 82t-87.5 223zM258 297 q0 -71 49 -109t129 -38q111 0 307 110v193h-268q-217 0 -217 -156z" />
<glyph unicode="&#x431;" horiz-adv-x="1036" d="M98 369v290q0 100 9.5 182t35 169.5t77.5 158.5t128 119q31 19 71.5 38.5t71 32t79 32t71.5 28.5q45 18 172 76l64 -147q-92 -39 -159.5 -66t-94.5 -39q-93 -40 -144.5 -67.5t-93.5 -68.5t-62 -92t-32 -130l4 -8q48 49 121 71.5t131 22.5q190 0 290.5 -98t100.5 -275 v-229q0 -114 -58.5 -202t-153.5 -132.5t-210 -44.5q-195 0 -306.5 101t-111.5 278zM274 393q0 -125 67.5 -182t178.5 -57q106 0 175 58t69 181v174q0 127 -63 183.5t-181 56.5q-44 0 -86.5 -14.5t-79 -43t-58.5 -78t-22 -112.5v-166z" />
<glyph unicode="&#x432;" horiz-adv-x="987" d="M90 0v1014h490q150 0 228.5 -80t78.5 -199q0 -60 -30.5 -116.5t-90.5 -88.5q70 -33 104.5 -94.5t34.5 -128.5q0 -58 -20.5 -111.5t-59 -98t-101 -71t-140.5 -26.5h-494zM268 156h285q174 0 174 151q0 65 -47 104.5t-109 39.5h-303v-295zM268 608h295q69 0 108.5 32.5 t39.5 92.5q0 62 -46 93.5t-112 31.5h-285v-250z" />
<glyph unicode="&#x433;" horiz-adv-x="819" d="M94 0v1016h723v-158h-545v-858h-178z" />
<glyph unicode="&#x434;" horiz-adv-x="1167" d="M29 147l69 5q76 50 110 143.5t44 288.5l24 430h734v-860l84 -2v-412h-166v260h-733v-260h-166v407zM330 154h504v704h-404l-12 -268q-8 -172 -26.5 -270.5t-61.5 -165.5z" />
<glyph unicode="&#x435;" horiz-adv-x="989" d="M96 360v269q0 180 114 287.5t296 107.5q184 0 296.5 -103t112.5 -278v-201h-643v-67q0 -114 72.5 -169.5t181.5 -55.5q145 0 250 100l111 -121q-136 -139 -365 -139q-87 0 -163.5 23.5t-135.5 68t-93 116.5t-34 162zM274 586h463v39q0 121 -64.5 180t-166.5 59 q-99 0 -165.5 -60t-66.5 -173v-45z" />
<glyph unicode="&#x436;" horiz-adv-x="1435" d="M51 0l101 330q27 88 60.5 136t98.5 64q-97 25 -149 191l-92 295h180l90 -293q15 -47 36 -76.5t49 -42.5t51 -16.5t59 -3.5h96v432h174v-432h96q36 0 59 3.5t51 16.5t49 42.5t36 76.5l90 293h180l-92 -295q-52 -165 -150 -191q65 -16 99 -64.5t61 -135.5l100 -330h-184 l-80 281q-26 92 -71.5 120.5t-124.5 28.5h-119v-430h-174v430h-119q-80 0 -125.5 -28.5t-71.5 -120.5l-79 -281h-185z" />
<glyph unicode="&#x437;" horiz-adv-x="868" d="M27 119l106 121q52 -44 124 -68.5t134 -24.5q121 0 177.5 44.5t56.5 109.5q0 70 -53 107.5t-138 37.5h-139v146h143q80 0 126 39t46 100q0 64 -56.5 97.5t-137.5 33.5q-148 0 -242 -82l-108 121q67 64 162 94.5t198 30.5q169 0 261.5 -80t92.5 -201q0 -162 -141 -217 q84 -33 120 -99t36 -126q0 -139 -101.5 -225t-292.5 -86q-227 0 -374 127z" />
<glyph unicode="&#x438;" horiz-adv-x="1046" d="M102 0v1014h179v-731h8l151 231l338 500h166v-1014h-180v733h-10l-154 -235l-336 -498h-162z" />
<glyph unicode="&#x439;" horiz-adv-x="1046" d="M102 0v1014h179v-731h8l151 231l338 500h166v-1014h-180v733h-10l-154 -235l-336 -498h-162zM231 1427h150q3 -47 43.5 -88t101.5 -41q68 0 108 41t40 88h145q-3 -35 -12.5 -68.5t-31 -70t-52.5 -63.5t-82 -44.5t-115 -17.5t-116 17.5t-84 45t-54 63t-31 70t-10 68.5z " />
<glyph unicode="&#x43a;" horiz-adv-x="991" d="M102 0v1016h174v-432h173q28 0 46.5 2t42.5 9.5t41 22t34.5 41t29.5 64.5l98 293h181l-101 -295q-27 -82 -61.5 -129.5t-87.5 -61.5q64 -16 96.5 -63t62.5 -137l109 -330h-184l-88 281q-29 91 -74 120t-123 29h-195v-430h-174z" />
<glyph unicode="&#x43b;" horiz-adv-x="1058" d="M6 113q53 24 83.5 43.5t61.5 54t46 82t24.5 122t9.5 179.5v420h705v-1014h-176v858h-354v-274q0 -123 -16.5 -217.5t-43.5 -157t-71 -110t-89 -75t-108 -53.5z" />
<glyph unicode="&#x43c;" horiz-adv-x="1241" d="M106 0v1014h164l205 -385l141 -275l146 273l213 387h160v-1014h-179v641h-10l-110 -209l-162 -287h-121l-133 240l-127 242h-8v-627h-179z" />
<glyph unicode="&#x43d;" horiz-adv-x="1044" d="M104 0v1014h177v-422h483v422h178v-1014h-178v432h-483v-432h-177z" />
<glyph unicode="&#x43e;" horiz-adv-x="1034" d="M98 358v295q0 113 57.5 199t152.5 130t210 44q187 0 303.5 -100.5t116.5 -272.5v-295q0 -170 -122 -269t-300 -99q-181 0 -299.5 98t-118.5 270zM274 393q0 -125 67.5 -182t178.5 -57q44 0 85.5 13t78 40t58.5 75t22 111v230q0 63 -22 111t-58.5 75t-78 40t-85.5 13 q-45 0 -86.5 -13t-78.5 -40t-59 -75t-22 -111v-230z" />
<glyph unicode="&#x43f;" horiz-adv-x="1034" d="M100 0v1014h836v-1014h-176v858h-486v-858h-174z" />
<glyph unicode="&#x440;" horiz-adv-x="1030" d="M102 -406v1420h154l20 -107q195 117 322 117q156 0 248 -90.5t92 -271.5v-312q0 -171 -95.5 -266.5t-260.5 -95.5q-151 0 -306 63v-457h-174zM276 217q154 -63 289 -63q90 -2 143.5 45.5t53.5 158.5v291q0 111 -46.5 158t-133.5 47q-57 0 -146.5 -35.5t-159.5 -83.5v-518 z" />
<glyph unicode="&#x441;" horiz-adv-x="878" d="M96 350v301q0 112 56.5 199t147.5 131.5t198 44.5q229 0 342 -125l-105 -133q-60 58 -115 76t-114 18q-41 0 -80.5 -13t-75 -40t-57 -75t-21.5 -111v-230q0 -84 35 -139.5t85.5 -77.5t113.5 -22q53 0 115.5 21t105.5 63l109 -123q-125 -125 -334 -125 q-179 0 -292.5 100.5t-113.5 259.5z" />
<glyph unicode="&#x442;" horiz-adv-x="854" d="M23 858v158h811v-158h-316v-858h-182v858h-313z" />
<glyph unicode="&#x443;" horiz-adv-x="958" d="M20 1016h191l123 -447l112 -405h7l143 405l154 447h188l-518 -1428h-189l150 430l-86 72z" />
<glyph unicode="&#x444;" horiz-adv-x="1290" d="M96 430v127q0 93 28.5 174.5t83.5 147t145.5 105t205.5 42.5v385h174v-385q225 -6 344 -131.5t119 -316.5v-148q0 -85 -29 -161t-84.5 -137t-145.5 -99.5t-204 -44.5v-396h-174v396q-120 5 -211.5 43t-145 100t-80 137t-26.5 162zM272 461q0 -294 287 -314v719 q-73 -1 -129.5 -27.5t-90 -71t-50.5 -99t-17 -115.5v-92zM733 147q78 1 135.5 27.5t89.5 71.5t47 99t15 116v92q0 62 -16 116t-49 98.5t-90 71t-132 27.5v-719z" />
<glyph unicode="&#x445;" horiz-adv-x="888" d="M-2 0l344 520l-324 496h211l211 -354l215 354h209l-327 -492l342 -524h-213l-228 381l-233 -381h-207z" />
<glyph unicode="&#x446;" horiz-adv-x="1064" d="M119 0v1016h172v-860h467v860h168v-862l84 -2v-412h-166v260h-725z" />
<glyph unicode="&#x447;" horiz-adv-x="985" d="M57 705v313h176v-291q0 -213 181 -213q62 0 144 30.5t161 82.5v391h176v-1018h-176v453q-189 -111 -334 -111q-162 0 -245 94.5t-83 268.5z" />
<glyph unicode="&#x448;" horiz-adv-x="1470" d="M113 0v1014h178v-856h354v856h174v-856h357v856h176v-1014h-1239z" />
<glyph unicode="&#x449;" horiz-adv-x="1476" d="M102 0v1014h179v-858h354v858h174v-858h356v858h176v-862h84v-414h-165v262h-1158z" />
<glyph unicode="&#x44a;" horiz-adv-x="1196" d="M14 858v156h525v-393h268q168 0 260 -86t92 -222q0 -142 -93.5 -227.5t-260.5 -85.5h-443v858h-348zM537 156h264q88 0 136 40.5t48 116.5q0 64 -46 109t-138 45h-264v-311z" />
<glyph unicode="&#x44b;" horiz-adv-x="1271" d="M102 0v1016h177v-395h268q168 0 260 -86t92 -222q0 -142 -93.5 -227.5t-260.5 -85.5h-443zM276 156h265q88 0 136 40.5t48 116.5q0 64 -46 109t-138 45h-265v-311zM999 0v1014h170v-1014h-170z" />
<glyph unicode="&#x44c;" horiz-adv-x="921" d="M102 0v1016h177v-395h268q168 0 260 -86t92 -222q0 -142 -93.5 -227.5t-260.5 -85.5h-443zM276 156h265q88 0 136 40.5t48 116.5q0 64 -46 109t-138 45h-265v-311z" />
<glyph unicode="&#x44d;" horiz-adv-x="878" d="M37 115l104 133q60 -58 115.5 -76t114.5 -18q42 0 82 12t77 38t59.5 73t22.5 110v64h-391v149h391v23q0 239 -219 239q-53 0 -117.5 -21t-107.5 -63l-109 123q66 66 159.5 95.5t191.5 29.5q184 0 281 -97.5t97 -262.5v-301q0 -170 -115.5 -272.5t-293.5 -102.5 q-229 0 -342 125z" />
<glyph unicode="&#x44e;" horiz-adv-x="1306" d="M92 0v1014h176v-424h150v63q0 171 112 272t287 101q185 0 292.5 -99.5t107.5 -273.5v-295q0 -172 -113 -270t-289 -98q-179 0 -288 97.5t-109 270.5v74h-150v-432h-176zM594 393q0 -127 58.5 -183t166.5 -56q44 0 82 13t70.5 40t51.5 75t19 111v230q0 63 -19 111 t-51.5 75t-70.5 40t-82 13q-95 0 -160 -58t-65 -181v-230z" />
<glyph unicode="&#x44f;" horiz-adv-x="978" d="M61 0l66 274q38 155 135 185q-83 25 -126.5 91t-43.5 150q0 133 88 223.5t228 90.5h479v-1014h-176v420h-219q-154 0 -189 -154l-59 -266h-183zM260 705q0 -136 174 -136h277v289h-283q-71 0 -119.5 -39t-48.5 -114z" />
<glyph unicode="&#x451;" horiz-adv-x="989" d="M96 360v269q0 180 114 287.5t296 107.5q184 0 296.5 -103t112.5 -278v-201h-643v-67q0 -114 72.5 -169.5t181.5 -55.5q145 0 250 100l111 -121q-136 -139 -365 -139q-87 0 -163.5 23.5t-135.5 68t-93 116.5t-34 162zM215 1323q0 40 29 69t69 29q41 0 71 -29t30 -69 q0 -41 -30 -70.5t-71 -29.5q-40 0 -69 29.5t-29 70.5zM274 586h463v39q0 121 -64.5 180t-166.5 59q-99 0 -165.5 -60t-66.5 -173v-45zM614 1323q0 40 30 69t71 29t70.5 -29t29.5 -69q0 -41 -29.5 -70.5t-70.5 -29.5t-71 29.5t-30 70.5z" />
<glyph unicode="&#x452;" horiz-adv-x="1017" d="M2 1171v140h94v155h176v-155h447v-140h-447v-270q193 125 334 125q162 0 245 -94t83 -268v-459q0 -94 -33.5 -166t-92.5 -115.5t-134 -65.5t-162 -22v164q248 0 248 227l-2 414q0 213 -180 213q-62 0 -144.5 -30.5t-161.5 -82.5v-741h-176v1171h-94z" />
<glyph unicode="&#x453;" horiz-adv-x="819" d="M94 0v1016h723v-158h-545v-858h-178zM336 1169l147 363l166 -51l-205 -353z" />
<glyph unicode="&#x454;" horiz-adv-x="878" d="M96 350v301q0 170 113.5 272.5t284.5 102.5q229 0 342 -125l-105 -133q-60 58 -115 76t-114 18q-99 0 -164.5 -58t-65.5 -181v-37h361v-148h-361v-45q0 -125 64 -182t170 -57q53 0 115.5 21t105.5 63l109 -123q-125 -125 -334 -125q-190 0 -298 98.5t-108 261.5z" />
<glyph unicode="&#x455;" horiz-adv-x="929" d="M57 121l97 129q132 -111 329 -111q84 0 146.5 39.5t62.5 116.5q0 60 -43 91t-123 44q-178 30 -246 54q-153 55 -180 176q-6 29 -6 61q0 138 106.5 221.5t264.5 83.5q117 0 205 -24.5t168 -81.5l-88 -132q-131 82 -285 82q-89 0 -145 -41.5t-56 -105.5q0 -43 33.5 -70.5 t87 -41.5t118 -25.5t129 -29.5t118 -46.5t87 -84t33.5 -134.5q0 -139 -112.5 -221t-290.5 -82q-237 0 -410 133z" />
<glyph unicode="&#x456;" horiz-adv-x="464" d="M123 1323q0 44 32.5 76.5t75.5 32.5q44 0 77.5 -32.5t33.5 -76.5t-33.5 -77.5t-77.5 -33.5q-43 0 -75.5 33.5t-32.5 77.5zM145 0v1016h174v-1016h-174z" />
<glyph unicode="&#x457;" horiz-adv-x="489" d="M-51 1309q0 40 29 69t69 29q41 0 70.5 -29t29.5 -69q0 -41 -29.5 -71t-70.5 -30q-40 0 -69 30t-29 71zM158 0v1016h174v-1016h-174zM348 1309q0 40 30 69t71 29t70.5 -29t29.5 -69q0 -41 -29.5 -71t-70.5 -30t-71 30t-30 71z" />
<glyph unicode="&#x458;" horiz-adv-x="497" d="M-37 -258h80q84 0 113.5 36t29.5 140v1096h174v-1120q0 -164 -75.5 -238t-221.5 -74h-100v160zM170 1323q0 43 29.5 72.5t72.5 29.5t73 -29.5t30 -72.5t-30 -73.5t-73 -30.5t-72.5 30.5t-29.5 73.5z" />
<glyph unicode="&#x459;" horiz-adv-x="1503" d="M16 109q62 27 103 60t72.5 85.5t46 130t14.5 186.5v445h590v-395h268q168 0 260 -86t92 -222q0 -142 -93.5 -227.5t-260.5 -85.5h-442v858h-250v-280q0 -183 -40 -305.5t-109.5 -188.5t-180.5 -107zM840 156h264q88 0 136 40.5t48 116.5q0 64 -46 109t-138 45h-264v-311z " />
<glyph unicode="&#x45a;" horiz-adv-x="1540" d="M125 0v1016h176v-398h404v398h176v-395h268q168 0 260 -86t92 -222q0 -142 -93.5 -227.5t-260.5 -85.5h-442v469h-404v-469h-176zM879 156h264q88 0 136 40.5t48 116.5q0 64 -46 109t-138 45h-264v-311z" />
<glyph unicode="&#x45b;" horiz-adv-x="1017" d="M2 1171v140h94v155h176v-155h447v-140h-447v-270q193 125 334 125q162 0 245 -94t83 -268v-664h-176v641q0 213 -180 213q-62 0 -144.5 -30.5t-161.5 -82.5v-741h-176v1171h-94z" />
<glyph unicode="&#x45c;" horiz-adv-x="991" d="M102 0v1016h174v-432h173q28 0 46.5 2t42.5 9.5t41 22t34.5 41t29.5 64.5l98 293h181l-101 -295q-27 -82 -61.5 -129.5t-87.5 -61.5q64 -16 96.5 -63t62.5 -137l109 -330h-184l-88 281q-29 91 -74 120t-123 29h-195v-430h-174zM377 1169l147 363l166 -51l-205 -353z" />
<glyph unicode="&#x45e;" horiz-adv-x="958" d="M20 1016h191l123 -447l112 -405h7l143 405l154 447h188l-518 -1428h-189l150 430l-86 72zM195 1427h149q3 -47 43.5 -88t101.5 -41q68 0 108 41t40 88h145q-3 -35 -12.5 -68.5t-31 -70t-52.5 -63.5t-82 -44.5t-115 -17.5t-115.5 17.5t-84 45t-54 63t-30.5 70t-10 68.5z " />
<glyph unicode="&#x45f;" horiz-adv-x="1034" d="M100 0v1014h174v-858h488v858h174v-1014h-326v-287h-174v287h-336z" />
<glyph unicode="&#x490;" horiz-adv-x="1073" d="M125 0v1411h749v244h183v-416h-744v-1239h-188z" />
<glyph unicode="&#x491;" horiz-adv-x="845" d="M94 0v1016h565v211h170v-369h-557v-858h-178z" />
<glyph unicode="&#x4d9;" horiz-adv-x="989" d="M88 373v200h643v68q0 116 -63 170.5t-170 54.5q-63 0 -134 -23t-128 -77l-105 121q84 78 173 108.5t198 30.5q180 0 292.5 -96t112.5 -275v-268q0 -180 -113.5 -287.5t-295.5 -107.5q-184 0 -297 103t-113 278zM266 391q0 -121 64.5 -180t167.5 -59q99 0 165 60t66 173 v45h-463v-39z" />
<glyph unicode="&#x1e80;" horiz-adv-x="1765" d="M20 1411h205l160 -649l111 -467h10l112 469l164 647h199l168 -668l108 -448h11l106 455l164 661h205l-373 -1411h-213l-166 639l-102 434h-12l-107 -442l-164 -631h-213zM539 1784l120 125l304 -250l-76 -86z" />
<glyph unicode="&#x1e81;" horiz-adv-x="1437" d="M41 1016h182l94 -369l97 -381h8l121 371l96 281h178l107 -320l106 -332h10l88 359l99 391h174l-275 -1016h-168l-124 379l-105 317h-8l-103 -323l-120 -373h-168zM483 1481l166 51l148 -363l-109 -41z" />
<glyph unicode="&#x1e82;" horiz-adv-x="1765" d="M20 1411h205l160 -649l111 -467h10l112 469l164 647h199l168 -668l108 -448h11l106 455l164 661h205l-373 -1411h-213l-166 639l-102 434h-12l-107 -442l-164 -631h-213zM815 1597l303 250l121 -125l-348 -211z" />
<glyph unicode="&#x1e83;" horiz-adv-x="1437" d="M41 1016h182l94 -369l97 -381h8l121 371l96 281h178l107 -320l106 -332h10l88 359l99 391h174l-275 -1016h-168l-124 379l-105 317h-8l-103 -323l-120 -373h-168zM666 1169l147 363l166 -51l-205 -353z" />
<glyph unicode="&#x1e84;" horiz-adv-x="1765" d="M20 1411h205l160 -649l111 -467h10l112 469l164 647h199l168 -668l108 -448h11l106 455l164 661h205l-373 -1411h-213l-166 639l-102 434h-12l-107 -442l-164 -631h-213zM584 1661q0 40 29 69t69 29q41 0 70.5 -29t29.5 -69q0 -41 -29.5 -70.5t-70.5 -29.5 q-40 0 -69 29.5t-29 70.5zM983 1661q0 40 29.5 69t70.5 29t71 -29t30 -69q0 -41 -30 -70.5t-71 -29.5t-70.5 29.5t-29.5 70.5z" />
<glyph unicode="&#x1e85;" horiz-adv-x="1437" d="M41 1016h182l94 -369l97 -381h8l121 371l96 281h178l107 -320l106 -332h10l88 359l99 391h174l-275 -1016h-168l-124 379l-105 317h-8l-103 -323l-120 -373h-168zM418 1315q0 40 29 69t69 29q41 0 70.5 -29t29.5 -69q0 -41 -29.5 -71t-70.5 -30q-40 0 -69 30t-29 71z M817 1315q0 40 30 69t71 29t70.5 -29t29.5 -69q0 -41 -29.5 -71t-70.5 -30t-71 30t-30 71z" />
<glyph unicode="&#x1ef2;" horiz-adv-x="1099" d="M25 1411h206l164 -336l148 -330h14l152 340l159 326h205l-428 -868v-543h-190v541zM240 1722l120 125l304 -250l-76 -86z" />
<glyph unicode="&#x1ef3;" horiz-adv-x="958" d="M20 1016h191l123 -447l112 -405h7l143 405l154 447h188l-518 -1428h-189l150 430l-86 72zM240 1481l166 51l147 -363l-109 -41z" />
<glyph unicode="&#x2000;" horiz-adv-x="955" />
<glyph unicode="&#x2001;" horiz-adv-x="1911" />
<glyph unicode="&#x2002;" horiz-adv-x="955" />
<glyph unicode="&#x2003;" horiz-adv-x="1911" />
<glyph unicode="&#x2004;" horiz-adv-x="637" />
<glyph unicode="&#x2005;" horiz-adv-x="477" />
<glyph unicode="&#x2006;" horiz-adv-x="318" />
<glyph unicode="&#x2007;" horiz-adv-x="318" />
<glyph unicode="&#x2008;" horiz-adv-x="238" />
<glyph unicode="&#x2009;" horiz-adv-x="382" />
<glyph unicode="&#x200a;" horiz-adv-x="106" />
<glyph unicode="&#x2010;" horiz-adv-x="802" d="M106 471v154h590v-154h-590z" />
<glyph unicode="&#x2011;" horiz-adv-x="802" d="M106 471v154h590v-154h-590z" />
<glyph unicode="&#x2012;" horiz-adv-x="802" d="M106 471v154h590v-154h-590z" />
<glyph unicode="&#x2013;" horiz-adv-x="1024" d="M41 471v158h942v-158h-942z" />
<glyph unicode="&#x2014;" horiz-adv-x="2048" d="M41 471v158h1966v-158h-1966z" />
<glyph unicode="&#x2015;" horiz-adv-x="2048" d="M41 471v158h1966v-158h-1966z" />
<glyph unicode="&#x2018;" horiz-adv-x="602" d="M166 1155q0 109 63.5 201t151.5 133l61 -80q-50 -38 -77 -80t-31 -100q42 -3 68 -37.5t26 -81.5t-34 -83t-89 -36q-70 0 -104.5 49.5t-34.5 114.5z" />
<glyph unicode="&#x2019;" horiz-adv-x="602" d="M168 1073q50 38 77 80t31 100q-42 3 -68 37.5t-26 81.5t34 83t89 36q70 0 104.5 -49.5t34.5 -114.5q0 -109 -63.5 -201t-151.5 -133z" />
<glyph unicode="&#x201a;" horiz-adv-x="512" d="M117 -193q50 38 77 80.5t31 100.5q-94 5 -94 118q0 47 34 82t89 35q70 0 104.5 -49t34.5 -113q0 -109 -63 -200.5t-152 -132.5z" />
<glyph unicode="&#x201c;" horiz-adv-x="827" d="M125 1155q0 109 63.5 201t151.5 133l61 -80q-50 -38 -77 -80t-31 -100q42 -3 68 -37.5t26 -81.5t-34 -83t-89 -36q-70 0 -104.5 49.5t-34.5 114.5zM436 1155q0 109 63.5 201t151.5 133l62 -80q-102 -78 -109 -180q42 -3 68 -37.5t26 -81.5t-34 -83t-89 -36 q-70 0 -104.5 49.5t-34.5 114.5z" />
<glyph unicode="&#x201d;" horiz-adv-x="827" d="M127 1073q102 78 109 180q-42 3 -68.5 37.5t-26.5 81.5t34 83t89 36q70 0 104.5 -49.5t34.5 -114.5q0 -109 -63.5 -201t-151.5 -133zM438 1073q102 78 109 180q-42 3 -68 37.5t-26 81.5t34 83t88 36q70 0 105 -50t35 -114q0 -109 -63.5 -201t-151.5 -133z" />
<glyph unicode="&#x201e;" horiz-adv-x="864" d="M117 -193q50 38 77 80.5t31 100.5q-94 5 -94 118q0 47 34 82t89 35q70 0 104.5 -49t34.5 -113q0 -109 -63 -200.5t-152 -132.5zM481 -193q50 38 77.5 80.5t31.5 100.5q-94 5 -94 118q0 47 33.5 82t88.5 35q70 0 105 -49t35 -113q0 -109 -63 -200.5t-152 -132.5z" />
<glyph unicode="&#x2020;" horiz-adv-x="954" d="M47 799v135h348v491h164v-491h348v-135h-348v-1180h-164v1180h-348z" />
<glyph unicode="&#x2021;" horiz-adv-x="954" d="M47 274v136h348v389h-348v135h348v491h164v-491h348v-135h-348v-389h348v-136h-348v-655h-164v655h-348z" />
<glyph unicode="&#x2022;" horiz-adv-x="835" d="M154 561q0 111 78 189.5t190 78.5t191 -78.5t79 -189.5t-79 -189.5t-191 -78.5t-190 78.5t-78 189.5z" />
<glyph unicode="&#x2023;" horiz-adv-x="1036" d="M166 135v842l805 -410z" />
<glyph unicode="&#x2026;" horiz-adv-x="1591" d="M129 113q0 46 31.5 81t85.5 35q57 0 91 -35t34 -81q0 -53 -33.5 -88t-91.5 -35q-56 0 -86.5 34t-30.5 89zM666 113q0 46 31 81t85 35q57 0 91 -35t34 -81q0 -53 -33.5 -88t-91.5 -35q-56 0 -86 33.5t-30 89.5zM1212 113q0 46 31.5 81t85.5 35q57 0 91 -35t34 -81 q0 -53 -33.5 -88t-91.5 -35q-56 0 -86.5 34t-30.5 89z" />
<glyph unicode="&#x202f;" horiz-adv-x="382" />
<glyph unicode="&#x2030;" horiz-adv-x="2320" d="M98 791v391q0 106 85 171.5t206 65.5t206 -65.5t85 -171.5v-391q0 -106 -84.5 -172t-206.5 -66q-125 0 -208 65.5t-83 172.5zM248 807q0 -33 13.5 -58t35 -38.5t45 -20t47.5 -6.5q55 0 100.5 30t45.5 93v354q0 63 -45.5 94t-100.5 31q-53 0 -97 -31t-44 -94v-354z M317 -35l871 1495h137l-872 -1495h-136zM956 229v392q0 106 85 171.5t206 65.5t206 -65.5t85 -171.5v-392q0 -106 -84.5 -171.5t-206.5 -65.5q-126 0 -208.5 65t-82.5 172zM1106 246q0 -33 13.5 -58t35 -38.5t45 -20t47.5 -6.5q55 0 100.5 30t45.5 93v354q0 63 -45.5 94 t-100.5 31q-53 0 -97 -31t-44 -94v-354zM1640 229v392q0 106 85 171.5t206 65.5t206 -65.5t85 -171.5v-392q0 -106 -84.5 -171.5t-206.5 -65.5q-126 0 -208.5 65t-82.5 172zM1790 246q0 -33 13.5 -58t35 -38.5t45 -20t47.5 -6.5q55 0 100.5 30t45.5 93v354q0 63 -45.5 94 t-100.5 31q-53 0 -97 -31t-44 -94v-354z" />
<glyph unicode="&#x2039;" horiz-adv-x="614" d="M94 475l260 381h160l-252 -381l252 -381h-160z" />
<glyph unicode="&#x203a;" horiz-adv-x="614" d="M92 94l252 381l-252 381h160l260 -381l-260 -381h-160z" />
<glyph unicode="&#x2044;" horiz-adv-x="307" d="M-350 -35l870 1495h137l-872 -1495h-135z" />
<glyph unicode="&#x205f;" horiz-adv-x="477" />
<glyph unicode="&#x2070;" horiz-adv-x="667" d="M43 975v391q0 106 85 172t206 66t206 -66t85 -172v-391q0 -106 -84.5 -172t-206.5 -66q-125 0 -208 65.5t-83 172.5zM193 991q0 -33 13.5 -58t35 -38.5t45 -20t47.5 -6.5q55 0 100 30t45 93v355q0 63 -45 93.5t-100 30.5q-53 0 -97 -30.5t-44 -93.5v-355z" />
<glyph unicode="&#x2074;" horiz-adv-x="667" d="M25 870v111l305 612h155l-297 -598h228v246h149v-246h78v-125h-78v-125h-149v125h-391z" />
<glyph unicode="&#x2075;" horiz-adv-x="667" d="M45 838l86 106q92 -74 184 -74q20 0 43.5 5t50 16.5t43.5 36t17 57.5v105q0 50 -27 75t-71 25q-36 0 -93.5 -23.5t-95.5 -50.5l-121 55v424h529v-131h-381v-194q106 59 170 59q108 0 172.5 -62.5t64.5 -164.5v-131q0 -103 -87.5 -168.5t-209.5 -65.5q-145 0 -274 101z " />
<glyph unicode="&#x2076;" horiz-adv-x="667" d="M47 969v401q0 105 85.5 169.5t205.5 64.5q144 0 268 -101l-84 -106q-89 71 -180 71q-53 0 -99 -29.5t-46 -90.5v-115q111 63 190 63q107 0 170.5 -61.5t63.5 -161.5v-102q0 -105 -88 -169.5t-201 -64.5q-114 0 -199.5 63.5t-85.5 168.5zM197 991q0 -60 42 -90.5t93 -30.5 q52 0 95.5 31t43.5 90v70q0 50 -27.5 76t-72.5 26q-61 0 -174 -63v-109z" />
<glyph unicode="&#x2077;" horiz-adv-x="667" d="M49 1343v250h569v-108l-333 -740h-162l323 721h-253v-123h-144z" />
<glyph unicode="&#x2078;" horiz-adv-x="667" d="M45 989q0 58 31.5 107.5t89.5 79.5q-53 23 -82 71t-29 107q0 116 82.5 182t194.5 66q114 2 198 -65t84 -185q0 -53 -31 -101.5t-83 -72.5q57 -24 90 -76.5t33 -106.5q0 -63 -25.5 -113.5t-67 -81t-92 -47t-104.5 -16.5q-73 0 -137.5 27t-108 86t-43.5 139zM197 987 q0 -55 38 -86t99 -31t99 31t38 88q0 52 -40 84.5t-97 32.5q-59 0 -98 -32.5t-39 -86.5zM201 1354q0 -53 38.5 -85t94.5 -32q54 0 93.5 33.5t39.5 85.5q0 53 -40.5 82.5t-92.5 29.5q-55 0 -94 -29.5t-39 -84.5z" />
<glyph unicode="&#x2079;" horiz-adv-x="665" d="M35 1276v94q0 70 43 125t108 82t136 27q114 0 199 -63.5t85 -168.5v-401q0 -107 -84.5 -170.5t-206.5 -63.5q-152 0 -268 101l86 106q87 -72 178 -72q54 0 100 29.5t46 91.5v119q-108 -63 -189 -63q-106 0 -169.5 62.5t-63.5 164.5zM182 1284q0 -49 28 -75.5t73 -26.5 q13 0 28.5 3t27 6.5t31 12t27.5 12t31.5 15.5t28.5 14v105q0 60 -41.5 90t-93.5 30q-53 0 -96.5 -30t-43.5 -90v-66z" />
<glyph unicode="&#x207a;" horiz-adv-x="665" d="M29 1057v104h247v225h113v-225h248v-104h-248v-230h-113v230h-247z" />
<glyph unicode="&#x207b;" horiz-adv-x="522" d="M57 1018v121h408v-121h-408z" />
<glyph unicode="&#x207c;" horiz-adv-x="665" d="M29 940v113h608v-113h-608zM29 1167v111h608v-111h-608z" />
<glyph unicode="&#x207d;" horiz-adv-x="411" d="M55 1124q0 271 252 527l92 -54q-88 -100 -140 -226.5t-52 -240.5q0 -121 50.5 -246t135.5 -227l-80 -61q-258 258 -258 528z" />
<glyph unicode="&#x207e;" horiz-adv-x="403" d="M27 1597l90 54q254 -258 254 -527q0 -143 -73 -279t-187 -247l-80 59q85 101 135.5 226t50.5 247q0 115 -51.5 241t-138.5 226z" />
<glyph unicode="&#x207f;" horiz-adv-x="702" d="M53 561v674h133l11 -61q127 69 223 69q108 0 168.5 -64.5t60.5 -179.5v-438h-147v422q0 66 -29 95.5t-78 27.5q-75 0 -194 -68v-477h-148z" />
<glyph unicode="&#x2080;" horiz-adv-x="667" d="M43 45v391q0 106 85 172t206 66t206 -66t85 -172v-391q0 -106 -84.5 -172t-206.5 -66q-125 0 -208 65.5t-83 172.5zM193 61q0 -43 24 -72t54 -39.5t63 -10.5q55 0 100 29.5t45 92.5v355q0 63 -45 94t-100 31q-53 0 -97 -31t-44 -94v-355z" />
<glyph unicode="&#x2081;" horiz-adv-x="583" d="M78 510l201 156h131v-850h-146v671l-106 -79z" />
<glyph unicode="&#x2082;" horiz-adv-x="667" d="M45 -70q0 45 15 86t33.5 68.5t57.5 62t62.5 51t73.5 50.5q1 0 22 13.5t26.5 17.5t26 17.5t28 21t24 21t24 24t17 24t13 27t3.5 26.5q0 50 -47 76.5t-109 26.5q-98 0 -186 -68l-80 103q125 98 270 98q49 0 91.5 -7.5t82 -24.5t67.5 -43t44.5 -66t16.5 -91 q0 -77 -59.5 -145t-153.5 -133q-48 -30 -69 -44t-62.5 -46.5t-60.5 -61.5t-19 -57v-14h424v-127h-576v114z" />
<glyph unicode="&#x2083;" horiz-adv-x="665" d="M8 -106l80 108q38 -29 92 -46t99 -17q71 0 115 32t44 90t-39 91.5t-100 33.5h-109v129h111q50 0 92.5 33t42.5 92q0 50 -44.5 76.5t-104.5 26.5q-46 0 -99 -16.5t-92 -47.5l-71 105q48 40 122 64t156 24q117 0 198 -57t81 -175q0 -60 -32 -109t-95 -71q133 -58 133 -190 q0 -126 -85.5 -195.5t-215.5 -69.5q-159 0 -279 89z" />
<glyph unicode="&#x2084;" horiz-adv-x="667" d="M25 51l305 613h155l-297 -598h228v245h149v-245h78v-125h-78v-125h-149v125h-391v110z" />
<glyph unicode="&#x2085;" horiz-adv-x="667" d="M45 -92l86 106q91 -73 184 -73q20 0 43.5 5t50 16.5t43.5 35.5t17 57v105q0 50 -27 75t-71 25q-36 0 -93.5 -23.5t-95.5 -50.5l-121 56v424h529v-131h-381v-195q106 59 170 59q108 0 172.5 -62.5t64.5 -164.5v-131q0 -103 -87.5 -168.5t-209.5 -65.5q-145 0 -274 101z " />
<glyph unicode="&#x2086;" horiz-adv-x="667" d="M47 39v401q0 105 85.5 169.5t205.5 64.5q148 0 272 -101l-88 -106q-90 72 -180 72q-53 0 -99 -30t-46 -91v-115q113 64 190 64q107 0 170.5 -62t63.5 -162v-102q0 -105 -88 -169.5t-201 -64.5q-114 0 -199.5 63.5t-85.5 168.5zM197 61q0 -60 42 -90t93 -30 q52 0 95.5 30.5t43.5 89.5v70q0 50 -27.5 76t-72.5 26q-61 0 -174 -63v-109z" />
<glyph unicode="&#x2087;" horiz-adv-x="667" d="M49 414v250h569v-109l-333 -739h-162l323 721h-253v-123h-144z" />
<glyph unicode="&#x2088;" horiz-adv-x="667" d="M45 59q0 58 31.5 107.5t89.5 79.5q-53 23 -82 71t-29 107q0 116 82.5 182t194.5 66q114 2 198 -65t84 -185q0 -53 -31 -101.5t-83 -72.5q57 -24 90 -76t33 -106q0 -83 -44 -143.5t-108 -88t-137 -27.5t-137.5 27t-108 86t-43.5 139zM197 57q0 -55 38 -85.5t99 -30.5 t99 30.5t38 87.5q0 52 -40 84.5t-97 32.5q-59 0 -98 -32.5t-39 -86.5zM201 424q0 -53 38.5 -85t94.5 -32q54 0 93.5 33.5t39.5 85.5q0 53 -40.5 83t-92.5 30q-55 0 -94 -30t-39 -85z" />
<glyph unicode="&#x2089;" horiz-adv-x="665" d="M35 346v94q0 70 43 125t108 82t136 27q114 0 199 -63.5t85 -168.5v-401q0 -107 -84.5 -170.5t-206.5 -63.5q-152 0 -268 101l86 106q86 -71 178 -71q54 0 100 29t46 91v119q-108 -63 -189 -63q-106 0 -169.5 62.5t-63.5 164.5zM182 354q0 -49 28 -75.5t73 -26.5 q13 0 28.5 3t27 6.5t31 12t27.5 12t31.5 15.5t28.5 14v105q0 60 -41.5 90.5t-93.5 30.5q-53 0 -96.5 -30.5t-43.5 -90.5v-66z" />
<glyph unicode="&#x208a;" horiz-adv-x="665" d="M29 127v104h247v226h113v-226h248v-104h-248v-229h-113v229h-247z" />
<glyph unicode="&#x208b;" horiz-adv-x="522" d="M57 88v121h408v-121h-408z" />
<glyph unicode="&#x208c;" horiz-adv-x="665" d="M29 10v113h608v-113h-608zM29 238v110h608v-110h-608z" />
<glyph unicode="&#x208d;" horiz-adv-x="411" d="M55 246q0 270 252 526l92 -53q-88 -100 -140 -226.5t-52 -240.5q0 -121 50.5 -246t135.5 -227l-80 -62q-258 258 -258 529z" />
<glyph unicode="&#x208e;" horiz-adv-x="403" d="M27 719l90 53q254 -258 254 -526q0 -144 -73 -280t-187 -247l-80 60q85 101 135.5 226t50.5 247q0 115 -51.5 241t-138.5 226z" />
<glyph unicode="&#x20ab;" horiz-adv-x="1024" d="M156 0v141h743v-141h-743zM162 541v241q0 132 80.5 210.5t203.5 78.5q134 0 252 -39v121h-174v123h174v151h158v-151h90v-123h-90v-893h-139l-17 78q-142 -86 -268 -86q-123 0 -196.5 73t-73.5 216zM317 549q0 -80 33 -114t96 -34q45 0 124.5 26t127.5 62v388 q-130 47 -239 47q-64 2 -103 -37.5t-39 -120.5v-217z" />
<glyph unicode="&#x20ac;" horiz-adv-x="1024" d="M96 535v129h805v-129h-522v-50q0 -164 87 -244.5t226 -80.5q167 0 275 69l84 -147q-154 -96 -355 -96q-233 0 -370.5 127t-137.5 344v78h-92zM96 760v129h92v67q0 139 67.5 247t183 165t257.5 57q212 0 351 -92l-93 -151q-119 69 -258 69q-142 0 -229.5 -79.5 t-87.5 -245.5v-37h522v-129h-805z" />
<glyph unicode="&#x2103;" horiz-adv-x="1685" d="M41 1163q0 114 81 194.5t195 80.5t194.5 -80.5t80.5 -194.5t-80.5 -193t-194.5 -79t-195 79t-81 193zM160 1163q0 -65 45.5 -111t111.5 -46t112 46t46 111q0 66 -46 112t-112 46t-111.5 -46t-45.5 -112zM717 449v516q0 138 71.5 244.5t187 161t251.5 54.5q238 0 395 -127 l-94 -147q-55 45 -138 72.5t-163 27.5q-62 0 -117 -18.5t-101.5 -56t-74 -102t-27.5 -148.5v-441q0 -83 28 -147.5t74.5 -102t100.5 -56.5t113 -19q194 0 311 98l90 -145q-68 -55 -174.5 -91t-222.5 -36q-138 0 -253 54.5t-186 161.5t-71 247z" />
<glyph unicode="&#x2105;" horiz-adv-x="1542" d="M113 942v209q0 121 83 194.5t203 73.5q161 0 250 -96l-88 -106q-69 69 -155 69q-60 0 -106 -39t-46 -117v-159q0 -79 43.5 -116.5t108.5 -37.5q34 0 76.5 16t74.5 48l90 -103q-101 -96 -244 -96q-129 0 -209.5 72t-80.5 188zM301 -35l870 1495h138l-873 -1495h-135z M879 256v205q0 122 86 195t213 73q134 0 217.5 -72t83.5 -196v-205q0 -122 -87.5 -193t-215.5 -71q-129 0 -213 71t-84 193zM1020 281q0 -80 43.5 -117t116.5 -37q63 0 110 38t47 116v159q0 78 -47.5 117t-109.5 39q-65 0 -112.5 -39t-47.5 -117v-159z" />
<glyph unicode="&#x2109;" horiz-adv-x="1660" d="M41 1163q0 114 81 194.5t195 80.5t194.5 -80.5t80.5 -194.5t-80.5 -193t-194.5 -79t-195 79t-81 193zM160 1163q0 -65 45.5 -111t111.5 -46t112 46t46 111q0 66 -46 112t-112 46t-111.5 -46t-45.5 -112zM690 0v1411h942v-172h-753v-446h645v-172h-645v-621h-189z" />
<glyph unicode="&#x2113;" horiz-adv-x="1032" d="M61 436q95 50 181 117v453q0 118 24 205.5t68 138.5t99.5 75.5t123.5 24.5q64 0 120.5 -26.5t95 -86t38.5 -141.5q0 -163 -103.5 -327t-316.5 -365v-107q0 -77 17 -134.5t45.5 -89.5t62 -47t70.5 -15q65 0 129 58t108 161l115 -49q-61 -141 -154.5 -221t-212.5 -80 q-142 0 -234.5 99.5t-92.5 242.5v94q-41 -30 -138 -84zM391 655q147 167 215 291t68 248q0 23 -6 46t-19.5 46t-39 37t-60.5 14q-64 0 -111 -74.5t-47 -222.5v-385z" />
<glyph unicode="&#x2116;" horiz-adv-x="1935" d="M143 0v1409h179l458 -764l168 -289h6v1053h179v-1409h-170l-418 702l-215 377h-6v-1079h-181zM1268 997v170q0 115 86.5 187.5t212.5 72.5q130 0 213.5 -72t83.5 -188v-170q0 -116 -87 -187t-212 -71q-128 0 -212.5 70.5t-84.5 187.5zM1288 481v142h553v-142h-553z M1413 1018q0 -73 43 -109.5t111 -36.5q59 0 105 37.5t46 108.5v131q0 71 -46 109t-105 38q-60 0 -107 -38t-47 -109v-131z" />
<glyph unicode="&#x2117;" horiz-adv-x="1644" d="M115 698q0 152 55 286t149.5 228.5t226.5 149.5t281 55q150 0 282.5 -55t227.5 -150t150 -228.5t55 -285.5q0 -151 -55 -283.5t-150 -227t-227.5 -149t-282.5 -54.5q-204 0 -367 93t-254 256t-91 365zM244 698q0 -124 44.5 -233.5t122 -187.5t185.5 -123t231 -45 q250 0 417 168.5t167 420.5q0 168 -76 304t-209.5 213t-298.5 77q-164 0 -297.5 -77t-209.5 -213t-76 -304zM573 227v889h328q59 0 111 -15.5t94.5 -47t67 -85.5t24.5 -124q0 -102 -77 -184t-203 -82h-213v-351h-132zM705 698h204q73 0 113.5 45t40.5 105q0 71 -44 109 t-114 38h-200v-297z" />
<glyph unicode="&#x2122;" horiz-adv-x="1751" d="M78 1305v120h631v-120h-252v-721h-125v721h-254zM793 582v839h114l183 -344l114 -223h6l111 223l182 344h111v-839h-121v571h-6l-82 -162l-154 -284h-90l-145 262l-96 184h-7v-571h-120z" />
<glyph unicode="&#x2126;" horiz-adv-x="1271" d="M88 0v168h186q-159 126 -159 332v458q0 139 70.5 246.5t188.5 164t263 56.5q144 0 262 -57t188 -164.5t70 -245.5v-458q0 -207 -158 -332h189v-168h-447v207q97 29 161.5 107.5t64.5 203.5v410q0 82 -26.5 145.5t-73 101.5t-104.5 57t-126 19q-145 0 -238.5 -81 t-93.5 -242v-410q0 -126 64.5 -204t162.5 -107v-207h-444z" />
<glyph unicode="&#x212b;" horiz-adv-x="1222" d="M27 0l491 1411h191l493 -1411h-198l-111 317h-561l-109 -317h-196zM393 489h441l-113 336l-105 328h-8l-102 -328zM401 1638q0 87 62.5 148t150.5 61t149.5 -60.5t61.5 -148.5t-61.5 -149.5t-149.5 -61.5t-150.5 61.5t-62.5 149.5zM500 1638q0 -47 33.5 -79.5t80.5 -32.5 t80 32.5t33 79.5q0 46 -33 78.5t-80 32.5t-80.5 -32.5t-33.5 -78.5z" />
<glyph unicode="&#x212e;" horiz-adv-x="1673" d="M125 674q0 111 36.5 215t103 187.5t155 146.5t198 97t226.5 34q149 0 280 -53t225.5 -146t151.5 -224.5t62 -283.5h-1164l2 -377q66 -105 190 -170t255 -65t249 59t201 162h127q-106 -129 -258.5 -204t-320.5 -75q-145 0 -278.5 56t-229.5 150t-153.5 222.5t-57.5 268.5z M399 700h885v367q-60 102 -185 165.5t-253 63.5q-115 0 -233 -64t-212 -173z" />
<glyph unicode="&#x2153;" horiz-adv-x="1638" d="M133 1255l201 156h131v-850h-146v672l-106 -80zM240 -35l870 1495h137l-872 -1495h-135zM926 78l80 108q38 -29 91.5 -46t98.5 -17q71 0 115.5 32.5t44.5 90.5t-39 91.5t-100 33.5h-109v129h111q50 0 92.5 33t42.5 92q0 50 -44.5 76t-105.5 26q-46 0 -98.5 -16t-91.5 -47 l-72 104q48 40 122.5 64t156.5 24q117 0 197.5 -56.5t80.5 -174.5q0 -61 -32 -110t-95 -71q133 -58 133 -190q0 -126 -85 -195t-216 -69q-159 0 -278 88z" />
<glyph unicode="&#x2154;" horiz-adv-x="1638" d="M43 561v115q0 29 4.5 54.5t17 49.5t22.5 42.5t32.5 40.5t35 34.5t42.5 34t42.5 30t45.5 31.5q95 61 129 94q55 52 55 99q0 50 -47 76t-109 26q-99 0 -186 -67l-80 102q125 98 270 98q62 0 113.5 -12t95 -38t68 -72t24.5 -109q0 -132 -212 -279q-48 -30 -69 -44 t-62.5 -46.5t-60.5 -61.5t-19 -57v-14h423v-127h-575zM328 -35l870 1495h137l-872 -1495h-135zM1014 78l80 108q38 -29 91.5 -46t98.5 -17q71 0 115.5 32.5t44.5 90.5t-39 91.5t-100 33.5h-109v129h111q50 0 92.5 33t42.5 92q0 50 -44.5 76t-105.5 26q-46 0 -98.5 -16 t-91.5 -47l-72 104q48 40 122.5 64t156.5 24q117 0 197.5 -56.5t80.5 -174.5q0 -61 -32 -110t-95 -71q133 -58 133 -190q0 -126 -85 -195t-216 -69q-159 0 -278 88z" />
<glyph unicode="&#x2155;" horiz-adv-x="1638" d="M131 1255l201 156h131v-850h-146v672l-106 -80zM217 -35l870 1495h138l-873 -1495h-135zM934 92l86 107q92 -74 184 -74q20 0 43.5 5t50 16.5t43.5 36t17 57.5v104q0 50 -27 75t-71 25q-36 0 -93.5 -23t-95.5 -50l-121 55v424h529v-131h-381v-195q108 60 170 60 q108 0 172.5 -63t64.5 -165v-131q0 -103 -87.5 -168t-209.5 -65q-147 0 -274 100z" />
<glyph unicode="&#x2156;" horiz-adv-x="1638" d="M18 561v115q0 29 4.5 54.5t17 49.5t22.5 42.5t32.5 40.5t35 34.5t42.5 34t42.5 30t45.5 31.5q95 61 129 94q55 52 55 99q0 50 -46.5 76t-108.5 26q-100 0 -187 -67l-79 102q125 98 270 98q62 0 113.5 -12t95 -38t68 -72t24.5 -109q0 -131 -213 -279q-48 -30 -69 -44 t-62.5 -46.5t-60.5 -61.5t-19 -57v-14h424v-127h-576zM322 -35l870 1495h137l-872 -1495h-135zM1047 92l86 107q92 -74 184 -74q29 0 60.5 8t62 36t30.5 71v104q0 50 -27 75t-71 25q-36 0 -93 -23t-95 -50l-121 55v424h528v-131h-381v-195q108 60 170 60q108 0 173 -63 t65 -165v-131q0 -103 -87.5 -168t-209.5 -65q-147 0 -274 100z" />
<glyph unicode="&#x2157;" horiz-adv-x="1638" d="M31 639l80 109q38 -30 91.5 -47t98.5 -17q71 0 115.5 32.5t44.5 90.5t-39 91.5t-100 33.5h-109v129h111q50 0 93.5 33t43.5 92q0 50 -46.5 76t-107.5 26q-46 0 -98.5 -16t-91.5 -47l-72 104q48 40 122.5 64t156.5 24q43 0 82.5 -7.5t76.5 -25t64 -43.5t43 -66t16 -89 q0 -60 -33 -109t-96 -71q133 -58 133 -191q0 -126 -85 -195t-216 -69q-159 0 -278 88zM313 -35l871 1495h137l-872 -1495h-136zM1036 92l86 107q92 -74 185 -74q29 0 60.5 8t62 36t30.5 71v104q0 50 -27 75t-71 25q-36 0 -93 -23t-95 -50l-121 55v424h528v-131h-381v-195 q108 60 170 60q108 0 173 -63t65 -165v-131q0 -103 -87.5 -168t-209.5 -65q-148 0 -275 100z" />
<glyph unicode="&#x2158;" horiz-adv-x="1638" d="M16 686v111l306 612h155l-297 -598h228v246h149v-246h78v-125h-78v-125h-149v125h-392zM328 -35l870 1495h137l-872 -1495h-135zM1049 92l86 107q92 -74 184 -74q20 0 43.5 5t50 16.5t43.5 36t17 57.5v104q0 50 -27.5 75t-71.5 25q-36 0 -93 -23t-95 -50l-121 55v424h528 v-131h-381v-195q108 60 170 60q108 0 173 -63t65 -165v-131q0 -103 -87.5 -168t-209.5 -65q-147 0 -274 100z" />
<glyph unicode="&#x2159;" horiz-adv-x="1638" d="M90 1255l201 156h131v-850h-146v672l-106 -80zM258 -35l870 1495h138l-873 -1495h-135zM975 223v402q0 105 85.5 169t205.5 64q149 0 272 -100l-88 -107q-90 72 -180 72q-53 0 -99.5 -30t-46.5 -91v-115q113 64 191 64q107 0 170 -61.5t63 -161.5v-103q0 -105 -87.5 -169 t-200.5 -64q-114 0 -199.5 63t-85.5 168zM1124 246q0 -60 42.5 -90.5t93.5 -30.5q52 0 95.5 31t43.5 90v69q0 50 -28 76.5t-73 26.5q-60 0 -174 -64v-108z" />
<glyph unicode="&#x215a;" horiz-adv-x="1638" d="M45 653l86 107q92 -74 184 -74q20 0 43.5 5t50 16.5t43.5 36t17 57.5v104q0 50 -27 75.5t-71 25.5q-36 0 -93.5 -23.5t-95.5 -50.5l-121 55v424h529v-131h-381v-195q108 60 170 60q108 0 172.5 -62.5t64.5 -164.5v-132q0 -103 -87.5 -168t-209.5 -65q-147 0 -274 100z M301 -35l870 1495h138l-873 -1495h-135zM1020 223v402q0 105 85.5 169t205.5 64q149 0 272 -100l-88 -107q-90 72 -180 72q-53 0 -99.5 -30t-46.5 -91v-115q113 64 191 64q107 0 170 -61.5t63 -161.5v-103q0 -105 -87.5 -169t-200.5 -64q-114 0 -199.5 63t-85.5 168z M1169 246q0 -60 42.5 -90.5t93.5 -30.5q52 0 95.5 31t43.5 90v69q0 50 -28 76.5t-73 26.5q-60 0 -174 -64v-108z" />
<glyph unicode="&#x215b;" horiz-adv-x="1638" d="M119 1255l200 156h132v-850h-146v672l-106 -80zM223 -35l871 1495h137l-873 -1495h-135zM940 244q0 58 31.5 107t89.5 79q-53 23 -82 71t-29 107q0 116 82 182t195 66q114 2 198 -65t84 -185q0 -53 -31 -101.5t-83 -72.5q57 -24 90 -76t33 -106q0 -63 -25.5 -113.5 t-67 -81t-92 -47t-104.5 -16.5q-73 0 -137.5 27t-108 86t-43.5 139zM1092 242q0 -55 38 -86t99 -31t99 31t38 88q0 52 -40 84t-97 32q-59 0 -98 -32t-39 -86zM1096 608q0 -52 38.5 -84t94.5 -32q55 0 94 33t39 85q0 53 -40.5 83t-92.5 30q-55 0 -94 -30t-39 -85z" />
<glyph unicode="&#x215c;" horiz-adv-x="1638" d="M39 639l80 109q38 -30 91.5 -47t98.5 -17q71 0 115.5 32.5t44.5 90.5t-39 91.5t-100 33.5h-109v129h111q50 0 93.5 33t43.5 92q0 50 -46.5 76t-107.5 26q-46 0 -98.5 -16t-91.5 -47l-72 104q48 40 122.5 64t156.5 24q43 0 82.5 -7.5t76.5 -25t64 -43.5t43 -66t16 -89 q0 -60 -33 -109t-96 -71q133 -58 133 -191q0 -126 -85 -195t-216 -69q-159 0 -278 88zM305 -35l871 1495h137l-873 -1495h-135zM1022 244q0 58 31.5 107t89.5 79q-53 23 -82 71t-29 107q0 116 82 182t195 66q114 2 198 -65t84 -185q0 -53 -31 -101.5t-83 -72.5 q57 -24 89.5 -76t32.5 -106q0 -83 -44 -143.5t-107.5 -87.5t-136.5 -27t-137.5 27t-108 86t-43.5 139zM1174 242q0 -55 38 -86t99 -31t99 31t38 88q0 52 -40 84t-97 32q-59 0 -98 -32t-39 -86zM1178 608q0 -52 38.5 -84t94.5 -32q55 0 94 33t39 85q0 53 -40.5 83t-92.5 30 q-55 0 -94 -30t-39 -85z" />
<glyph unicode="&#x215d;" horiz-adv-x="1638" d="M47 653l86 107q92 -74 184 -74q20 0 43.5 5t50 16.5t43.5 36t17 57.5v104q0 50 -27 75.5t-71 25.5q-36 0 -93.5 -23.5t-95.5 -50.5l-121 55v424h529v-131h-381v-195q108 60 170 60q108 0 172.5 -62.5t64.5 -164.5v-132q0 -103 -87 -168t-209 -65q-148 0 -275 100z M313 -35l871 1495h137l-872 -1495h-136zM1014 244q0 58 31.5 107t89.5 79q-53 23 -82 71t-29 107q0 116 82 182t194 66q114 2 198.5 -65t84.5 -185q0 -53 -31.5 -101t-83.5 -73q57 -24 90 -76t33 -106q0 -83 -44 -143.5t-107.5 -87.5t-136.5 -27t-137.5 27t-108 86 t-43.5 139zM1165 242q0 -55 38.5 -86t99.5 -31t99 31t38 88q0 52 -40 84t-97 32q-59 0 -98.5 -32t-39.5 -86zM1169 608q0 -52 39 -84t95 -32q55 0 94 33t39 85q0 53 -40.5 83t-92.5 30q-55 0 -94.5 -30t-39.5 -85z" />
<glyph unicode="&#x215e;" horiz-adv-x="1638" d="M96 1159v250h570v-109l-334 -739h-162l324 721h-254v-123h-144zM248 -35l870 1495h137l-872 -1495h-135zM965 244q0 58 31 107t89 79q-53 23 -81.5 71t-28.5 107q0 116 82 182t194 66q114 2 198.5 -65t84.5 -185q0 -53 -31.5 -101t-83.5 -73q57 -24 90 -76t33 -106 q0 -63 -25.5 -113.5t-67 -81t-92 -47t-104.5 -16.5q-73 0 -137 27t-107.5 86t-43.5 139zM1116 242q0 -55 38 -86t99 -31t99.5 31t38.5 88q0 52 -40 84t-98 32q-59 0 -98 -32t-39 -86zM1120 608q0 -52 38.5 -84t94.5 -32q55 0 94 33t39 85q0 53 -40.5 83t-92.5 30 q-55 0 -94 -30t-39 -85z" />
<glyph unicode="&#x215f;" horiz-adv-x="897" d="M76 1255l200 156h132v-850h-146v672l-106 -80zM240 -35l870 1495h137l-872 -1495h-135z" />
<glyph unicode="&#x2190;" horiz-adv-x="1720" d="M168 657l450 455l95 -92l-299 -297h1181v-131l-1181 2l299 -297l-95 -92z" />
<glyph unicode="&#x2191;" horiz-adv-x="993" d="M53 979l453 451l455 -451l-93 -94l-297 291v-1174h-131v1174l-295 -291z" />
<glyph unicode="&#x2192;" horiz-adv-x="1720" d="M170 592v131h1182l-299 297l94 92l450 -455l-450 -452l-94 92l299 297z" />
<glyph unicode="&#x2193;" horiz-adv-x="993" d="M53 455l92 94l297 -299l-2 1182h131v-1182l297 299l93 -94l-455 -451z" />
<glyph unicode="&#x2196;" horiz-adv-x="1720" d="M252 678l2 639l639 2l2 -131l-422 2l1096 -1098l-90 -92l-1096 1098l2 -420h-133z" />
<glyph unicode="&#x2198;" horiz-adv-x="1720" d="M250 1227l90 92l1096 -1098l-2 420h133l-2 -639l-639 -2l-2 131l422 -2z" />
<glyph unicode="&#x21a9;" horiz-adv-x="1720" d="M70 657l450 455l94 -92l-299 -297h994q204 0 204 221v164q0 192 -204 192h-152v127h162q170 0 248 -88.5t78 -238.5v-156q0 -165 -89 -258.5t-264 -93.5l-977 2l299 -297l-94 -92z" />
<glyph unicode="&#x21aa;" horiz-adv-x="1695" d="M72 944v156q0 150 77.5 238.5t247.5 88.5h162v-127h-151q-205 0 -205 -192v-164q0 -101 48.5 -161t156.5 -60h993l-299 297l94 92l451 -455l-451 -452l-94 92l299 297l-977 -2q-175 0 -263.5 93.5t-88.5 258.5z" />
<glyph unicode="&#x21b3;" horiz-adv-x="1720" d="M229 592v825h133v-694h1047l-299 297l94 92l451 -455l-451 -452l-94 92l299 297z" />
<glyph unicode="&#x21b5;" horiz-adv-x="1720" d="M168 657l450 455l95 -92l-299 -297h1046v694h133v-825l-1179 2l299 -297l-95 -92z" />
<glyph unicode="&#x21de;" horiz-adv-x="993" d="M53 979l453 451l455 -451l-93 -94l-297 291l2 -406h226v-131h-226v-156h226v-131h-226v-352h-133v352h-225v131h225v156h-225v131h225l2 406l-297 -291z" />
<glyph unicode="&#x21df;" horiz-adv-x="993" d="M53 451l92 94l297 -297l-2 411h-225v132h225v155h-225v131h225v353h133v-353h226v-131h-226v-155h226v-132h-226l-2 -411l297 297l93 -94l-455 -451z" />
<glyph unicode="&#x21e0;" horiz-adv-x="1720" d="M129 657l451 455l94 -92l-303 -297h272v-131l-272 2l303 -297l-94 -92zM780 592v131h164v-131h-164zM1083 592v131h166v-131h-166zM1389 592v131h165v-131h-165z" />
<glyph unicode="&#x21e1;" horiz-adv-x="993" d="M49 977l453 450l454 -450l-92 -94l-297 299v-269h-131l2 269l-297 -299zM436 2v166h131v-166h-131zM436 307v166h131v-166h-131zM436 612v164h131v-164h-131z" />
<glyph unicode="&#x21e2;" horiz-adv-x="1720" d="M129 592v131h166v-131h-166zM434 592v131h166v-131h-166zM739 592v131h164v-131h-164zM1010 297l303 297l-273 -2v131h273l-303 297l94 92l450 -455l-450 -452z" />
<glyph unicode="&#x21e3;" horiz-adv-x="993" d="M49 453l92 94l297 -299l-2 268h131v-268l297 299l92 -94l-454 -451zM436 653v164h131v-164h-131zM436 956v166h131v-166h-131zM436 1262v165h131v-165h-131z" />
<glyph unicode="&#x21e4;" horiz-adv-x="1720" d="M154 213v891h133v-891h-133zM416 657l450 455l95 -92l-299 -297h1009v-131l-1009 2l299 -297l-95 -92z" />
<glyph unicode="&#x21e5;" horiz-adv-x="1720" d="M156 592v131h1009l-299 297l95 92l450 -455l-450 -452l-95 92l299 297zM1540 213v891h133v-891h-133z" />
<glyph unicode="&#x21e7;" horiz-adv-x="1720" d="M113 651l757 776l758 -776h-379v-651h-757v651h-379zM367 750h235v-641h539v641h233l-504 522z" />
<glyph unicode="&#x21ea;" horiz-adv-x="1720" d="M92 651l758 776l758 -776h-379v-444h-758v444h-379zM346 750h236v-431h538v431h234l-504 522zM471 0h758v-385h-758v385zM582 -109v-165h538v165h-538z" />
<glyph unicode="&#x2202;" horiz-adv-x="1085" d="M90 442q0 209 118 336t296 127q81 0 155.5 -31t161.5 -102q-7 122 -35 224t-76.5 181.5t-123.5 124t-170 44.5q-70 0 -137 -17v129q84 19 153 19q121 0 217.5 -40t160.5 -109.5t107 -166.5t61.5 -206.5t18.5 -235.5q0 -357 -133 -548t-352 -191q-187 0 -304.5 121 t-117.5 341zM252 446q0 -163 76.5 -244t191.5 -81q79 0 138.5 42t93.5 113.5t51.5 151.5t21.5 172q-77 89 -158 131.5t-151 42.5q-117 0 -190.5 -99.5t-73.5 -228.5z" />
<glyph unicode="&#x2206;" horiz-adv-x="1222" d="M27 0l491 1411h191l493 -1411h-1175zM285 172h655l-164 487l-158 488h-12l-151 -469z" />
<glyph unicode="&#x2207;" horiz-adv-x="1222" d="M27 1413h1175l-491 -1411h-191zM289 1241l164 -487l157 -488h13l151 469l170 506h-655z" />
<glyph unicode="&#x220f;" horiz-adv-x="1247" d="M111 -168v1579h1042v-1579h-192v1407h-662v-1407h-188z" />
<glyph unicode="&#x2211;" horiz-adv-x="1030" d="M63 -4l340 639l-340 618v158h885v-174h-657l332 -602l-344 -635h688v-168h-904v164z" />
<glyph unicode="&#x2212;" horiz-adv-x="1024" d="M59 537v131h904v-131h-904z" />
<glyph unicode="&#x221a;" horiz-adv-x="1150" d="M33 750l284 94l289 -770l357 1558h153l-432 -1798h-139l-324 848l-145 -49z" />
<glyph unicode="&#x221e;" horiz-adv-x="1490" d="M82 557q0 128 94 221.5t225 93.5q104 0 197.5 -68.5t153.5 -162.5q83 110 168.5 170.5t197.5 60.5q130 0 215.5 -89t85.5 -226q0 -129 -93 -223t-226 -94q-163 0 -348 229q-43 -53 -77 -87.5t-80 -70.5t-98.5 -53.5t-111.5 -17.5q-129 0 -216 89.5t-87 227.5zM209 557 q0 -80 56 -135t132 -55q80 0 152 53t119 135q-44 75 -116.5 132.5t-150.5 57.5q-76 0 -134 -56t-58 -132zM831 557q38 -47 62 -73t60 -57t73 -45.5t78 -14.5q75 0 131.5 57t56.5 133q0 80 -53.5 134t-128.5 54q-79 0 -145 -49t-134 -139z" />
<glyph unicode="&#x2227;" horiz-adv-x="1085" d="M78 0l403 1071h129l404 -1071h-152l-317 854l-320 -854h-147z" />
<glyph unicode="&#x2228;" horiz-adv-x="1085" d="M78 1071h147l320 -860l317 860h152l-404 -1071h-129z" />
<glyph unicode="&#x2229;" horiz-adv-x="1085" d="M84 0v643q0 85 31.5 161.5t88.5 135.5t144.5 94t192.5 35q213 0 340 -119t127 -307v-643h-148v643q0 119 -87.5 206t-231.5 87q-145 0 -230.5 -83t-85.5 -210v-643h-141z" />
<glyph unicode="&#x222a;" horiz-adv-x="1085" d="M84 426v643h141v-643q0 -127 85 -209t231 -82q144 0 231.5 87t87.5 204v643h148v-643q0 -188 -127 -307t-340 -119q-105 0 -192.5 35t-144.5 94t-88.5 135.5t-31.5 161.5z" />
<glyph unicode="&#x222b;" horiz-adv-x="647" d="M-76 -287l33 115q38 -8 100 -8q50 0 82.5 27t56 104t33.5 211q19 256 19 741q0 174 16 305q12 98 32 165.5t55 117t88.5 73t129.5 23.5q83 0 150 -26l-33 -117q-45 12 -100 12q-59 0 -91.5 -28.5t-51.5 -101t-29 -212.5q-5 -77 -6.5 -358.5t-6.5 -384.5 q-12 -229 -22 -303q-26 -201 -102.5 -290t-219.5 -89q-72 0 -133 24z" />
<glyph unicode="&#x2248;" horiz-adv-x="1024" d="M53 395q102 172 277 172q53 0 123.5 -31.5t138 -62.5t115.5 -31t83 26t78 85l109 -80q-59 -94 -122.5 -137t-154.5 -43q-45 0 -115 31.5t-141 63.5t-118 32q-52 0 -86.5 -24t-77.5 -81zM53 719q102 172 277 172q53 0 123.5 -31.5t138 -62.5t115.5 -31t83 26t78 85 l109 -80q-59 -94 -122.5 -137.5t-154.5 -43.5q-36 0 -88.5 20t-97 43.5t-97.5 43.5t-91 20q-52 0 -86.5 -23.5t-77.5 -80.5z" />
<glyph unicode="&#x2260;" horiz-adv-x="1024" d="M59 117l166 221h-166v137h271l192 256h-463v137h566l192 254h148l-193 -254h191v-137h-295l-193 -256h488v-137h-592l-166 -221h-146z" />
<glyph unicode="&#x2264;" horiz-adv-x="1085" d="M90 6v131h903v-131h-903zM90 547v123l901 334v-146l-735 -250l735 -248v-145z" />
<glyph unicode="&#x2265;" horiz-adv-x="1085" d="M90 2v131h903v-131h-903zM92 211v145l735 248l-735 250v145l901 -333v-123z" />
<glyph unicode="&#x2303;" horiz-adv-x="1628" d="M221 848l592 592l594 -592l-104 -107l-490 490l-485 -490z" />
<glyph unicode="&#x2318;" horiz-adv-x="1732" d="M133 276q0 122 79.5 205.5t213.5 83.5h145v297h-145q-119 0 -206 86t-87 203q0 122 83 206.5t210 84.5q139 0 214 -82.5t75 -208.5v-147h295v147q0 122 81.5 206.5t208.5 84.5q135 0 212 -83.5t77 -207.5q0 -115 -85 -202t-204 -87h-147v-297h147q139 0 214 -83t75 -206 q0 -124 -75 -207t-214 -83q-134 0 -212 83.5t-78 206.5v148h-295v-148q0 -122 -75.5 -206t-213.5 -84q-132 0 -212.5 83t-80.5 207zM276 276q0 -63 43 -106t107 -43q61 0 103 43t42 106v148h-145q-64 0 -107 -43.5t-43 -104.5zM276 1151q0 -63 43 -105t107 -42h145v147 q0 61 -42.5 104t-102.5 43q-63 0 -106.5 -42t-43.5 -105zM715 565h295v297h-295v-297zM1153 276q0 -63 42.5 -106t104.5 -43t105 43t43 106q0 60 -43.5 104t-104.5 44h-147v-148zM1153 1004h147q62 0 105 43t43 104t-43 104t-105 43t-104.5 -42t-42.5 -105v-147z" />
<glyph unicode="&#x2324;" horiz-adv-x="1628" d="M221 610l592 623l594 -623l-104 -106l-490 520l-485 -520zM221 1276v149h1188v-149h-1188z" />
<glyph unicode="&#x2325;" horiz-adv-x="2433" d="M90 1243v150h580l583 -1246h1074v-147h-1194l-584 1243h-459zM1081 1243v150h1246v-150h-1246z" />
<glyph unicode="&#x2326;" horiz-adv-x="2328" d="M197 0v1423h1343l690 -712l-690 -711h-1343zM338 141h1124l561 570l-561 569h-1124v-1139zM522 393l318 318l-318 319l101 100l315 -317l319 317l101 -100l-318 -319l318 -318l-101 -100l-319 319l-315 -319z" />
<glyph unicode="&#x232b;" horiz-adv-x="2385" d="M158 711l690 712h1343v-1423h-1343zM365 711l561 -570h1124v1139h-1124zM1010 393l317 318l-317 319l100 100l320 -317l315 317l100 -100l-317 -319l317 -318l-100 -100l-315 319l-320 -319z" />
<glyph unicode="&#x235f;" horiz-adv-x="1646" d="M94 711q0 196 97 362.5t264 263.5t364 97q196 0 362.5 -97t263.5 -264t97 -364h-2q0 -196 -97 -362.5t-264 -263.5t-364 -97q-196 0 -362 97t-262.5 264t-96.5 364zM211 709q0 -164 81 -303t220 -219.5t303 -80.5q123 0 235 48t192.5 128.5t128.5 192.5t48 234 q0 123 -48 235t-128.5 192.5t-192.5 128.5t-235 48t-235 -48t-192.5 -128.5t-128.5 -192.5t-48 -235zM311 848l334 65l154 304l164 -299l335 -70l-231 -232l53 -346l-321 156l-289 -156l43 338z" />
<glyph unicode="&#x23cf;" horiz-adv-x="1748" d="M135 186v279h1438v-279h-1438zM135 643l719 719l719 -719h-1438z" />
<glyph unicode="&#x25a0;" horiz-adv-x="1792" d="M252 82v1296h1296v-1296h-1296z" />
<glyph unicode="&#x25a1;" horiz-adv-x="1722" d="M170 0v1419h1407v-1419h-1407zM293 121h1163v1175h-1163v-1175z" />
<glyph unicode="&#x25b2;" horiz-adv-x="1679" d="M162 360l719 719l718 -719h-1437z" />
<glyph unicode="&#x25b6;" horiz-adv-x="1218" d="M283 0v1436l718 -717z" />
<glyph unicode="&#x25bc;" horiz-adv-x="1679" d="M162 1079h1437l-718 -719z" />
<glyph unicode="&#x25c0;" horiz-adv-x="1218" d="M207 719l719 717v-1436z" />
<glyph unicode="&#x25ca;" horiz-adv-x="1085" d="M113 647q55 108 178 345t178 345h143l351 -690l-353 -686h-141q-81 159 -356 686zM297 649q190 -375 244 -489q41 81 120.5 243.5t120.5 243.5l-243 494z" />
<glyph unicode="&#x25cf;" horiz-adv-x="1726" d="M227 731q0 105 34 204.5t95.5 178.5t142 139t178.5 92.5t200 32.5q169 0 318.5 -87.5t239 -237.5t89.5 -322q0 -128 -52 -247.5t-139 -207.5t-207 -141t-249 -53q-130 0 -250.5 52t-208 139.5t-139.5 207.5t-52 250z" />
<glyph unicode="&#x25fc;" horiz-adv-x="1013" d="M0 0v1014h1014v-1014h-1014z" />
<glyph unicode="&#x2602;" horiz-adv-x="1597" d="M102 745q0 126 62.5 252.5t158.5 219t216 150.5t231 58v64h59v-66q111 0 230 -57.5t214.5 -149.5t157 -218t62.5 -253q-33 37 -81.5 58.5t-102.5 21.5q-102 0 -176 -80h-5q-49 80 -153 80q-57 0 -127 -28v-623q0 -86 -54 -138t-149 -52q-89 0 -144 50.5t-55 149.5v27h97 v-27q0 -55 26.5 -82.5t71.5 -27.5q104 0 104 114v607q-52 24 -106 24q-91 0 -174 -76q-68 80 -178 80q-112 0 -183 -80zM1493 745l2 -2z" />
<glyph unicode="&#x2605;" horiz-adv-x="1667" d="M86 874l510 99l233 463l252 -457l512 -105l-354 -354l80 -528l-490 239l-438 -239l66 514z" />
<glyph unicode="&#x2606;" horiz-adv-x="1716" d="M80 887l520 100l231 461l254 -457l521 -104l-361 -361l80 -530l-491 240l-447 -244l68 522zM199 850l313 -313l-55 -443l377 203l421 -203l-71 453l305 303l-436 88l-219 395l-201 -401z" />
<glyph unicode="&#x2610;" horiz-adv-x="1722" d="M170 0v1419h1407v-1419h-1407zM293 121h1163v1175h-1163v-1175z" />
<glyph unicode="&#x2611;" horiz-adv-x="1740" d="M170 0v1419h1407v-1419h-1407zM293 121h1163v1175h-1163v-1175zM397 745q32 27 74.5 39.5t75.5 12.5q24 0 61 -57.5t70 -149t45 -176.5q83 139 194 288t248 293t250 217l23 -20q-100 -74 -238 -260.5t-243 -364t-177 -321.5q-107 -20 -151 -43q-40 153 -110 329.5 t-122 212.5z" />
<glyph unicode="&#x2612;" horiz-adv-x="1740" d="M170 0v1419h1407v-1419h-1407zM293 121h1163v1175h-1163v-1175zM379 326l389 389l-389 389l96 98l391 -393l387 393l97 -96l-387 -387l393 -393l-101 -97l-391 394l-391 -398z" />
<glyph unicode="&#x2622;" horiz-adv-x="1714" d="M102 719q0 109 34 217.5t100 203.5t155 168t208.5 115.5t252.5 42.5q158 0 299 -57.5t242 -155.5t160 -234.5t59 -289.5q0 -155 -58.5 -296t-159 -244t-241 -163.5t-297.5 -60.5q-155 0 -294.5 59t-240.5 159.5t-160 240t-59 295.5zM176 719q0 -141 55 -267.5t147 -216.5 t218 -143t264 -53q132 0 256.5 55t216 145t146.5 212t55 251q0 156 -58 289.5t-153.5 222t-218 138t-252.5 49.5q-182 0 -338 -92.5t-247 -249.5t-91 -340zM236 719q0 176 73.5 305t233.5 233l202 -352q-94 -58 -106 -186h-403zM547 184l201 348q61 -28 110 -28q42 0 103 28 l204 -350q-162 -84 -315 -84q-164 0 -303 86zM692 719q0 69 48 117.5t116 48.5q66 0 113 -50t47 -116q0 -65 -47 -112.5t-113 -47.5q-65 0 -114.5 46.5t-49.5 113.5zM961 909l204 351q149 -82 230.5 -222.5t81.5 -318.5h-404q-12 127 -112 190z" />
<glyph unicode="&#x2623;" horiz-adv-x="1753" d="M113 494q0 282 319 387q0 256 93 381.5t300 164.5l11 -30q-279 -80 -279 -310q0 -138 78 -219t227 -100v-45q-43 -10 -64.5 -36t-21.5 -58q0 -15 8 -39l-39 -21q-124 148 -272 148q-120 0 -215.5 -92.5t-95.5 -212.5q0 -44 12 -115l-22 -10q-39 115 -39 207zM207 180 l22 17q138 -123 240 -123q135 0 230.5 93.5t95.5 225.5q0 79 -37 146l45 26q23 -37 78 -37q37 0 67 35l47 -24q-34 -80 -34 -148q0 -126 92 -218.5t215 -92.5q137 0 250 110l24 -16q-73 -100 -153.5 -137t-196.5 -37q-188 0 -315 109q-143 -109 -318 -109q-112 0 -192.5 39 t-159.5 141zM463 606q0 42 8 78q68 -2 111 -25v-61q0 -157 180 -246q-11 -65 -43 -106q-116 47 -186 146t-70 214zM623 946q133 88 254 88q129 0 256 -88q-25 -54 -76 -88q-89 62 -176 62q-83 0 -183 -62q-48 30 -75 88zM891 723v45q147 19 225 102.5t78 221.5 q0 224 -242 303l11 32q185 -41 273.5 -158t88.5 -317q0 -42 -2 -67q157 -62 236 -169.5t79 -246.5q0 -96 -36 -197l-27 9q16 88 16 133q0 124 -93 209.5t-226 85.5q-153 0 -260 -146l-47 27q6 21 6 41q0 70 -80 92zM991 352q180 89 180 254q0 35 -2 53q36 21 111 21 q8 -33 8 -76q0 -111 -69 -207t-191 -151q-32 58 -37 106z" />
<glyph unicode="&#x262e;" horiz-adv-x="1708" d="M96 723q0 202 100 372t271 267.5t373 97.5q156 0 296.5 -58t241.5 -156t160 -233t59 -284q0 -155 -60 -295t-162 -240t-242.5 -158.5t-296.5 -58.5q-147 0 -283.5 60t-236.5 160.5t-160 238.5t-60 287zM229 719q0 -104 17.5 -161t66.5 -142l473 430v489 q-248 -31 -402.5 -200.5t-154.5 -415.5zM383 324q109 -102 196.5 -155.5t206.5 -72.5v596zM903 100q223 25 410 224l-410 368v-592zM903 846l479 -428q80 140 80 311q0 239 -151 403.5t-408 202.5v-489z" />
<glyph unicode="&#x262f;" horiz-adv-x="1695" d="M102 729q0 162 64.5 303t169.5 235.5t238 148.5t272 54q165 0 306.5 -60.5t237 -163t149.5 -238.5t54 -287q0 -164 -60.5 -304t-162 -234.5t-236.5 -147.5t-284 -53q-162 0 -303.5 62t-238 165.5t-151.5 239t-55 280.5zM500 1337l10 -8q43 12 86 12q81 0 152.5 -31.5 t118 -79.5t73.5 -104.5t27 -107.5q0 -105 -41.5 -195t-137.5 -186q-39 -39 -57 -99t-18 -112q0 -151 94 -236.5t262 -85.5q87 0 174 49.5t154 131.5t109 198t42 240q0 135 -51 262.5t-140.5 227t-223 159.5t-287.5 60q-186 0 -346 -95zM518 999q0 -43 27.5 -72.5t72.5 -29.5 q44 0 74.5 30t30.5 72q0 39 -30 70t-77 31q-37 0 -67.5 -29t-30.5 -72zM977 457q0 44 31 75t67 31q43 0 74 -32.5t31 -73.5q0 -43 -32 -72t-73 -29t-69.5 31.5t-28.5 69.5z" />
<glyph unicode="&#x2672;" horiz-adv-x="1882" d="M102 862h433l174 -375l-123 72l-64 -57q-33 -29 -33 -60q0 -51 64 -51h393v-432h-379q-42 0 -69.5 11t-40 25.5t-29.5 43.5l-231 426q-25 46 -25 106q0 122 66 191zM188 831l97 -65q-82 -79 -82 -191q0 -184 217 -184h57q-22 16 -22 49q0 41 39 80l86 78l57 -35l-125 268 h-324zM268 391l181 -334q22 -38 43.5 -54.5t64.5 -16.5h361v379h-486q-65 0 -96 5.5t-68 20.5zM365 1026l210 340q49 78 142 78h497q42 0 57.5 -6t28.5 -27l109 -178l131 78l-172 -393l-432 43l123 77l-94 166l-254 -379zM408 1032l294 -170l246 371q-89 174 -243 174 q-60 0 -99 -57zM801 1417q39 -8 75 -39t57.5 -62.5t51.5 -84.5l115 -205l-76 -47l326 -31l137 297l-82 -53l-121 190q-12 20 -26 27.5t-39 7.5h-418zM1001 160l226 346v-144h223l-236 400l353 209l194 -361q19 -40 19 -61q0 -35 -25 -80l-221 -397q-39 -71 -61.5 -92 t-71.5 -21h-172v-158zM1036 160l166 -266v92h197q53 0 84 53l211 385q-62 -57 -130.5 -74.5t-189.5 -17.5h-172v90zM1251 754l236 -392q86 8 172 66t86 125q0 21 -12 49l-183 326z" />
<glyph unicode="&#x2673;" horiz-adv-x="1779" d="M102 213q0 74 50 160l149 268l-94 51l14 27l242 45l86 -229l-17 -31l-96 59l-131 -237q-26 -50 -26 -88q0 -40 29 -64t91 -24h406v-150h-436q-121 0 -194 58.5t-73 154.5zM449 897l217 379q84 145 219 145q64 0 122.5 -37t94.5 -102l149 -264l105 59l12 -28l-90 -230 l-248 43l-12 25l100 55l-145 246q-33 61 -92 61q-27 0 -54 -20t-45 -51l-202 -357zM739 662v116l86 62h101v-594h-113v467zM913 74l160 200l27 -4v-120h262q71 0 106 24t35 66q0 36 -33 94l-204 348l137 80l227 -397q47 -78 47 -150q0 -96 -83 -155.5t-210 -59.5h-286v-121 h-33z" />
<glyph unicode="&#x2674;" horiz-adv-x="1779" d="M102 213q0 74 50 160l149 268l-94 51l14 27l242 45l86 -229l-17 -31l-96 59l-131 -237q-26 -50 -26 -88q0 -40 29 -64t91 -24h406v-150h-436q-121 0 -194 58.5t-73 154.5zM449 897l217 379q84 145 219 145q64 0 122.5 -37t94.5 -102l149 -264l105 59l12 -28l-90 -230 l-248 43l-12 25l100 55l-145 246q-33 61 -92 61q-27 0 -54 -20t-45 -51l-202 -357zM674 254v94l219 275q29 33 29 67q0 25 -17.5 42.5t-46.5 17.5q-28 0 -48 -24t-26 -64l-106 12q12 83 62 130.5t118 47.5q76 0 124 -42t48 -118q0 -66 -43 -121l-170 -213h203v-104h-346z M913 74l160 200l27 -4v-120h262q71 0 106 24t35 66q0 36 -33 94l-204 348l137 80l227 -397q47 -78 47 -150q0 -96 -83 -155.5t-210 -59.5h-286v-121h-33z" />
<glyph unicode="&#x2675;" horiz-adv-x="1779" d="M102 213q0 74 50 160l149 268l-94 51l14 27l242 45l86 -229l-17 -31l-96 59l-131 -237q-26 -50 -26 -88q0 -40 29 -64t91 -24h406v-150h-436q-121 0 -194 58.5t-73 154.5zM449 897l217 379q84 145 219 145q64 0 122.5 -37t94.5 -102l149 -264l105 59l12 -28l-90 -230 l-248 43l-12 25l100 55l-145 246q-33 61 -92 61q-27 0 -54 -20t-45 -51l-202 -357zM674 406l104 14q14 -72 72 -72q36 0 58 25t22 63q0 37 -21.5 57.5t-54.5 20.5h-59v98h53q32 0 54 19.5t22 48.5t-21 49.5t-49 20.5q-22 0 -41.5 -20t-28.5 -54l-106 12q13 72 63 118t113 46 q86 0 131 -48.5t45 -121.5q0 -72 -55 -115q59 -46 59 -129q0 -85 -51 -137.5t-135 -52.5q-63 0 -111.5 37t-62.5 121zM913 74l160 200l27 -4v-120h262q71 0 106 24t35 66q0 36 -33 94l-204 348l137 80l227 -397q47 -78 47 -150q0 -96 -83 -155.5t-210 -59.5h-286v-121h-33z " />
<glyph unicode="&#x2676;" horiz-adv-x="1779" d="M102 213q0 74 50 160l149 268l-94 51l14 27l242 45l86 -229l-17 -31l-96 59l-131 -237q-26 -50 -26 -88q0 -40 29 -64t91 -24h406v-150h-436q-121 0 -194 58.5t-73 154.5zM449 897l217 379q84 145 219 145q64 0 122.5 -37t94.5 -102l149 -264l105 59l12 -28l-90 -230 l-248 43l-12 25l100 55l-145 246q-33 61 -92 61q-27 0 -54 -20t-45 -51l-202 -357zM633 342v88l196 422h115l-190 -410h118v144h105v-144h45v-100h-45v-84h-105v84h-239zM913 74l160 200l27 -4v-120h262q71 0 106 24t35 66q0 36 -33 94l-204 348l137 80l227 -397 q47 -78 47 -150q0 -96 -83 -155.5t-210 -59.5h-286v-121h-33z" />
<glyph unicode="&#x2677;" horiz-adv-x="1779" d="M102 213q0 74 50 160l149 268l-94 51l14 27l242 45l86 -229l-17 -31l-96 59l-131 -237q-26 -50 -26 -88q0 -40 29 -64t91 -24h406v-150h-436q-121 0 -194 58.5t-73 154.5zM449 897l217 379q84 145 219 145q64 0 122.5 -37t94.5 -102l149 -264l105 59l12 -28l-90 -230 l-248 43l-12 25l100 55l-145 246q-33 61 -92 61q-27 0 -54 -20t-45 -51l-202 -357zM684 397l104 21q17 -78 74 -78q80 0 80 117q0 102 -72 102q-37 0 -67 -51h-96v332h309v-103h-209v-96q35 18 80 18q77 0 117 -53t40 -151q0 -97 -46.5 -155t-135.5 -58q-145 0 -178 155z M913 74l160 200l27 -4v-120h262q71 0 106 24t35 66q0 36 -33 94l-204 348l137 80l227 -397q47 -78 47 -150q0 -96 -83 -155.5t-210 -59.5h-286v-121h-33z" />
<glyph unicode="&#x2678;" horiz-adv-x="1779" d="M102 213q0 74 50 160l149 268l-94 51l14 27l242 45l86 -229l-17 -31l-96 59l-131 -237q-26 -50 -26 -88q0 -40 29 -64t91 -24h406v-150h-436q-121 0 -194 58.5t-73 154.5zM449 897l217 379q84 145 219 145q64 0 122.5 -37t94.5 -102l149 -264l105 59l12 -28l-90 -230 l-248 43l-12 25l100 55l-145 246q-33 61 -92 61q-27 0 -54 -20t-45 -51l-202 -357zM694 426q0 67 33 129q16 30 69.5 131t80.5 154h114l-112 -232h12q70 0 116 -52t46 -124q0 -93 -53.5 -141.5t-129.5 -48.5q-81 0 -128.5 47t-47.5 137zM801 428q0 -40 19.5 -63t51.5 -23 q30 0 50 23.5t20 62.5t-20 60.5t-50 21.5t-50.5 -21.5t-20.5 -60.5zM913 74l160 200l27 -4v-120h262q71 0 106 24t35 66q0 36 -33 94l-204 348l137 80l227 -397q47 -78 47 -150q0 -96 -83 -155.5t-210 -59.5h-286v-121h-33z" />
<glyph unicode="&#x2679;" horiz-adv-x="1779" d="M102 213q0 74 50 160l149 268l-94 51l14 27l242 45l86 -229l-17 -31l-96 59l-131 -237q-26 -50 -26 -88q0 -40 29 -64t91 -24h406v-150h-436q-121 0 -194 58.5t-73 154.5zM449 897l217 379q84 145 219 145q64 0 122.5 -37t94.5 -102l149 -264l105 59l12 -28l-90 -230 l-248 43l-12 25l100 55l-145 246q-33 61 -92 61q-27 0 -54 -20t-45 -51l-202 -357zM692 641v188h352v-90l-200 -503h-115l195 489h-125v-84h-107zM913 74l160 200l27 -4v-120h262q71 0 106 24t35 66q0 36 -33 94l-204 348l137 80l227 -397q47 -78 47 -150q0 -96 -83 -155.5 t-210 -59.5h-286v-121h-33z" />
<glyph unicode="&#x267a;" horiz-adv-x="1779" d="M102 213q0 74 50 160l149 268l-94 51l14 27l242 45l86 -229l-17 -31l-96 59l-131 -237q-26 -50 -26 -88q0 -40 29 -64t91 -24h406v-150h-436q-121 0 -194 58.5t-73 154.5zM449 897l217 379q84 145 219 145q64 0 122.5 -37t94.5 -102l149 -264l105 59l12 -28l-90 -230 l-248 43l-12 25l100 55l-145 246q-33 61 -92 61q-27 0 -54 -20t-45 -51l-202 -357zM913 74l160 200l27 -4v-120h262q71 0 106 24t35 66q0 36 -33 94l-204 348l137 80l227 -397q47 -78 47 -150q0 -96 -83 -155.5t-210 -59.5h-286v-121h-33z" />
<glyph unicode="&#x267b;" horiz-adv-x="1820" d="M102 606q0 14 11 47l102 176l-84 41h330l160 -276l-95 55l-147 -268q-68 -107 -68 -166l-180 311q-29 51 -29 80zM326 1032l170 299q69 92 161 92q67 0 124 -35t93 -83l-247 -451zM358 172q0 59 50 150h510v-322h-388q-59 0 -115.5 43t-56.5 129zM823 1421h371 q53 0 74.5 -10.5t34.5 -36.5l94 -168l98 56l-168 -295h-342l107 67l-152 273q-37 64 -117 114zM961 164l176 280v-122h305q37 0 94.5 16.5t99.5 44.5l-204 -311q-48 -72 -129 -72h-166v-119zM1202 836l309 178l177 -303q30 -48 30 -107q0 -93 -78 -158t-170 -65h-16z" />
<glyph unicode="&#x267c;" horiz-adv-x="1712" d="M102 721q0 153 60 292.5t161 240.5t240.5 161t292.5 60t292.5 -60t240.5 -161t161 -240.5t60 -292.5t-60 -292.5t-161 -240.5t-240.5 -161t-292.5 -60t-292.5 60t-240.5 161t-161 240.5t-60 292.5zM242 651q0 -25 20 -61l141 -228q0 40 48 123l112 199l70 -39l-119 205 h-246l62 -29l-78 -131q-10 -17 -10 -39zM414 971l227 -133l184 338q-71 88 -163 88q-39 0 -71 -19t-50 -51zM438 330q0 -65 42 -98t85 -33h291v239h-381q-37 -55 -37 -108zM784 1262q54 -26 88 -84l113 -205l-80 -51h256l127 221l-74 -41l-69 125q-10 20 -25.5 27.5 t-54.5 7.5h-281zM889 324l131 -213v88h125q60 0 96 55l154 231q-32 -19 -76.5 -33t-69.5 -14h-229v94zM1069 825l188 -340h13q70 0 127 48t57 118q0 47 -22 80l-132 227z" />
<glyph unicode="&#x267d;" horiz-adv-x="1712" d="M102 723q0 153 60 292.5t161 240.5t240.5 161t292.5 60t292.5 -60t240.5 -161t161 -240.5t60 -292.5t-60 -292.5t-161 -240.5t-240.5 -161t-292.5 -60t-292.5 60t-240.5 161t-161 240.5t-60 292.5zM141 723q0 -145 57 -277.5t153 -228.5t228 -152.5t277 -56.5 q146 0 278 56.5t228 152.5t152.5 228t56.5 278q0 145 -56.5 277t-152.5 228t-228.5 153t-277.5 57t-277 -57t-228 -153t-153 -228t-57 -277zM246 651q0 22 10 39l78 131l-62 29h246l119 -205l-70 39l-112 -199q-47 -81 -47 -123l-142 228q-20 36 -20 61zM418 971l127 223 q18 32 50 51t71 19q92 0 163 -88l-184 -338zM442 330q0 53 37 108h381v-239h-291q-43 0 -85 33t-42 98zM788 1262h281q39 0 54.5 -7.5t25.5 -27.5l70 -125l73 41l-127 -221h-256l80 51l-112 205q-33 57 -89 84zM893 324l131 208v-94h229q25 0 69.5 14t76.5 33l-154 -231 q-36 -55 -96 -55h-125v-88zM1073 825l232 133l131 -227q22 -33 22 -80q0 -70 -57 -118t-127 -48h-12z" />
<glyph unicode="&#x2693;" horiz-adv-x="1429" d="M131 432l291 -84l-82 -72q80 -76 151.5 -102.5t159.5 -34.5v813h-262v99h262v24q-55 15 -90 64t-35 110q0 76 55 130.5t130 54.5q74 0 127 -54.5t53 -130.5q0 -57 -31.5 -102t-83.5 -66v-30h266v-99h-266v-813h4q56 5 96 13.5t99 39.5t115 84l-82 72l290 84l-43 -311 l-77 84q-190 -197 -463 -221q-273 24 -461 221l-78 -84z" />
<glyph unicode="&#x26a0;" horiz-adv-x="1810" d="M100 94q0 35 23 76l678 1200q42 74 104 74q59 0 99 -70l677 -1204q21 -37 21 -76q0 -42 -27.5 -68t-81.5 -26h-1382q-55 0 -83 26.5t-28 67.5zM231 133q0 -18 60 -18h1222q60 0 60 18q0 5 -4 12.5t-11.5 20t-11.5 20.5l-608 1078q-16 34 -39 34q-20 0 -39 -34l-604 -1080 q-4 -7 -9 -16t-8 -14t-5.5 -11t-2.5 -10zM803 242q0 27 22.5 55.5t69.5 28.5q35 0 60.5 -24.5t25.5 -63.5q0 -37 -25 -60.5t-61 -23.5q-34 0 -63 20t-29 68zM805 981q0 35 25.5 64.5t64.5 29.5q47 0 72.5 -26.5t25.5 -67.5l-59 -575q-3 -16 -16 -26.5t-25 -10.5 q-13 0 -26.5 10.5t-14.5 26.5z" />
<glyph unicode="&#x2706;" horiz-adv-x="884" d="M215 713q0 127 15 234.5t38.5 181t55.5 132t63.5 92.5t64 57t56 31.5t41.5 10.5v-426q-53 0 -73.5 -76.5t-20.5 -257.5q0 -47 7 -108t29.5 -126.5t57.5 -70.5v-412q-17 0 -40.5 8.5t-56 31.5t-64.5 57.5t-63.5 93.5t-55.5 132.5t-39 181t-15 233.5zM575 -25v412h123 q17 0 29 -10.5t12 -30.5v-328q0 -17 -10.5 -30t-30.5 -13h-123zM575 1026v426h123q15 0 28 -13t13 -28v-334q0 -51 -41 -51h-123z" />
<glyph unicode="&#x2708;" horiz-adv-x="1822" d="M96 858h154l131 -172h393l-229 735h194l424 -735h506q48 0 76.5 -28t28.5 -66q0 -35 -27.5 -61.5t-75.5 -26.5h-512l-426 -719h-196l235 719h-391l-125 -164h-154l78 260z" />
<glyph unicode="&#x2709;" horiz-adv-x="2191" d="M131 0v1374h1927v-1374h-1927zM254 213l469 463l-469 467v-930zM332 1249l753 -760l750 760h-1503zM346 131h1487l-455 459l-293 -295l-280 278zM1458 690l465 -465v934z" />
<glyph unicode="&#x2713;" horiz-adv-x="1564" d="M131 729q42 38 101 57t106 19q35 0 86.5 -80t95.5 -206.5t58 -244.5q109 188 259 394t337 407t344 303l30 -35q-102 -77 -236 -245.5t-257.5 -364t-228 -381t-171.5 -327.5q-141 -29 -206 -66q-30 131 -83 295t-120.5 309t-114.5 166z" />
<glyph unicode="&#x2716;" horiz-adv-x="1519" d="M51 352l359 353l-359 352l355 356l354 -356l354 356l354 -356l-356 -352l356 -353l-354 -356l-354 358l-354 -358z" />
<glyph unicode="&#x271a;" horiz-adv-x="1531" d="M104 446v472h437v446h471v-446h446v-472h-436v-446h-473v446h-445z" />
<glyph unicode="&#x272a;" horiz-adv-x="1630" d="M86 709q0 197 97 364.5t264.5 265t365.5 97.5t365.5 -97.5t264.5 -265t97 -364.5q0 -148 -57.5 -282.5t-154.5 -231.5t-231.5 -154t-283.5 -57q-198 0 -365.5 97t-264.5 264t-97 364zM207 874l289 -286l-50 -408l349 189l387 -189l-66 418l281 276l-406 84l-196 363 l-187 -367z" />
<glyph unicode="&#x2794;" horiz-adv-x="1507" d="M43 600v219h1006l-484 481h305l590 -589l-592 -590l-301 -4l484 483h-1008z" />
<glyph unicode="&#xe000;" horiz-adv-x="1024" d="M82 352v705q0 83 38 154t99.5 117t138 71.5t154.5 25.5q79 0 155.5 -25.5t138 -71.5t99 -116.5t37.5 -154.5v-705q0 -67 -24.5 -125.5t-66.5 -101t-97 -73.5t-117 -46.5t-125 -15.5q-80 0 -156.5 25t-137.5 70t-98.5 114.5t-37.5 152.5zM262 397q0 -64 23.5 -113 t61.5 -76.5t79.5 -40.5t85.5 -13t86 13t80.5 40.5t62 76.5t23.5 113v615q0 65 -23.5 114.5t-62 77t-80.5 40.5t-86 13t-85.5 -13t-79.5 -40.5t-61.5 -77t-23.5 -114.5v-615z" />
<glyph unicode="&#xe001;" horiz-adv-x="854" d="M123 1165l297 246h166v-1411h-176v1194l-193 -158z" />
<glyph unicode="&#xe002;" horiz-adv-x="978" d="M53 0v166q0 82 28 157.5t80.5 140t110.5 115t134 103.5q315 199 315 365q0 70 -41 119t-100.5 70t-128.5 21q-160 0 -289 -106l-92 133q166 141 381 141q71 0 135.5 -12.5t123 -41t101.5 -70.5t68.5 -105t25.5 -141q0 -229 -373 -486q-119 -84 -163 -125 q-131 -118 -131 -233v-53h663v-158h-848z" />
<glyph unicode="&#xe003;" horiz-adv-x="991" d="M20 127l95 139q59 -52 142 -83t159 -31q132 0 210.5 65.5t78.5 179.5q0 115 -64.5 187.5t-165.5 72.5h-160v158h164q87 0 154 63.5t67 176.5q0 54 -22.5 94.5t-61 63t-83.5 33.5t-97 11q-73 0 -152.5 -31.5t-136.5 -80.5l-96 135q71 61 180 102t230 41q81 0 152 -19 t133 -59t98.5 -112.5t36.5 -169.5q0 -108 -52 -193.5t-147 -121.5q95 -38 149 -133t54 -201q0 -83 -24.5 -153t-67 -120t-100.5 -85.5t-125.5 -52.5t-141.5 -17q-121 0 -228 40t-178 101z" />
<glyph unicode="&#xe004;" horiz-adv-x="1013" d="M51 217v152q136 298 469 1042h189l-459 -1034h416v422h180v-422h121v-160h-121v-217h-180v217h-615z" />
<glyph unicode="&#xe005;" horiz-adv-x="970" d="M76 133l102 141q127 -118 285 -118q27 0 58 5.5t69 21.5t68 40.5t50.5 67t20.5 96.5v182q0 98 -50 149.5t-134 51.5q-61 0 -150 -39.5t-141 -81.5l-166 66v696h778v-166h-596v-401q76 51 153.5 78.5t139.5 27.5q157 0 250.5 -99t93.5 -261v-228q0 -111 -61.5 -197 t-161 -130.5t-217.5 -44.5q-230 0 -391 143z" />
<glyph unicode="&#xe006;" horiz-adv-x="978" d="M78 358v693q0 114 59.5 200.5t156.5 130t214 43.5q226 0 387 -143l-102 -143q-128 116 -281 116q-41 0 -83 -13t-81.5 -40t-64.5 -76t-25 -112v-232q179 115 326 115q155 0 246.5 -100t91.5 -262v-168q0 -114 -59.5 -201.5t-155 -131.5t-209.5 -44q-184 0 -302 98 t-118 270zM258 397q0 -62 22 -110.5t57.5 -76t76.5 -41t84 -13.5q42 0 83 14t78 41.5t59.5 76t22.5 109.5v121q0 102 -50 153.5t-132 51.5q-125 0 -301 -117v-209z" />
<glyph unicode="&#xe007;" horiz-adv-x="913" d="M45 1036v375h840v-158l-516 -1253h-193l508 1247h-469v-211h-170z" />
<glyph unicode="&#xe008;" horiz-adv-x="991" d="M53 387q0 105 59.5 199t147.5 133q-84 31 -130 115t-46 190q0 95 36 173t95.5 126t133 74t151.5 26q79 1 153 -25t133.5 -74.5t95.5 -127t36 -174.5q0 -101 -44.5 -183.5t-125.5 -119.5q100 -40 149 -129t49 -191q0 -103 -39 -184t-103.5 -129t-142.5 -73t-163 -25 q-92 0 -171.5 24.5t-141.5 72.5t-97 125.5t-35 176.5zM242 391q0 -112 69 -173.5t191 -61.5q120 0 189 62.5t69 176.5q0 103 -75 168.5t-183 65.5t-184 -66t-76 -172zM260 1024q0 -102 72 -166.5t170 -64.5q96 0 167.5 66t71.5 167q0 107 -69 167t-170 60q-98 0 -170 -60.5 t-72 -168.5z" />
<glyph unicode="&#xe009;" horiz-adv-x="968" d="M55 889v158q0 114 60 201.5t155.5 132t208.5 44.5q111 0 205.5 -42.5t154.5 -128t60 -197.5v-695q0 -114 -60 -200t-156.5 -129t-213.5 -43q-226 0 -387 143l102 143q128 -116 279 -116q41 0 83 13t81.5 39.5t64.5 75.5t25 113v238q-188 -113 -324 -113q-158 0 -248 95.5 t-90 267.5zM233 905q0 -102 51 -153.5t134 -51.5q115 0 299 115v203q0 62 -21.5 110t-57 75t-76 40.5t-83.5 13.5t-84.5 -13.5t-79 -41t-60 -75t-22.5 -109.5v-113z" />
<glyph unicode="&#xe00a;" horiz-adv-x="1028" d="M39 436v133h203l41 293h-187v131h205l61 430h142l-58 -430h232l59 430h144l-60 -430h193v-131h-211l-39 -293h192v-133h-211l-59 -436h-149l61 436h-227l-60 -436h-151l63 436h-184zM389 569h227l41 293h-229z" />
<glyph unicode="&#xe00b;" horiz-adv-x="956" d="M14 166l99 133q181 -137 372 -137q135 0 205 60t70 169q0 51 -19.5 90t-41.5 61t-70.5 41t-73.5 25.5t-84 18.5l-6 1.5t-5.5 1t-6.5 1.5q-84 18 -149 44t-125 69.5t-93 113t-33 160.5q0 157 104 266t261 127v170h123l-4 -168q202 -10 356 -108l-80 -152q-162 98 -328 98 q-107 0 -181.5 -62t-74.5 -175q0 -37 12 -67t37 -52t48.5 -37t62.5 -28t62.5 -19.5t62.5 -15.5q45 -11 70.5 -18t67 -20t66 -24.5t58 -30.5t53.5 -39t42.5 -48t34.5 -60t20 -74t8 -90q0 -171 -107.5 -275t-289.5 -118h4v-199h-123v199q-227 15 -404 168z" />
<glyph unicode="&#xe00c;" horiz-adv-x="1001" d="M51 535v129h805v-129h-522v-50q0 -164 87 -244.5t226 -80.5q167 0 275 69l84 -147q-154 -96 -355 -96q-233 0 -370.5 127t-137.5 344v78h-92zM51 760v129h92v67q0 139 67.5 247t183 165t257.5 57q211 0 350 -92l-92 -151q-119 69 -258 69q-142 0 -229.5 -79.5 t-87.5 -245.5v-37h522v-129h-805z" />
<glyph unicode="&#xe00d;" horiz-adv-x="944" d="M-33 -145l51 137q70 -27 123 -27q81 0 124 73t63 212l67 469h-178l-2 141h201l22 150q9 62 24 116.5t45 113t70 100t103 68t141 26.5q90 0 164 -29l-39 -154q-58 21 -133 21q-160 0 -195 -252l-22 -160h217l2 -141h-240l-65 -467q-28 -211 -108.5 -323.5t-239.5 -112.5 q-98 0 -195 39z" />
<glyph unicode="&#xe00e;" horiz-adv-x="974" d="M115 0v131q170 224 178 461h-178v139h141q-9 35 -33 101t-37.5 120t-13.5 105q0 95 45 178t134 135.5t204 52.5q137 0 234.5 -44.5t173.5 -149.5l-132 -105q-103 140 -274 140q-31 0 -63 -11.5t-62.5 -35t-50 -65.5t-19.5 -95q0 -67 38 -181t44 -145h326v-139h-311 q-7 -260 -125 -436h627v-156h-846z" />
<glyph unicode="&#xe00f;" horiz-adv-x="1024" d="M182 379v256q0 130 89 218.5t221 102.5v172h83v-170q173 -7 273 -110l-94 -113q-88 74 -179 78v-600q108 12 170 72l99 -105q-101 -95 -269 -106v-195h-83v197q-140 14 -225 96.5t-85 206.5zM340 416q0 -171 152 -199v592q-65 -15 -108.5 -64.5t-43.5 -134.5v-194z" />
<glyph unicode="&#xe010;" horiz-adv-x="978" d="M14 1411h207l271 -653h14l270 653h205l-303 -678h240v-125h-295l-29 -65v-103h324v-116h-324v-324h-191v324h-327v116h327v101l-30 67h-297v125h241z" />
</font>
</defs>
</svg>
